<svg width="94.6" height="44.9" viewBox="0 0 94.6 44.9" xmlns="http://www.w3.org/2000/svg"><g id="svgGroup" stroke-linecap="round" fill-rule="evenodd" font-size="9pt" stroke="#ffffff" stroke-width="0.25mm" fill="#ffffff" style="stroke:#ffffff;stroke-width:0.25mm;fill:#ffffff"><path d="M 76.4 0.05 L 77.85 0.05 L 77.85 44.8 L 76.4 44.8 L 76.4 0.05 Z M 40.2 15.25 L 40.2 42.35 Q 40.2 43.35 39.925 43.85 Q 39.65 44.35 38.8 44.6 Q 37.95 44.8 36.225 44.825 Q 34.5 44.85 31.7 44.85 Q 31.65 44.55 31.475 44.125 Q 31.3 43.7 31.05 43.35 Q 32.75 43.35 34.125 43.375 Q 35.5 43.4 36.45 43.375 Q 37.4 43.35 37.75 43.35 Q 38.35 43.3 38.55 43.1 Q 38.75 42.9 38.75 42.35 L 38.75 15.25 L 40.2 15.25 Z M 57.1 44.9 L 55.65 44.9 L 55.65 12.1 L 57 10.7 L 57.1 10.75 L 57.1 44.9 Z M 60.85 11.25 L 94 11.25 L 94 12.75 L 60.85 12.75 L 60.85 11.25 Z M 12.75 22.15 L 30.7 22.15 L 30.7 38.65 L 12.75 38.65 L 12.75 22.15 Z M 75.1 11.8 L 76.35 12.25 Q 74.7 17.1 72.175 21.675 Q 69.65 26.25 66.7 30.05 Q 63.75 33.85 60.7 36.3 Q 60.6 36.1 60.425 35.875 Q 60.25 35.65 60.05 35.45 Q 59.85 35.25 59.65 35.15 Q 62.65 32.95 65.575 29.25 Q 68.5 25.55 71 21.025 Q 73.5 16.5 75.1 11.8 Z M 77.95 12.2 L 79.35 11.75 Q 80.9 16.45 83.275 20.95 Q 85.65 25.45 88.575 29.125 Q 91.5 32.8 94.6 34.95 Q 94.3 35.15 93.95 35.5 Q 93.6 35.85 93.35 36.15 Q 90.25 33.8 87.325 30.025 Q 84.4 26.25 81.975 21.65 Q 79.55 17.05 77.95 12.2 Z M 14.2 23.6 L 14.2 37.2 L 29.25 37.2 L 29.25 23.6 L 14.2 23.6 Z M 2.9 18.45 L 4.35 18.45 L 4.35 44.9 L 2.9 44.9 L 2.9 18.45 Z M 13.9 15.25 L 39.1 15.25 L 39.1 16.7 L 13.9 16.7 L 13.9 15.25 Z M 60.65 0.15 L 62.05 0.5 Q 60.65 4.7 58.775 8.675 Q 56.9 12.65 54.725 16.15 Q 52.55 19.65 50.15 22.45 Q 50.05 22.3 49.85 22.075 Q 49.65 21.85 49.425 21.625 Q 49.2 21.4 49 21.25 Q 51.35 18.65 53.525 15.25 Q 55.7 11.85 57.5 8 Q 59.3 4.15 60.65 0.15 Z M 66.5 33.35 L 87.3 33.35 L 87.3 34.85 L 66.5 34.85 L 66.5 33.35 Z M 24.45 5.05 L 42.15 5.05 L 42.15 6.5 L 24.45 6.5 L 24.45 5.05 Z M 13.55 29.45 L 30.15 29.45 L 30.15 30.9 L 13.55 30.9 L 13.55 29.45 Z M 7.95 0 L 9.45 0.3 Q 8.6 2.95 7.35 5.4 Q 6.1 7.85 4.55 9.95 Q 3 12.05 1.3 13.7 Q 1.2 13.55 0.975 13.375 Q 0.75 13.2 0.5 13.025 Q 0.25 12.85 0 12.75 Q 2.65 10.4 4.675 7.1 Q 6.7 3.8 7.95 0 Z M 6 4.95 L 21.05 4.95 L 21.05 6.4 L 6 6.4 L 6 4.95 Z M 26.5 0.05 L 28 0.35 Q 26.95 3.9 25.175 7.025 Q 23.4 10.15 21.25 12.35 Q 21.15 12.2 20.925 12.025 Q 20.7 11.85 20.45 11.65 Q 20.2 11.45 20 11.35 Q 22.2 9.25 23.875 6.325 Q 25.55 3.4 26.5 0.05 Z M 4.85 14 L 5.95 13.25 Q 7.65 14.65 9.3 16.4 Q 10.95 18.15 11.9 19.45 L 10.75 20.25 Q 9.85 18.95 8.175 17.175 Q 6.5 15.4 4.85 14 Z M 30.4 6 L 31.75 5.55 Q 33 7.15 34.2 9.15 Q 35.4 11.15 36 12.6 L 34.65 13.15 Q 34.1 11.7 32.9 9.675 Q 31.7 7.65 30.4 6 Z M 10.8 5.9 L 12.2 5.55 Q 13.2 7.1 14.125 8.975 Q 15.05 10.85 15.45 12.15 L 14.05 12.65 Q 13.6 11.3 12.7 9.375 Q 11.8 7.45 10.8 5.9 Z" vector-effect="non-scaling-stroke"/></g></svg>