<svg width="95.25" height="45.2" viewBox="0 0 95.25 45.2" xmlns="http://www.w3.org/2000/svg"><g id="svgGroup" stroke-linecap="round" fill-rule="evenodd" font-size="9pt" stroke="#ffffff" stroke-width="0.25mm" fill="#ffffff" style="stroke:#ffffff;stroke-width:0.25mm;fill:#ffffff"><path d="M 54.2 2.1 L 55.1 2.1 L 57.4 2.1 L 60.4 2.1 L 63.4 2.1 L 65.7 2.1 L 66.6 2.1 L 66.6 3.125 L 66.6 5.775 L 66.6 9.225 L 66.6 12.675 L 66.6 15.325 L 66.6 16.35 L 66.375 16.35 L 65.875 16.35 L 65.375 16.35 L 65.15 16.35 L 65.15 15.425 L 65.15 13.05 L 65.15 9.95 L 65.15 6.85 L 65.15 4.475 L 65.15 3.55 L 64.2 3.55 L 61.825 3.55 L 58.975 3.55 L 56.6 3.55 L 55.65 3.55 L 55.65 4.475 L 55.65 6.85 L 55.65 9.95 L 55.65 13.05 L 55.65 15.425 L 55.65 16.35 L 55.425 16.35 L 54.925 16.35 L 54.425 16.35 L 54.2 16.35 L 54.2 15.325 L 54.2 12.675 L 54.2 9.225 L 54.2 5.775 L 54.2 3.125 L 54.2 2.1 Z M 3.55 35.775 L 3.55 35.9 Q 3.85 35.85 4.4 35.8 Q 4.95 35.75 6.175 35.675 Q 7.4 35.6 9.675 35.45 Q 11.95 35.3 15.675 35.05 Q 19.4 34.8 24.95 34.45 Q 30.5 34.1 38.3 33.6 L 38.2 33.4 L 37.975 32.95 L 37.75 32.5 L 37.65 32.3 L 35.875 32.4 Q 34.1 32.5 31.2 32.7 Q 28.3 32.9 24.85 33.1 Q 21.4 33.3 17.925 33.525 Q 14.45 33.75 11.55 33.95 Q 8.65 34.15 6.875 34.25 L 5.1 34.35 L 4.875 34.475 Q 4.65 34.6 4.325 34.725 Q 4 34.85 3.775 34.975 L 3.55 35.1 L 3.55 35.225 L 3.55 35.5 L 3.55 35.775 Z M 54.1 21.65 L 54.975 21.65 L 57.225 21.65 L 60.125 21.65 L 63.025 21.65 L 65.275 21.65 L 66.15 21.65 L 66.15 21.875 L 66.15 22.375 L 66.15 22.875 L 66.15 23.1 L 65.075 23.1 L 62.425 23.1 L 59.275 23.1 L 56.625 23.1 L 55.55 23.1 L 55.55 24.3 L 55.55 27.45 L 55.55 31.775 L 55.55 36.5 L 55.55 40.8 L 55.55 43.95 L 55.55 45.15 L 55.325 45.15 L 54.825 45.15 L 54.325 45.15 L 54.1 45.15 L 54.1 43.875 L 54.1 40.5 L 54.1 35.9 L 54.1 30.9 L 54.1 26.3 L 54.1 22.925 L 54.1 21.65 Z M 71.85 5.15 L 72.975 5.15 L 75.975 5.15 L 80.075 5.15 L 84.5 5.15 L 88.575 5.15 L 91.575 5.15 L 92.7 5.15 L 92.7 6.125 L 92.7 8.65 L 92.7 11.95 L 92.7 15.25 L 92.7 17.775 L 92.7 18.75 L 91.575 18.75 L 88.575 18.75 L 84.475 18.75 L 80.05 18.75 L 75.975 18.75 L 72.975 18.75 L 71.85 18.75 L 71.85 17.775 L 71.85 15.25 L 71.85 11.95 L 71.85 8.65 L 71.85 6.125 L 71.85 5.15 Z M 3.55 35.9 L 3.475 35.7 Q 3.4 35.5 3.325 35.2 Q 3.25 34.9 3.175 34.7 L 3.1 34.5 Q 4.1 34.45 5.825 34.025 Q 7.55 33.6 9.55 32.95 Q 10.7 32.65 12.975 31.85 Q 15.25 31.05 18.25 29.875 Q 21.25 28.7 24.5 27.275 Q 27.75 25.85 30.85 24.25 L 31 24.425 Q 31.15 24.6 31.375 24.825 Q 31.6 25.05 31.75 25.225 L 31.9 25.4 Q 25.15 28.85 18.5 31.25 Q 11.85 33.65 5.2 35.4 L 5.2 35.425 L 5.2 35.45 L 4.95 35.5 Q 4.7 35.55 4.375 35.625 Q 4.05 35.7 3.8 35.775 Q 3.55 35.85 3.55 35.9 Z M 51.35 15.6 L 52.325 15.6 L 54.925 15.6 L 58.475 15.6 L 62.325 15.6 L 65.875 15.6 L 68.475 15.6 L 69.45 15.6 L 69.45 16.275 L 69.45 17.925 L 69.45 19.875 L 69.45 21.525 L 69.45 22.2 L 69.225 22.2 L 68.725 22.2 L 68.225 22.2 L 68 22.2 L 68 21.425 L 68 19.65 L 68 17.875 L 68 17.1 L 66.9 17.1 L 64.075 17.1 L 60.4 17.1 L 56.725 17.1 L 53.9 17.1 L 52.8 17.1 L 52.8 17.875 L 52.8 19.65 L 52.8 21.425 L 52.8 22.2 L 52.575 22.2 L 52.075 22.2 L 51.575 22.2 L 51.35 22.2 L 51.35 21.525 L 51.35 19.875 L 51.35 17.925 L 51.35 16.275 L 51.35 15.6 Z M 65.2 21.65 L 65.425 21.65 L 65.925 21.65 L 66.425 21.65 L 66.65 21.65 L 66.65 22.8 L 66.65 25.875 L 66.65 30.075 L 66.65 34.65 L 66.65 38.875 L 66.65 41.95 L 66.65 43.1 Q 66.65 43.9 66.425 44.3 Q 66.2 44.7 65.55 44.9 Q 64.9 45.1 63.65 45.125 Q 62.4 45.15 60.2 45.15 Q 60.15 44.9 59.95 44.525 Q 59.75 44.15 59.55 43.85 Q 61.35 43.9 62.7 43.9 Q 64.05 43.9 64.4 43.85 Q 65.2 43.8 65.2 43.1 L 65.2 41.95 L 65.2 38.875 L 65.2 34.65 L 65.2 30.075 L 65.2 25.875 L 65.2 22.8 L 65.2 21.65 Z M 69.15 42.45 L 70.575 42.45 L 74.325 42.45 L 79.425 42.45 L 84.975 42.45 L 90.075 42.45 L 93.825 42.45 L 95.25 42.45 L 95.25 42.675 L 95.25 43.175 L 95.25 43.675 L 95.25 43.9 L 93.825 43.9 L 90.075 43.9 L 84.975 43.9 L 79.425 43.9 L 74.325 43.9 L 70.575 43.9 L 69.15 43.9 L 69.15 43.675 L 69.15 43.175 L 69.15 42.675 L 69.15 42.45 Z M 73.1 26.75 L 74.1 26.75 L 76.75 26.75 L 80.35 26.75 L 84.25 26.75 L 87.85 26.75 L 90.5 26.75 L 91.5 26.75 L 91.5 27.65 L 91.5 29.85 L 91.5 32.475 L 91.5 34.7 L 91.5 35.6 L 90.5 35.6 L 87.85 35.6 L 84.25 35.6 L 80.35 35.6 L 76.75 35.6 L 74.1 35.6 L 73.1 35.6 L 73.1 34.7 L 73.1 32.475 L 73.1 29.85 L 73.1 27.65 L 73.1 26.75 Z M 69.85 22.05 L 71.225 22.05 L 74.825 22.05 L 79.75 22.05 L 85.15 22.05 L 90.075 22.05 L 93.675 22.05 L 95.05 22.05 L 95.05 22.275 L 95.05 22.775 L 95.05 23.275 L 95.05 23.5 L 93.675 23.5 L 90.075 23.5 L 85.15 23.5 L 79.75 23.5 L 74.825 23.5 L 71.225 23.5 L 69.85 23.5 L 69.85 23.275 L 69.85 22.775 L 69.85 22.275 L 69.85 22.05 Z M 39.4 5.2 L 39.625 5.25 Q 39.85 5.3 40.175 5.35 Q 40.5 5.4 40.725 5.45 L 40.95 5.5 Q 39.75 9.9 37.3 13.15 Q 34.85 16.4 31.475 18.75 Q 28.1 21.1 24.05 22.75 Q 23.95 22.6 23.75 22.375 Q 23.55 22.15 23.3 21.925 Q 23.05 21.7 22.85 21.55 Q 29.05 19.35 33.375 15.375 Q 37.7 11.4 39.4 5.2 Z M 28.45 6.15 Q 30.45 12 34.725 16.25 Q 39 20.5 44.95 22.25 Q 44.7 22.45 44.4 22.8 Q 44.1 23.15 43.9 23.5 Q 37.95 21.5 33.55 17.1 Q 29.15 12.7 27.1 6.55 L 27.3 6.5 Q 27.5 6.45 27.775 6.35 Q 28.05 6.25 28.25 6.2 L 28.45 6.15 Z M 0.4 12.9 L 1.05 12.9 L 2.525 12.9 L 4 12.9 L 4.65 12.9 L 5.725 12.9 L 8.525 12.9 L 12.175 12.9 L 15.825 12.9 L 18.625 12.9 L 19.7 12.9 L 20.375 12.9 L 21.975 12.9 L 23.575 12.9 L 24.25 12.9 L 24.25 13.125 L 24.25 13.625 L 24.25 14.125 L 24.25 14.35 L 23.575 14.35 L 21.975 14.35 L 20.375 14.35 L 19.7 14.35 L 18.625 14.35 L 15.825 14.35 L 12.175 14.35 L 8.525 14.35 L 5.725 14.35 L 4.65 14.35 L 4 14.35 L 2.525 14.35 L 1.05 14.35 L 0.4 14.35 L 0.4 14.125 L 0.4 13.625 L 0.4 13.125 L 0.4 12.9 Z M 73.35 12.65 L 73.35 13.35 L 73.35 14.975 L 73.35 16.6 L 73.35 17.3 L 74.65 17.3 L 77.975 17.3 L 82.275 17.3 L 86.575 17.3 L 89.9 17.3 L 91.2 17.3 L 91.2 16.6 L 91.2 14.975 L 91.2 13.35 L 91.2 12.65 L 89.9 12.65 L 86.575 12.65 L 82.275 12.65 L 77.975 12.65 L 74.65 12.65 L 73.35 12.65 Z M 73.35 6.6 L 73.35 7.275 L 73.35 8.875 L 73.35 10.475 L 73.35 11.15 L 74.65 11.15 L 77.975 11.15 L 82.275 11.15 L 86.575 11.15 L 89.9 11.15 L 91.2 11.15 L 91.2 10.475 L 91.2 8.875 L 91.2 7.275 L 91.2 6.6 L 89.9 6.6 L 86.575 6.6 L 82.275 6.6 L 77.975 6.6 L 74.65 6.6 L 73.35 6.6 Z M 19.85 6.65 L 20.075 6.65 L 20.6 6.65 L 21.125 6.65 L 21.35 6.65 L 21.35 7.025 Q 21.35 7.4 21.3 7.65 Q 21 12.7 20.675 15.725 Q 20.35 18.75 19.975 20.25 Q 19.6 21.75 19.05 22.35 Q 18.7 22.75 18.2 22.95 Q 17.7 23.15 17 23.15 Q 16.55 23.15 15.75 23.125 Q 14.95 23.1 14.15 23.05 Q 14.1 22.8 14.025 22.375 Q 13.95 21.95 13.8 21.65 Q 14.8 21.7 15.6 21.75 Q 16.4 21.8 16.75 21.8 Q 17.15 21.8 17.425 21.725 Q 17.7 21.65 17.9 21.35 Q 18.3 20.85 18.625 19.375 Q 18.95 17.9 19.25 14.9 Q 19.55 11.9 19.85 7 L 19.85 6.825 L 19.85 6.65 Z M 74.55 28.2 L 74.55 29.1 L 74.55 31.175 L 74.55 33.25 L 74.55 34.15 L 75.675 34.15 L 78.55 34.15 L 82.3 34.15 L 86.05 34.15 L 88.925 34.15 L 90.05 34.15 L 90.05 33.25 L 90.05 31.175 L 90.05 29.1 L 90.05 28.2 L 88.925 28.2 L 86.05 28.2 L 82.3 28.2 L 78.55 28.2 L 75.675 28.2 L 74.55 28.2 Z M 4.3 19.45 L 5.65 19.45 L 9.15 19.45 L 13.7 19.45 L 18.25 19.45 L 21.75 19.45 L 23.1 19.45 L 23.1 19.675 L 23.1 20.175 L 23.1 20.675 L 23.1 20.9 L 21.75 20.9 L 18.25 20.9 L 13.7 20.9 L 9.15 20.9 L 5.65 20.9 L 4.3 20.9 L 4.3 20.675 L 4.3 20.175 L 4.3 19.675 L 4.3 19.45 Z M 5.55 2.7 L 6.85 2.7 L 10.175 2.7 L 14.5 2.7 L 18.825 2.7 L 22.15 2.7 L 23.45 2.7 L 23.45 2.925 L 23.45 3.425 L 23.45 3.925 L 23.45 4.15 L 22.1 4.15 L 18.625 4.15 L 14.125 4.15 L 9.625 4.15 L 6.15 4.15 L 4.8 4.15 L 4.925 3.925 Q 5.05 3.7 5.175 3.425 Q 5.3 3.15 5.425 2.925 L 5.55 2.7 Z M 22.35 33.9 L 22.5 33.9 L 22.875 33.9 L 23.325 33.9 L 23.7 33.9 L 23.85 33.9 L 23.85 34.825 L 23.85 37.075 L 23.85 39.75 L 23.85 42.025 L 23.85 42.95 Q 23.85 43.85 23.6 44.275 Q 23.35 44.7 22.5 44.9 Q 21.7 45.1 19.975 45.15 Q 18.25 45.2 15.45 45.2 Q 15.4 44.9 15.225 44.525 Q 15.05 44.15 14.8 43.8 Q 16.6 43.85 17.95 43.875 Q 19.3 43.9 20.175 43.875 Q 21.05 43.85 21.4 43.8 Q 22 43.75 22.175 43.575 Q 22.35 43.4 22.35 43 L 22.35 42.075 L 22.35 39.8 L 22.35 37.1 L 22.35 34.825 L 22.35 33.9 Z M 7.5 29.125 L 7.5 29.4 Q 7.8 29.35 8.45 29.3 Q 9.1 29.25 10.725 29.175 Q 12.35 29.1 15.575 28.95 Q 18.8 28.8 24.25 28.6 L 24.35 28.4 Q 24.45 28.2 24.6 27.925 Q 24.75 27.65 24.85 27.45 L 24.95 27.25 L 23.775 27.3 Q 22.6 27.35 20.775 27.4 Q 18.95 27.45 16.9 27.525 Q 14.85 27.6 13.025 27.65 Q 11.2 27.7 10.025 27.75 L 8.85 27.8 L 8.525 27.925 Q 8.2 28.05 7.85 28.2 L 7.5 28.35 L 7.5 28.6 L 7.5 29.125 Z M 28.8 4.8 L 29.925 4.8 L 32.85 4.8 L 36.65 4.8 L 40.45 4.8 L 43.375 4.8 L 44.5 4.8 L 44.5 5.025 L 44.5 5.525 L 44.5 6.025 L 44.5 6.25 L 43.3 6.25 L 40.2 6.25 L 36.15 6.25 L 32.1 6.25 L 29 6.25 L 27.8 6.25 L 27.95 6.025 Q 28.1 5.8 28.3 5.525 Q 28.5 5.25 28.65 5.025 L 28.8 4.8 Z M 7.5 29.4 L 7.425 29.15 Q 7.35 28.9 7.25 28.6 Q 7.15 28.3 7.075 28.05 L 7 27.8 Q 7.7 27.8 8.6 27.65 Q 9.5 27.5 10.5 27.15 Q 11.25 26.9 13 26.2 Q 14.75 25.5 16.975 24.475 Q 19.2 23.45 21.2 22.25 L 21.4 22.4 Q 21.6 22.55 21.875 22.75 Q 22.15 22.95 22.35 23.1 L 22.55 23.25 Q 19.1 25.1 15.725 26.425 Q 12.35 27.75 9.1 28.6 L 9.1 28.625 L 9.1 28.65 L 8.85 28.725 Q 8.6 28.8 8.3 28.925 Q 8 29.05 7.75 29.175 Q 7.5 29.3 7.5 29.4 Z M 5.8 6.65 L 6.85 6.65 L 9.575 6.65 L 13.1 6.65 L 16.625 6.65 L 19.35 6.65 L 20.4 6.65 L 20.4 6.875 L 20.4 7.4 L 20.4 7.925 L 20.4 8.15 L 19.35 8.15 L 16.625 8.15 L 13.1 8.15 L 9.575 8.15 L 6.85 8.15 L 5.8 8.15 L 5.8 7.925 L 5.8 7.4 L 5.8 6.875 L 5.8 6.65 Z M 29.65 37.75 L 29.8 37.6 L 30.15 37.25 L 30.5 36.9 L 30.65 36.75 Q 33 37.4 35.475 38.4 Q 37.95 39.4 40.15 40.5 Q 42.35 41.6 43.8 42.65 L 43.7 42.775 Q 43.6 42.9 43.45 43.075 L 43.15 43.425 Q 43 43.6 42.9 43.725 L 42.8 43.85 Q 41.4 42.8 39.2 41.675 Q 37 40.55 34.5 39.525 Q 32 38.5 29.65 37.75 Z M 5.25 6.65 L 5.475 6.65 L 5.975 6.65 L 6.475 6.65 L 6.7 6.65 Q 6.5 8.9 6.175 11.55 Q 5.85 14.2 5.525 16.675 Q 5.2 19.15 4.9 20.9 L 4.675 20.9 L 4.175 20.9 L 3.675 20.9 L 3.45 20.9 Q 3.8 19.1 4.125 16.6 Q 4.45 14.1 4.75 11.475 Q 5.05 8.85 5.25 6.65 Z M 13.5 37.05 L 13.625 37.1 Q 13.75 37.15 13.975 37.225 Q 14.2 37.3 14.4 37.375 Q 14.6 37.45 14.725 37.5 L 14.85 37.55 Q 13.15 38.8 11 40.05 Q 8.85 41.3 6.55 42.375 Q 4.25 43.45 2.15 44.3 Q 2.05 44.15 1.825 43.95 Q 1.6 43.75 1.35 43.55 Q 1.1 43.35 0.9 43.25 Q 4.2 42.1 7.625 40.475 Q 11.05 38.85 13.5 37.05 Z M 59.2 8 L 59.875 8 L 61.575 8 L 63.6 8 L 65.275 8 L 65.95 8 L 65.95 8.225 L 65.95 8.725 L 65.95 9.225 L 65.95 9.45 L 65.15 9.45 L 63.325 9.45 L 61.5 9.45 L 60.7 9.45 L 60.7 10.15 L 60.7 11.875 L 60.7 13.95 L 60.7 15.7 L 60.7 16.4 L 60.475 16.4 L 59.95 16.4 L 59.425 16.4 L 59.2 16.4 L 59.2 15.55 L 59.2 13.45 L 59.2 10.95 L 59.2 8.85 L 59.2 8 Z M 31.2 29.35 L 31.35 29.225 Q 31.5 29.1 31.675 28.925 Q 31.85 28.75 32 28.625 L 32.15 28.5 Q 34.05 29.55 36.1 30.875 Q 38.15 32.2 39.975 33.5 Q 41.8 34.8 43 35.8 L 42.85 35.95 Q 42.7 36.1 42.5 36.325 Q 42.3 36.55 42.15 36.7 L 42 36.85 Q 40.85 35.85 39.025 34.525 Q 37.2 33.2 35.15 31.825 Q 33.1 30.45 31.2 29.35 Z M 29.6 0.1 L 29.825 0.15 Q 30.05 0.2 30.375 0.25 Q 30.7 0.3 30.925 0.35 L 31.15 0.4 Q 30.1 3.75 28.375 6.725 Q 26.65 9.7 24.6 11.8 Q 24.5 11.65 24.275 11.475 Q 24.05 11.3 23.8 11.1 Q 23.55 10.9 23.35 10.8 Q 25.45 8.8 27.05 6.025 Q 28.65 3.25 29.6 0.1 Z M 78.2 5.45 L 78.425 5.45 L 78.925 5.45 L 79.425 5.45 L 79.65 5.45 L 79.65 6.725 L 79.65 9.85 L 79.65 13.575 L 79.65 16.725 L 79.65 18 L 79.425 18 L 78.925 18 L 78.425 18 L 78.2 18 L 78.2 16.725 L 78.2 13.575 L 78.2 9.85 L 78.2 6.725 L 78.2 5.45 Z M 84.65 5.45 L 84.875 5.45 L 85.375 5.45 L 85.875 5.45 L 86.1 5.45 L 86.1 6.725 L 86.1 9.85 L 86.1 13.575 L 86.1 16.725 L 86.1 18 L 85.875 18 L 85.375 18 L 84.875 18 L 84.65 18 L 84.65 16.725 L 84.65 13.575 L 84.65 9.85 L 84.65 6.725 L 84.65 5.45 Z M 54.8 28 L 55.95 28 L 58.775 28 L 62.125 28 L 64.95 28 L 66.1 28 L 66.1 28.225 L 66.1 28.75 L 66.1 29.275 L 66.1 29.5 L 64.95 29.5 L 62.125 29.5 L 58.775 29.5 L 55.95 29.5 L 54.8 29.5 L 54.8 29.275 L 54.8 28.75 L 54.8 28.225 L 54.8 28 Z M 54.8 34.6 L 55.95 34.6 L 58.775 34.6 L 62.125 34.6 L 64.95 34.6 L 66.1 34.6 L 66.1 34.825 L 66.1 35.325 L 66.1 35.825 L 66.1 36.05 L 64.95 36.05 L 62.125 36.05 L 58.775 36.05 L 55.95 36.05 L 54.8 36.05 L 54.8 35.825 L 54.8 35.325 L 54.8 34.825 L 54.8 34.6 Z M 6.5 0 L 6.725 0.05 Q 6.95 0.1 7.25 0.175 Q 7.55 0.25 7.775 0.3 L 8 0.35 Q 6.85 2.95 5.025 5.35 Q 3.2 7.75 1.3 9.45 Q 1.2 9.3 0.95 9.125 Q 0.7 8.95 0.45 8.75 Q 0.2 8.55 0 8.45 Q 2 6.85 3.7 4.65 Q 5.4 2.45 6.5 0 Z M 87.15 36.1 L 87.35 36.2 Q 87.55 36.3 87.85 36.425 Q 88.15 36.55 88.35 36.65 L 88.55 36.75 Q 87.95 38.15 87.275 39.7 Q 86.6 41.25 86.05 42.4 L 85.875 42.325 Q 85.7 42.25 85.45 42.125 Q 85.2 42 85.025 41.925 L 84.85 41.85 Q 85.45 40.65 86.125 38.975 Q 86.8 37.3 87.15 36.1 Z M 76.05 36.5 L 76.25 36.45 Q 76.45 36.4 76.725 36.325 Q 77 36.25 77.2 36.2 L 77.4 36.15 Q 78.15 37.45 78.65 39.075 Q 79.15 40.7 79.35 41.9 L 79.125 41.975 Q 78.9 42.05 78.625 42.125 Q 78.35 42.2 78.125 42.275 L 77.9 42.35 Q 77.75 41.1 77.25 39.475 Q 76.75 37.85 76.05 36.5 Z M 9.75 15.45 L 10.025 15.25 L 10.575 14.85 L 10.85 14.65 Q 12.05 15.45 13.425 16.5 Q 14.8 17.55 15.6 18.3 L 15.325 18.55 L 14.775 19.05 L 14.5 19.3 Q 13.7 18.5 12.35 17.4 Q 11 16.3 9.75 15.45 Z M 78.2 0.15 L 78.425 0.15 L 78.925 0.15 L 79.425 0.15 L 79.65 0.15 L 79.65 0.725 L 79.65 2.15 L 79.65 3.85 L 79.65 5.275 L 79.65 5.85 L 79.425 5.85 L 78.925 5.85 L 78.425 5.85 L 78.2 5.85 L 78.2 5.275 L 78.2 3.85 L 78.2 2.15 L 78.2 0.725 L 78.2 0.15 Z M 84.65 0.15 L 84.875 0.15 L 85.375 0.15 L 85.875 0.15 L 86.1 0.15 L 86.1 0.725 L 86.1 2.15 L 86.1 3.85 L 86.1 5.275 L 86.1 5.85 L 85.875 5.85 L 85.375 5.85 L 84.875 5.85 L 84.65 5.85 L 84.65 5.275 L 84.65 3.85 L 84.65 2.15 L 84.65 0.725 L 84.65 0.15 Z M 10.7 9.1 L 10.95 8.875 Q 11.2 8.65 11.45 8.45 L 11.7 8.25 Q 12.9 8.95 14.225 9.875 Q 15.55 10.8 16.35 11.5 L 16.1 11.75 L 15.575 12.275 L 15.3 12.55 Q 14.5 11.85 13.2 10.875 Q 11.9 9.9 10.7 9.1 Z" vector-effect="non-scaling-stroke"/></g></svg>