<svg width="16.86" height="17.96" viewBox="0 0 16.86 17.96" xmlns="http://www.w3.org/2000/svg"><g id="svgGroup" stroke-linecap="round" fill-rule="evenodd" font-size="9pt" stroke="#ffffff" stroke-width="0.25mm" fill="#ffffff" style="stroke:#ffffff;stroke-width:0.25mm;fill:#ffffff"><path d="M 15.5 16.94 L 15.5 6.1 L 16.08 6.1 L 16.08 16.94 A 2.342 2.342 0 0 1 16.071 17.149 Q 16.052 17.36 15.992 17.495 A 0.59 0.59 0 0 1 15.97 17.54 Q 15.888 17.688 15.68 17.782 A 1.263 1.263 0 0 1 15.52 17.84 A 2.381 2.381 0 0 1 15.301 17.879 Q 14.986 17.923 14.49 17.93 Q 13.873 17.939 12.911 17.94 A 236.001 236.001 0 0 1 12.68 17.94 Q 12.666 17.853 12.625 17.74 A 2.137 2.137 0 0 0 12.59 17.65 A 1.559 1.559 0 0 0 12.446 17.378 A 1.427 1.427 0 0 0 12.42 17.34 Q 13.1 17.34 13.65 17.35 Q 14.2 17.36 14.58 17.35 A 62.232 62.232 0 0 1 14.745 17.346 Q 14.935 17.341 15.042 17.34 A 5.994 5.994 0 0 1 15.1 17.34 Q 15.34 17.32 15.42 17.24 A 0.213 0.213 0 0 0 15.465 17.17 Q 15.492 17.105 15.498 17.002 A 1.048 1.048 0 0 0 15.5 16.94 Z M 5.1 15.46 L 5.1 8.86 L 12.28 8.86 L 12.28 15.46 L 5.1 15.46 Z M 11.7 9.44 L 5.68 9.44 L 5.68 14.88 L 11.7 14.88 L 11.7 9.44 Z M 1.16 17.96 L 1.16 7.38 L 1.74 7.38 L 1.74 17.96 L 1.16 17.96 Z M 5.56 6.68 L 5.56 6.1 L 15.64 6.1 L 15.64 6.68 L 5.56 6.68 Z M 9.78 2.6 L 9.78 2.02 L 16.86 2.02 L 16.86 2.6 L 9.78 2.6 Z M 5.42 12.36 L 5.42 11.78 L 12.06 11.78 L 12.06 12.36 L 5.42 12.36 Z M 3.18 0 L 3.78 0.14 Q 3.44 1.2 2.94 2.18 Q 2.44 3.16 1.82 3.99 Q 1.2 4.82 0.52 5.48 Q 0.474 5.434 0.411 5.382 A 2.251 2.251 0 0 0 0.37 5.35 A 4.635 4.635 0 0 0 0.205 5.227 A 5.127 5.127 0 0 0 0.18 5.21 A 1.939 1.939 0 0 0 0.108 5.162 Q 0.072 5.139 0.039 5.12 A 1.01 1.01 0 0 0 0 5.1 A 10.054 10.054 0 0 0 1.436 3.476 A 11.875 11.875 0 0 0 1.86 2.84 Q 2.68 1.52 3.18 0 Z M 2.4 2.56 L 2.4 1.98 L 8.42 1.98 L 8.42 2.56 L 2.4 2.56 Z M 10.6 0.02 L 11.2 0.14 Q 10.78 1.56 10.07 2.81 A 11.471 11.471 0 0 1 9.236 4.083 A 9.077 9.077 0 0 1 8.5 4.94 Q 8.46 4.88 8.37 4.81 Q 8.28 4.74 8.18 4.66 A 0.906 0.906 0 0 0 8.077 4.588 A 0.697 0.697 0 0 0 7.98 4.54 A 8.641 8.641 0 0 0 9.165 3.128 A 10.255 10.255 0 0 0 9.54 2.53 Q 10.22 1.36 10.6 0.02 Z M 1.94 5.6 L 2.38 5.3 Q 3.06 5.86 3.73 6.56 A 15.616 15.616 0 0 1 4.154 7.02 Q 4.524 7.439 4.76 7.78 L 4.3 8.12 A 7.401 7.401 0 0 0 4.016 7.739 Q 3.863 7.546 3.676 7.331 A 17.727 17.727 0 0 0 3.27 6.88 Q 2.6 6.16 1.94 5.6 Z M 12.16 2.4 L 12.7 2.22 A 16.691 16.691 0 0 1 13.321 3.1 A 20.123 20.123 0 0 1 13.69 3.68 A 12.666 12.666 0 0 1 13.995 4.204 Q 14.256 4.679 14.4 5.06 L 13.86 5.28 A 6.346 6.346 0 0 0 13.668 4.832 Q 13.568 4.619 13.441 4.381 A 14.673 14.673 0 0 0 13.16 3.88 Q 12.68 3.06 12.16 2.4 Z M 4.32 2.36 L 4.88 2.22 A 14.125 14.125 0 0 1 5.372 3.046 A 17.176 17.176 0 0 1 5.66 3.59 A 12.627 12.627 0 0 1 5.895 4.078 Q 5.995 4.299 6.071 4.494 A 5.319 5.319 0 0 1 6.2 4.86 L 5.62 5.06 Q 5.511 4.693 5.305 4.22 A 13.693 13.693 0 0 0 5.09 3.75 A 13.949 13.949 0 0 0 4.64 2.889 A 11.189 11.189 0 0 0 4.32 2.36 Z" vector-effect="non-scaling-stroke"/></g></svg>