<svg width="18.08" height="17.98" viewBox="0 0 18.08 17.98" xmlns="http://www.w3.org/2000/svg"><g id="svgGroup" stroke-linecap="round" fill-rule="evenodd" font-size="9pt" stroke="#ffffff" stroke-width="0.25mm" fill="#ffffff" style="stroke:#ffffff;stroke-width:0.25mm;fill:#ffffff"><path d="M 12.12 9.5 L 12.56 10 Q 9.92 11.4 7.31 12.41 Q 4.7 13.42 2.1 14.14 L 2.1 14.16 L 2 14.18 A 1.225 1.225 0 0 0 1.919 14.199 Q 1.848 14.219 1.76 14.25 A 1.657 1.657 0 0 0 1.645 14.296 Q 1.587 14.321 1.538 14.35 A 0.965 0.965 0 0 0 1.52 14.36 A 0.409 0.409 0 0 0 1.48 14.387 Q 1.439 14.419 1.426 14.45 A 0.077 0.077 0 0 0 1.42 14.48 A 1.225 1.225 0 0 1 1.465 14.466 Q 1.544 14.443 1.656 14.42 A 4.714 4.714 0 0 1 1.76 14.4 A 2.78 2.78 0 0 1 1.777 14.397 Q 1.998 14.358 2.47 14.31 A 28.339 28.339 0 0 1 2.723 14.285 Q 3.026 14.257 3.441 14.224 A 113.507 113.507 0 0 1 3.87 14.19 A 126.087 126.087 0 0 1 4.068 14.175 Q 4.937 14.109 6.27 14.02 A 529.876 529.876 0 0 1 6.342 14.015 Q 7.814 13.917 9.98 13.78 Q 11.368 13.693 13.107 13.582 A 7175.912 7175.912 0 0 0 15.32 13.44 A 3.896 3.896 0 0 1 15.281 13.373 Q 15.26 13.336 15.237 13.295 A 8.178 8.178 0 0 1 15.18 13.19 A 2.567 2.567 0 0 1 15.157 13.145 Q 15.094 13.022 15.06 12.92 L 2.04 13.74 L 1.42 14.04 L 1.42 14.48 Q 1.42 14.386 1.385 14.275 A 0.987 0.987 0 0 0 1.38 14.26 Q 1.34 14.14 1.3 14.01 Q 1.263 13.889 1.225 13.793 A 2.135 2.135 0 0 0 1.22 13.78 A 4.392 4.392 0 0 0 1.497 13.742 Q 1.785 13.695 2.171 13.602 A 15.84 15.84 0 0 0 2.3 13.57 Q 2.98 13.4 3.78 13.12 Q 4.212 12.983 5.088 12.662 A 91.108 91.108 0 0 0 5.12 12.65 Q 5.893 12.366 6.859 11.972 A 76.458 76.458 0 0 0 7.18 11.84 Q 8.34 11.36 9.62 10.76 Q 10.9 10.16 12.12 9.5 Z M 7.28 9.22 L 7.84 9.6 A 17.118 17.118 0 0 1 6.051 10.545 A 15.398 15.398 0 0 1 5.72 10.69 A 17.89 17.89 0 0 1 4.291 11.228 A 15.326 15.326 0 0 1 3.66 11.42 L 3.66 11.44 L 3.57 11.47 A 1.473 1.473 0 0 0 3.5 11.495 Q 3.467 11.508 3.429 11.525 A 3.304 3.304 0 0 0 3.35 11.56 A 1.353 1.353 0 0 0 3.237 11.618 Q 3.182 11.65 3.137 11.685 A 0.813 0.813 0 0 0 3.13 11.69 A 0.324 0.324 0 0 0 3.086 11.73 Q 3.065 11.755 3.053 11.78 A 0.144 0.144 0 0 0 3.04 11.84 A 0.844 0.844 0 0 1 3.086 11.826 Q 3.202 11.795 3.4 11.77 Q 3.581 11.747 3.972 11.719 A 41.571 41.571 0 0 1 4.25 11.7 Q 4.86 11.66 6.04 11.6 Q 7.22 11.54 9.22 11.46 A 1.796 1.796 0 0 1 9.233 11.429 Q 9.272 11.337 9.34 11.2 Q 9.42 11.04 9.5 10.92 L 3.58 11.12 L 3.04 11.34 L 3.04 11.84 Q 3.02 11.76 2.99 11.63 Q 2.96 11.5 2.92 11.36 Q 2.88 11.22 2.84 11.14 A 8.572 8.572 0 0 0 3.015 11.122 Q 3.092 11.114 3.176 11.103 A 14.863 14.863 0 0 0 3.35 11.08 A 2.597 2.597 0 0 0 3.705 11.004 A 3.286 3.286 0 0 0 3.96 10.92 Q 4.181 10.846 4.673 10.637 A 33.019 33.019 0 0 0 4.76 10.6 Q 5.32 10.36 6 10 Q 6.68 9.64 7.28 9.22 Z M 15.76 2.08 L 16.38 2.2 A 10.722 10.722 0 0 1 15.438 4.615 A 8.574 8.574 0 0 1 13.9 6.66 A 12.949 12.949 0 0 1 10.358 9.099 A 15.061 15.061 0 0 1 9.68 9.4 Q 9.64 9.34 9.55 9.26 L 9.37 9.1 Q 9.28 9.02 9.2 8.96 A 12.73 12.73 0 0 0 11.82 7.629 A 10.716 10.716 0 0 0 13.39 6.35 Q 15.08 4.68 15.76 2.08 Z M 10.76 2.62 L 11.3 2.46 Q 12.12 4.88 13.86 6.64 Q 15.6 8.4 18.08 9.14 Q 17.977 9.208 17.875 9.328 A 1.586 1.586 0 0 0 17.84 9.37 A 2.185 2.185 0 0 0 17.758 9.478 Q 17.698 9.565 17.66 9.64 Q 15.18 8.82 13.39 6.99 Q 11.6 5.16 10.76 2.62 Z M 0.16 5.96 L 0.16 5.36 L 1.86 5.36 L 7.88 5.36 L 9.7 5.36 L 9.7 5.96 L 7.88 5.96 L 1.86 5.96 L 0.16 5.96 Z M 1.62 8.78 L 1.62 8.18 L 9.12 8.18 L 9.12 8.78 L 1.62 8.78 Z M 1.92 1.56 L 2.22 0.98 L 9.38 0.98 L 9.38 1.56 L 1.92 1.56 Z M 8.94 17.1 L 8.94 13.56 L 9.54 13.56 L 9.54 17.1 A 2.063 2.063 0 0 1 9.532 17.286 Q 9.515 17.47 9.463 17.586 A 0.474 0.474 0 0 1 9.44 17.63 A 0.405 0.405 0 0 1 9.337 17.743 Q 9.218 17.836 9 17.9 A 1.945 1.945 0 0 1 8.794 17.938 Q 8.584 17.967 8.283 17.976 A 9.862 9.862 0 0 1 7.99 17.98 L 6.18 17.98 A 0.761 0.761 0 0 0 6.15 17.863 Q 6.132 17.807 6.103 17.748 A 1.319 1.319 0 0 0 6.09 17.72 Q 6.02 17.58 5.92 17.44 Q 6.64 17.44 7.18 17.45 A 30.918 30.918 0 0 0 7.438 17.454 Q 7.807 17.458 8.07 17.45 Q 8.392 17.441 8.537 17.44 A 4.651 4.651 0 0 1 8.56 17.44 Q 8.791 17.421 8.864 17.355 A 0.133 0.133 0 0 0 8.87 17.35 A 0.194 0.194 0 0 0 8.911 17.286 Q 8.935 17.226 8.939 17.135 A 0.843 0.843 0 0 0 8.94 17.1 Z M 10.88 2.5 L 11.3 1.92 L 17.84 1.92 L 17.84 2.5 L 10.88 2.5 Z M 2.1 2.66 L 2.68 2.66 Q 2.6 3.62 2.47 4.76 Q 2.34 5.9 2.2 6.96 A 99.859 99.859 0 0 1 2.098 7.713 Q 2.056 8.009 2.017 8.276 A 52.245 52.245 0 0 1 1.94 8.78 L 1.36 8.78 Q 1.5 8 1.64 6.93 Q 1.78 5.86 1.9 4.73 Q 2.02 3.6 2.1 2.66 Z M 7.94 2.66 L 8.52 2.66 Q 8.46 3.6 8.36 4.69 A 134.751 134.751 0 0 1 8.177 6.544 A 122.083 122.083 0 0 1 8.15 6.8 A 89.507 89.507 0 0 1 8.069 7.526 Q 8.003 8.098 7.94 8.56 L 7.36 8.54 A 28.122 28.122 0 0 0 7.449 7.933 Q 7.485 7.665 7.52 7.372 A 49.35 49.35 0 0 0 7.59 6.76 A 83.679 83.679 0 0 0 7.767 4.921 A 92.052 92.052 0 0 0 7.79 4.65 Q 7.88 3.56 7.94 2.66 Z M 2.32 3.26 L 2.32 2.66 L 8.16 2.66 L 8.16 3.26 L 2.32 3.26 Z M 5.4 14.82 L 5.98 15.04 A 12.576 12.576 0 0 1 5.084 15.663 A 15.638 15.638 0 0 1 4.44 16.05 Q 3.58 16.54 2.66 16.98 A 29.076 29.076 0 0 1 1.341 17.572 A 25.09 25.09 0 0 1 0.88 17.76 A 0.44 0.44 0 0 0 0.851 17.722 Q 0.818 17.682 0.765 17.633 A 1.845 1.845 0 0 0 0.74 17.61 L 0.54 17.43 Q 0.443 17.343 0.347 17.303 A 0.504 0.504 0 0 0 0.34 17.3 A 25.755 25.755 0 0 0 2.708 16.35 A 28.575 28.575 0 0 0 3.05 16.19 A 17.153 17.153 0 0 0 4.249 15.565 Q 4.879 15.203 5.4 14.82 Z M 11.86 15.2 L 12.24 14.82 Q 13.16 15.12 14.15 15.53 Q 15.14 15.94 16.03 16.37 A 15.269 15.269 0 0 1 16.654 16.688 Q 16.956 16.852 17.211 17.011 A 7.498 7.498 0 0 1 17.5 17.2 L 17.12 17.64 A 10.511 10.511 0 0 0 16.643 17.347 Q 16.372 17.189 16.056 17.023 A 21.599 21.599 0 0 0 15.66 16.82 A 34.557 34.557 0 0 0 14.333 16.193 A 40.175 40.175 0 0 0 13.78 15.95 A 30.496 30.496 0 0 0 12.443 15.411 A 25.793 25.793 0 0 0 11.86 15.2 Z M 12.32 11.54 L 12.7 11.2 Q 13.46 11.64 14.26 12.18 Q 15.06 12.72 15.77 13.26 A 15.864 15.864 0 0 1 16.265 13.651 Q 16.499 13.845 16.694 14.024 A 7.466 7.466 0 0 1 16.92 14.24 L 16.5 14.66 Q 16.163 14.308 15.674 13.903 A 15.886 15.886 0 0 0 15.36 13.65 Q 14.66 13.1 13.87 12.54 A 20.962 20.962 0 0 0 12.75 11.797 A 18.099 18.099 0 0 0 12.32 11.54 Z M 11.84 0.04 L 12.44 0.16 Q 12.02 1.5 11.33 2.68 A 11.469 11.469 0 0 1 10.513 3.9 A 9.124 9.124 0 0 1 9.82 4.7 Q 9.791 4.656 9.741 4.608 A 1.04 1.04 0 0 0 9.7 4.57 A 1.958 1.958 0 0 0 9.592 4.483 A 2.408 2.408 0 0 0 9.52 4.43 A 1.939 1.939 0 0 0 9.448 4.382 Q 9.412 4.359 9.379 4.34 A 1.01 1.01 0 0 0 9.34 4.32 Q 10.18 3.52 10.82 2.41 Q 11.46 1.3 11.84 0.04 Z M 2.6 0 L 3.2 0.14 A 9.896 9.896 0 0 1 2.1 2.02 A 10.962 10.962 0 0 1 2.01 2.14 A 13.087 13.087 0 0 1 1.203 3.106 A 10.168 10.168 0 0 1 0.52 3.78 Q 0.482 3.723 0.39 3.657 A 1.098 1.098 0 0 0 0.38 3.65 Q 0.28 3.58 0.18 3.5 A 1.457 1.457 0 0 0 0.108 3.446 Q 0.072 3.421 0.039 3.401 A 0.687 0.687 0 0 0 0 3.38 A 8.7 8.7 0 0 0 1.221 2.182 A 9.942 9.942 0 0 0 1.48 1.86 Q 2.16 0.98 2.6 0 Z M 3.92 6.38 L 4.38 6.08 Q 4.86 6.42 5.35 6.88 Q 5.714 7.222 5.951 7.519 A 3.445 3.445 0 0 1 6.1 7.72 L 5.62 8.1 Q 5.441 7.802 5.128 7.464 A 6.742 6.742 0 0 0 4.9 7.23 Q 4.42 6.76 3.92 6.38 Z M 4.28 3.7 L 4.72 3.38 A 9.177 9.177 0 0 1 5.299 3.819 A 10.952 10.952 0 0 1 5.65 4.12 Q 6.12 4.54 6.36 4.9 L 5.88 5.26 Q 5.721 4.999 5.435 4.696 A 6.443 6.443 0 0 0 5.2 4.46 Q 4.74 4.02 4.28 3.7 Z" vector-effect="non-scaling-stroke"/></g></svg>