<?xml version="1.0" encoding="utf-8"?>
<svg width="443.7px" height="67.5px" viewBox="0 0 443.726 67.501" xmlns="http://www.w3.org/2000/svg" xmlns:bx="https://boxy-svg.com"><defs><bx:export><bx:file format="svg" href="#group-1" path="Untitled 2.svg"/><bx:file format="svg"/></bx:export><view id="view-1"><title>View 1</title></view></defs><g fill="#0067ea" transform="matrix(0.095459, 0, 0, 0.095967, 397.706122, -4.230866)"><path d="M197.5 459.2 c-3.2 -1 -6.7 -3.3 -9.7 -6.3 -7.8 -7.8 -7.8 -7.6 -7.8 -65.1 0 -49.8 0 -49.8 -2.9 -53 -2.9 -3.3 -2.9 -3.3 -32 -3.6 -28.1 -0.3 -29.1 -0.4 -29.1 -2.2 0 -1.9 0.9 -2 28 -2 28 0 28 0 28 -3.8 0 -5 2.4 -6.2 13.1 -6.2 9.4 0 9.4 0.1 9.3 10.5 -0.1 9.3 -1.3 11.5 -6.4 11.5 -4 0 -4 0 -4 49.5 0 55.4 -0.1 54.2 7.2 61.6 2.1 2.1 4.3 3.9 4.8 3.9 0.4 0 1 0.6 1.2 1.3 0.4 0.9 11.2 1.3 48.6 1.5 39.3 0.3 48.2 0.6 48.2 1.6 0 0.8 -0.9 1.6 -2.1 1.9 -1.1 0.3 -21.7 0.6 -45.7 0.6 -38.3 0 -44.3 -0.2 -48.7 -1.7z"/><path d="M306 458.2 c0 -1.3 1.2 -2.2 3.9 -3 4.6 -1.4 11.3 -8.3 13.2 -13.5 0.8 -2.4 1.9 -3.7 3.1 -3.7 1 0 1.8 0.5 1.8 1.1 0 3.3 -2.7 9.4 -5.9 13 -5.4 6.4 -16.1 10.4 -16.1 6.1z"/><path d="M208.1 442 c-7.5 -1.8 -8 -4.3 -8.1 -39.2 0 -27.1 0 -27.8 2 -27.8 2 0 2 0.7 2 29.1 0 29.1 0 29.1 2.9 32 2.9 2.9 2.9 2.9 17 2.9 13.4 0 14.1 0.1 14.1 2 0 1.9 -0.6 2 -13.2 1.9 -7.3 -0.1 -14.8 -0.5 -16.7 -0.9z"/><path d="M279 441.1 c0 -2 0.5 -2.1 9.5 -2.1 6.6 0 10.5 -0.5 12.5 -1.5 2.9 -1.5 3.3 -2.3 4.5 -8.2 0.9 -4.7 3.5 -4.3 3.5 0.5 0 5.2 -1 8.2 -2.6 8.2 -0.8 0 -1.4 0.6 -1.4 1.4 0 2.2 -2.7 2.8 -14.7 3.3 -11 0.6 -11.3 0.5 -11.3 -1.6z"/><path d="M250.2 408.8 c-18.6 -3.2 -24.8 -27.1 -10.8 -41.1 3.6 -3.6 3.6 -3.6 3.6 -39.7 0 -35.3 0 -36 2 -36 2 0 2 0.7 2 35.3 0 35.2 0 35.2 7.5 34.9 4.1 -0.2 7.5 -0.8 7.5 -1.3 0 -0.5 0.7 -0.9 1.5 -0.9 0.8 0 1.5 0.7 1.5 1.5 0 0.9 1.8 3.5 4.1 5.8 7.8 8 10.1 15.9 7.5 25.2 -3.5 11.8 -14.2 18.5 -26.4 16.3z m7.7 -19.4 c2.3 -3 1.7 -5.1 -2.2 -7.7 -2.3 -1.5 -2.6 -1.4 -5.2 1.3 -2.5 2.6 -2.6 3.2 -1.5 4.7 3.8 5 6 5.4 8.9 1.7z"/><path d="M305.7 402.1 c-0.2 -1.1 -0.4 -22.3 -0.3 -47.3 0.1 -45.3 0.1 -45.3 2.5 -45.6 2.2 -0.3 2.3 -0.1 1.7 2.8 -0.3 1.8 -0.6 23.2 -0.6 47.6 0 37.1 -0.2 44.4 -1.4 44.4 -0.7 0 -1.6 -0.9 -1.9 -1.9z"/><path d="M130 397.4 c-6.9 -3 -11.5 -9.5 -12.7 -17.9 -1.2 -9 7 -19.9 17.1 -22.6 10.7 -2.9 23 4.9 25.2 16 0.6 2.6 0.3 3.1 -1.3 3.1 -1.3 0 -2.3 -1.1 -3.1 -3.4 -1.8 -5 -7.7 -10.5 -12.7 -11.8 -3.7 -1 -4.7 -0.9 -8.9 1.2 -6 2.9 -8.9 5.7 -11 11 -2.1 5.2 -0.9 10.5 3.6 15.6 5.4 6.1 11.7 7.9 18 5.1 4 -1.8 10.7 -8.3 11.4 -11.2 0.4 -1.6 1.3 -2.5 2.5 -2.5 4 0 0.9 8 -5.1 13.4 -6.1 5.5 -15.7 7.2 -23 4z"/><path d="M366.3 397.6 c-5.8 -1.9 -9.9 -5 -12.7 -9.9 -5 -8.5 -4.2 -16.8 2.1 -23.8 9.2 -10.1 22.6 -10.7 31.5 -1.2 8.5 8.9 7.7 25.8 -1.5 32.1 -6.3 4.2 -12.1 5 -19.4 2.8z m13.8 -4.8 c4 -1.9 5.3 -3.2 7.5 -7.6 2.6 -5.1 2.6 -5.5 1.4 -10.8 -0.7 -2.9 -1.7 -5.4 -2.2 -5.4 -0.4 0 -0.8 -1.3 -0.8 -3 0 -2.6 -0.4 -3 -2.7 -3 -1.6 -0.1 -3.9 -0.7 -5.3 -1.5 -3.6 -2 -9 -1.8 -12.8 0.5 -1.8 1.1 -4.1 2 -5.2 2 -1.3 0 -2 0.7 -2 2 0 1.1 -0.9 3.4 -2 5.2 -2.4 4 -2.5 6.1 -0.3 11.3 2.5 6.1 11.1 12.1 17.7 12.4 1 0.1 4 -0.9 6.7 -2.1z"/><path d="M200 340.5 c0 -27.5 0 -27.5 -4.5 -27.5 -3.9 0 -4.5 -0.3 -4.5 -2 0 -1.9 0.5 -2.1 6.3 -1.8 6.2 0.3 6.2 0.3 6.5 29.6 0.2 28.7 0.2 29.2 -1.8 29.2 -2 0 -2 -0.6 -2 -27.5z"/><path d="M325 340 c0 -2.9 -0.2 -3 -4.4 -3 -5.1 0 -5.6 -0.9 -5.6 -10.7 0 -8.1 1.2 -9.3 9.3 -9.2 3.4 0 7.8 0.5 9.7 1.2 3.1 1.1 3.5 1.7 3.8 5 0.3 3.7 0.3 3.7 26.3 3.7 25.2 0 25.9 0.1 25.9 2 0 1.9 -0.7 2 -26.1 2 -29.2 0 -31.4 0.4 -34.3 6.5 -0.9 1.8 -1.6 3.8 -1.6 4.4 0 0.6 -0.7 1.1 -1.5 1.1 -1 0 -1.5 -1 -1.5 -3z"/><path d="M62.7 329.6 c-6.6 -2.4 -12.2 -7.5 -15.3 -14.1 -2.9 -6.1 -3 -8.5 -0.5 -8.5 1.9 0 3.1 2.5 3.1 6.8 0 1.3 0.6 2.2 1.5 2.2 1 0 1.5 1 1.5 3 0 2.7 0.3 3 3 3 1.7 0 3 0.4 3 0.8 0 1 8.7 4.2 11.3 4.2 1 0 1.7 0.8 1.7 2 0 2.4 -3.5 2.6 -9.3 0.6z"/><path d="M436 329.1 c0 -1.5 1 -2 5.4 -2.5 3.3 -0.5 5.7 -1.3 6 -2.2 0.3 -0.8 1 -1.4 1.5 -1.4 2.1 0 8.2 -7.5 9.8 -12.1 1.3 -3.5 2.3 -4.9 3.6 -4.9 1.7 0 1.8 0.5 1.2 3.8 -1.5 8.6 -8.7 16.5 -17.8 19.6 -6.5 2.2 -9.7 2.1 -9.7 -0.3z"/><path d="M71 311 c0 -0.5 -0.7 -1 -1.5 -1 -0.8 0 -1.5 -0.7 -1.5 -1.5 0 -0.8 -0.4 -1.5 -1 -1.5 -0.5 0 -1 -1.6 -1 -3.5 0 -2.4 0.5 -3.5 1.5 -3.5 0.8 0 1.5 0.6 1.5 1.4 0 2.4 4 6.4 7 7.1 4.6 1 3.8 3.5 -1 3.5 -2.2 0 -4 -0.4 -4 -1z"/><path d="M431 310.5 c0 -0.8 0.6 -1.5 1.4 -1.5 2.4 0 6.4 -4 7.1 -7 0.9 -4.3 3.5 -3.9 3.5 0.6 0 4.2 -1.5 7.4 -3.5 7.4 -0.8 0 -1.5 0.5 -1.5 1 0 0.6 -1.6 1 -3.5 1 -2.4 0 -3.5 -0.5 -3.5 -1.5z"/><path d="M262.3 290 c0.7 -9 0.7 -9 -1.8 -9 -2.3 0 -2.5 -0.4 -2.5 -4.1 0 -5.6 1.4 -7.9 5 -7.9 2.8 0 3 -0.3 3 -3.5 0 -3.3 0.2 -3.5 3.5 -3.5 2.8 0 3.5 0.4 3.5 2 0 1.3 0.5 1.8 1.5 1.4 0.9 -0.4 1.5 -1.9 1.5 -3.9 0 -3 0.3 -3.3 3.8 -3.9 2 -0.3 4.9 -0.6 6.5 -0.6 2.4 0 2.7 0.3 2.7 3.5 0 3.5 0 3.5 36.3 3.5 36.2 0 36.2 0 36.4 -8 0.3 -8 0.3 -8 -14.2 -8 -13.8 0 -14.5 -0.1 -14.5 -2 0 -1.9 0.7 -2 16.8 -2 16.8 0 16.8 0 19.8 -3.1 4.1 -4.4 9.9 -7 16.4 -7.6 14.2 -1.3 25.5 8.6 25.4 22.2 -0.2 21.4 -24.3 31 -41.6 16.5 -4.7 -4 -4.7 -4 -44.2 -4 -36.1 0 -39.5 -0.1 -39.8 -1.7 -0.3 -1.5 -0.4 -1.5 -1.9 -0.1 -0.9 0.9 -3.4 2.1 -5.5 2.7 -7.5 2 -12.4 10.3 -12.4 21 0 6.2 -0.9 9.1 -2.8 9.1 -1.3 0 -1.4 -1.3 -0.9 -9z m131 -32.2 c2.1 -2.8 2.1 -2.8 -0.3 -5.3 -3.6 -3.8 -7.4 -3.1 -10.3 2.1 -0.4 0.7 0.3 2.4 1.4 3.8 2.7 3.4 6.4 3.2 9.2 -0.6z"/><path d="M242.6 287.8 c-0.3 -1.3 -0.6 -3.4 -0.6 -4.8 -0.1 -4.3 -3.7 -10.8 -7.2 -13 -3 -1.8 -5 -2 -24 -2 -20.1 0 -20.8 -0.1 -20.8 -2 0 -1.9 0.7 -2 20.5 -2 20.5 0 20.5 0 20.5 -2.5 0 -2.2 0.4 -2.5 3.6 -2.5 4.2 0 6.4 1.9 6.4 5.4 0 2.1 0.5 2.5 3.7 2.8 4.2 0.3 7.1 4.1 7.2 9.6 0.1 2.9 -0.2 3.2 -2.9 3.2 -2.9 0 -3 0.1 -3 5 0 3.6 -0.4 5 -1.4 5 -0.7 0 -1.6 -1 -2 -2.2z"/><path d="M110.4 276.6 c-17.3 -8.1 -18 -33.1 -1.1 -41.8 3 -1.5 6 -2.1 10.8 -2 8 0 13.9 2.4 18.8 7.6 3.5 3.6 3.5 3.6 22.3 3.6 18.1 0 18.8 0.1 18.8 2 0 1.9 -0.7 2 -17.5 2 -17.5 0 -17.5 0 -17.5 8 0 8 0 8 7 8 6.3 0 7 0.2 7 2 0 1.8 -0.7 2 -8.1 2 -8 0 -8.1 0 -12.6 4 -8 7 -18.9 8.8 -27.9 4.6z m13.1 -18.1 c3.1 -3 3.1 -4.5 0 -7.9 -3.1 -3.3 -4.5 -3.3 -7.8 0.2 -3.4 3.6 -3.4 5.5 0.1 8.1 3.5 2.7 4.8 2.6 7.7 -0.4z"/><path d="M168 266 c0 -1.7 0.7 -2 4.5 -2 3.8 0 4.5 0.3 4.5 2 0 1.7 -0.7 2 -4.5 2 -3.8 0 -4.5 -0.3 -4.5 -2z"/><path d="M270.6 251.5 c-4.4 -1.5 -10.6 -7.1 -10.6 -9.5 0 -0.9 -0.7 -2.5 -1.5 -3.6 -0.9 -1.2 -1.4 -4.2 -1.5 -8.1 0 -6.3 0 -6.3 4.5 -6.3 4.3 0 4.4 0.1 5.1 3.8 1.7 9.6 8.1 15.2 17.5 15.2 6.8 0 9.9 0.8 9.9 2.6 0 1 -1.5 1.4 -5.5 1.4 -5.1 0 -5.5 0.2 -5.5 2.4 0 3.8 -5.1 4.7 -12.4 2.1z"/><path d="M221 245.6 c0 -1.4 1.1 -1.7 9.2 -3.1 5 -0.8 10.2 -6.2 11.7 -12 0.6 -2.6 1.1 -14 1.1 -27.7 0 -24.4 0.3 -27.8 2.6 -27.8 1.2 0 1.4 4.6 1.4 26.5 0 26.5 0 26.5 3 26.5 2.9 0 3 0.2 3 4.3 0 2.4 -0.8 5.6 -2 7.5 -1.6 2.6 -2.6 3.2 -5.5 3.2 -1.9 0 -3.5 -0.4 -3.5 -1 0 -1.8 -2.8 -1 -3.3 0.9 -0.9 3.5 -17.7 6.1 -17.7 2.7z"/><path d="M262 194.5 c0 -21.9 0.2 -26.5 1.4 -26.5 2.3 0 2.6 3.4 2.6 28.8 0 23.5 -0.1 24.2 -2 24.2 -1.9 0 -2 -0.7 -2 -26.5z"/><path d="M66 211.1 c0 -3.9 0.9 -6.1 2.6 -6.1 0.8 0 1.4 -0.6 1.4 -1.4 0 -1.7 2.2 -2.6 6.6 -2.6 4.8 0 4.4 2.4 -0.7 3.9 -3.4 1 -4.4 2 -5.8 5.2 -1.9 4.6 -4.1 5.1 -4.1 1z"/><path d="M439.1 210.4 c-1 -2.7 -2.3 -4 -5.2 -5.3 -4.6 -1.9 -5.1 -4.1 -1 -4.1 3.9 0 6.1 0.9 6.1 2.6 0 0.8 0.6 1.4 1.4 1.4 1.7 0 2.6 2.2 2.6 6.1 0 4.1 -2.3 3.7 -3.9 -0.7z"/><path d="M45 203.2 c0 -7.3 6.9 -17.1 14.9 -21.2 5 -2.5 7.1 -2.5 7.1 -0.2 0 1.2 -1.7 2.7 -4.9 4.2 -5.6 2.8 -11.7 10.3 -12.7 15.6 -0.4 2.4 -1.2 3.4 -2.5 3.4 -1.2 0 -1.9 -0.7 -1.9 -1.8z"/><path d="M166 202 c0 -1.9 0.7 -2 17 -2 17 0 17 0 17 -58.5 0 -57.8 0 -58.5 2 -58.5 2 0 2 0.7 2 60.5 0 60.5 0 60.5 -19 60.5 -18.3 0 -19 -0.1 -19 -2z"/><path d="M305.5 203 c-0.7 -1.1 -0.5 -33.4 0.3 -36.2 0.2 -1 1.1 -1.8 1.8 -1.8 1.1 0 1.4 3.3 1.4 17.5 0 17.5 0 17.5 16 17.5 15.3 0 16 0.1 16 2 0 1.9 -0.7 2 -17.4 2 -10.7 0 -17.7 -0.4 -18.1 -1z"/><path d="M460 201.3 c0 -1 -0.9 -3.3 -2 -5.1 -1.1 -1.8 -2 -4.4 -2 -5.7 0 -2.1 -0.5 -2.5 -3 -2.5 -1.6 0 -3 -0.4 -3 -0.8 0 -0.5 -1.8 -1.5 -4 -2.2 -2.7 -0.9 -4 -1.9 -4 -3.2 0 -4.1 9.7 -0.1 15.8 6.6 5.6 6 8 14.6 4.2 14.6 -1.2 0 -2 -0.7 -2 -1.7z"/><path d="M180.5 196.3 c-7.3 -0.9 -7.5 -1.1 -7.5 -5.5 0 -2.5 0.7 -4.9 1.7 -6 1.5 -1.7 1.4 -1.8 -2 -1.8 -5 0 -4.8 -2.3 0.3 -3.9 4.5 -1.3 6.5 -3.8 7.4 -9.3 1 -5.8 3.6 -5 3.6 1 0 4.7 0 4.7 4.6 4.3 3.2 -0.2 4.9 0.1 5.5 1 0.5 0.8 0.9 5.3 0.9 10.1 0 7.6 -0.2 8.9 -1.9 9.8 -1.9 1 -6.4 1.1 -12.6 0.3z"/><path d="M315.6 195.4 c-1.5 -1.5 -1.8 -2.9 -1.4 -8.6 0.7 -8.8 1.8 -10.1 8 -9.6 2.6 0.3 4.8 0.1 4.8 -0.3 0 -0.5 -0.4 -0.9 -1 -0.9 -0.5 0 -1 -1.6 -1 -3.5 0 -4.4 2.6 -4.8 3.5 -0.6 1.2 5.3 4.7 7.5 13.1 7.9 6.6 0.4 7.4 0.6 7.4 2.4 0 1.8 -0.6 1.9 -6.2 1.6 -6.3 -0.3 -6.3 -0.3 -6 4.8 0.5 6.7 -0.8 7.7 -11.2 8.2 -7 0.4 -8.5 0.2 -10 -1.4z"/><path d="M70 181.5 c0 -1.4 0.9 -1.7 4.5 -1.7 3.6 0 4.5 0.3 4.5 1.7 0 1.1 -1.2 1.5 -4.5 1.5 -3.3 0 -4.5 -0.4 -4.5 -1.5z"/><path d="M243.6 159.7 c-0.3 -1.3 -0.5 -5.6 -0.5 -9.6 0.1 -7.2 0.1 -7.2 -4.5 -12 -14.8 -15.9 -5.2 -40.5 15.9 -40.5 13 0 22.5 9.6 22.5 22.9 0 6.9 -1.9 11.6 -6.9 17 -2.1 2.3 -4.2 5.6 -4.6 7.4 -0.6 2.7 -3.5 4.6 -3.5 2.2 0 -0.5 -3.4 -1.1 -7.5 -1.3 -7.5 -0.3 -7.5 -0.3 -7.5 8 0 6.3 -0.3 8.2 -1.4 8.2 -0.8 0 -1.6 -1 -2 -2.3z m14.1 -35.9 c3 -2.8 2.9 -5.3 -0.1 -7.3 -2.3 -1.5 -2.7 -1.5 -4.9 0 -3.5 2.3 -3.9 4 -1.6 6.9 2.5 3.2 3.6 3.2 6.6 0.4z"/><path d="M134.2 154 c-4.9 -1.1 -10.8 -5.5 -13.9 -10.2 -2.4 -3.5 -2.8 -5.2 -2.8 -10.8 0 -5.6 0.4 -7.3 2.7 -10.8 6.4 -9.5 19.3 -12.6 29.1 -6.9 5.4 3.2 9.2 8.4 10.2 14 0.7 3.3 0.5 3.7 -1.4 3.7 -1.4 0 -2.1 -0.6 -2.1 -1.9 0 -1 -1.7 -4.1 -3.7 -6.8 -4.6 -6.3 -10.9 -9 -16.8 -7.4 -5.6 1.5 -12.1 7 -13.4 11.2 -2.7 8.9 0.5 14.7 11.1 20.7 5.1 2.7 7.3 2.8 12.3 0.2 2.2 -1.1 4.5 -2 5.2 -2 0.7 0 1.3 -0.7 1.3 -1.5 0 -0.8 0.9 -2.9 2 -4.7 1.1 -1.8 2 -4.1 2 -5 0 -1.1 0.8 -1.8 2 -1.8 2.5 0 2.6 2.6 0.4 7.8 -2.3 5.6 -7.2 10.1 -12.8 11.7 -5.4 1.6 -6.5 1.7 -11.4 0.5z"/><path d="M367 154.1 c-6.9 -2.1 -13 -7.2 -14.9 -12.4 -1.6 -4 -1.4 -5.7 0.7 -5.7 1.7 0.1 5.2 6.2 5.2 9.3 0 1.1 0.8 1.7 2.4 1.7 1.4 0 3.1 0.7 3.9 1.5 2.1 2.1 8.9 2.9 12.8 1.6 4.3 -1.5 10.7 -7.3 11.5 -10.6 0.4 -1.6 1.3 -2.5 2.6 -2.5 1.8 0 2 0.4 1.4 3.2 -2 10 -15.1 17.1 -25.6 13.9z"/><path d="M180.6 150.8 c-1.4 -5.4 -0.2 -12.8 2 -12.8 1.1 0 1.4 1.8 1.4 7.5 0 5.7 -0.3 7.5 -1.4 7.5 -0.7 0 -1.6 -1 -2 -2.2z"/><path d="M180.6 134.8 c-1 -3.9 -0.6 -66 0.5 -70.7 2 -9 10.6 -17.4 19.3 -18.8 3.2 -0.5 3.6 -0.3 3.6 1.6 0 1.2 -0.6 2.1 -1.5 2.1 -3.9 0 -14.5 7.4 -14.5 10.1 0 0.5 -0.4 0.9 -0.8 0.9 -2.5 0 -3.2 9.1 -3.2 42.4 0 28.8 -0.2 34.6 -1.4 34.6 -0.7 0 -1.6 -1 -2 -2.2z"/><path d="M390 134 c0 -3.3 -3.1 -10 -6.1 -12.9 -6.1 -6.1 -12.9 -6.5 -20.8 -1 -4.4 2.9 -8.1 8.2 -8.1 11.4 0 0.9 -0.9 1.5 -2.1 1.5 -1.9 0 -2.1 -0.4 -1.6 -3.7 1.5 -8.7 12.1 -17.3 21.5 -17.3 5.8 0 12.5 3.2 15.9 7.7 2.8 3.7 5.3 11.6 4.5 14.5 -0.6 2.4 -3.2 2.3 -3.2 -0.2z"/><path d="M305.6 111.8 c-0.3 -1.3 -0.6 -10.3 -0.6 -20.1 0 -25 4 -22.7 -39.2 -22.7 -18.9 0 -35.3 -0.3 -36.5 -0.6 -1.3 -0.4 -2.3 -1.3 -2.3 -2 0 -1.2 6 -1.4 36.3 -1.4 19.9 0 37.2 0.3 38.5 0.6 1.3 0.4 2.2 1.4 2.2 2.5 0 1.2 0.7 1.9 1.9 1.9 1 0 2.2 0.7 2.5 1.6 0.3 0.9 0.6 10.8 0.6 22 0 16.7 -0.3 20.4 -1.4 20.4 -0.7 0 -1.6 -1 -2 -2.2z"/><path d="M201 73.5 c0 -2.8 0.4 -3.5 2 -3.5 1.3 0 2 -0.7 2 -1.9 0 -2.5 1.9 -3.1 9.6 -3.1 4.8 0 6.4 0.3 6.4 1.4 0 1.6 -3 2.6 -8.3 2.6 -4 0 -8.7 3.5 -8.7 6.5 0 0.8 -0.7 1.5 -1.5 1.5 -1 0 -1.5 -1.1 -1.5 -3.5z"/><path d="M324 67 c0 -2.9 -5.2 -12.9 -6.8 -13 -0.7 0 -1.5 -0.6 -1.8 -1.4 -0.3 -0.8 -2.5 -2 -5 -2.7 -3.1 -0.9 -4.4 -1.9 -4.4 -3.1 0 -2.2 2.8 -2.3 7.3 -0.5 7.5 3.2 13 10.3 14.3 18.6 0.6 3.7 0.5 4.1 -1.5 4.1 -1.4 0 -2.1 -0.6 -2.1 -2z"/><path d="M217 46.6 c0 -1.6 2.5 -2.4 5.3 -1.8 3.2 0.8 1.9 3.2 -1.8 3.2 -2.4 0 -3.5 -0.5 -3.5 -1.4z"/><path d="M225 46.6 c0 -0.7 0.9 -1.6 2.1 -1.9 2.8 -0.8 72.9 -0.8 75.7 -0.1 1.2 0.4 2.2 1.3 2.2 2 0 1.2 -6.6 1.4 -40 1.4 -33.4 0 -40 -0.2 -40 -1.4z"/></g><g fill="#007ffe" transform="matrix(0.095459, 0, 0, 0.095967, 397.706122, -4.230866)"><path d="M305 458.2 c0 -1.8 7.7 -5.2 11.9 -5.2 1.6 0 2.1 -0.6 2.1 -2.7 0 -1.6 1.2 -4.6 2.5 -6.8 1.4 -2.2 2.5 -4.8 2.5 -5.7 0 -1.1 0.8 -1.8 2 -1.8 2.7 0 2.6 3.2 -0.4 9.5 -3 6.3 -7.8 11 -13.5 13 -5.6 1.9 -7.1 1.9 -7.1 -0.3z"/><path d="M194.8 457.9 c-2.9 -1.6 -2.1 -2.9 1.7 -2.9 2.8 0 3.5 0.4 3.5 2 0 2.2 -2.4 2.6 -5.2 0.9z"/><path d="M188.6 453.4 c-2.9 -2.9 -2.9 -2.9 -0.1 -3.2 3.4 -0.4 3.7 -0.1 3.3 3.3 -0.3 2.8 -0.3 2.8 -3.2 -0.1z"/><path d="M302 447.4 c0 -3.1 0.8 -4.4 4.7 -8 3.6 -3.4 5.5 -4.4 8 -4.4 3.3 0 3.3 0 3.3 4.9 0 4 -0.5 5.4 -2.9 8 -2.5 2.7 -3.6 3.1 -8 3.1 -5.1 0 -5.1 0 -5.1 -3.6z"/><path d="M192.7 447.3 c-0.4 -0.3 -0.7 -2.2 -0.7 -4 0 -3.3 0.1 -3.4 3.8 -3.1 3.5 0.3 3.7 0.5 4 4.1 0.3 3.6 0.2 3.7 -3.1 3.7 -1.8 0 -3.7 -0.3 -4 -0.7z"/><path d="M209 441 c0 -1.7 0.6 -2 3.8 -1.9 5.8 0.3 8.2 1 8.2 2.5 0 1 -1.5 1.4 -6 1.4 -5.4 0 -6 -0.2 -6 -2z"/><path d="M232 441.6 c0 -2.3 4.1 -2.7 28.8 -2.6 25.1 0.1 28.2 0.4 28.2 2.6 0 1.2 -4.8 1.4 -28.5 1.4 -23.7 0 -28.5 -0.2 -28.5 -1.4z"/><path d="M291 441.6 c0 -0.7 1 -1.6 2.3 -2 4.1 -1.1 5.7 -0.7 5.7 1.4 0 1.7 -0.7 2 -4 2 -2.7 0 -4 -0.4 -4 -1.4z"/><path d="M305.3 432.5 c0.6 -1.9 1.6 -3.5 2.4 -3.5 0.8 0 1.3 1.3 1.3 3.5 0 3 -0.3 3.5 -2.4 3.5 -2.3 0 -2.4 -0.2 -1.3 -3.5z"/><path d="M200 429.5 c0 -4 2.4 -4.9 3.4 -1.2 1 3.7 0.7 4.7 -1.4 4.7 -1.6 0 -2 -0.7 -2 -3.5z"/><path d="M200 407.5 c0 -4.1 0.4 -5.5 1.4 -5.5 1.8 0 2.9 4.8 2 8.4 -0.3 1.4 -1.2 2.6 -2 2.6 -1 0 -1.4 -1.5 -1.4 -5.5z"/><path d="M133.5 398.1 c-4.5 -1.1 -6.9 -2.6 -10.3 -6.5 -9.5 -10.9 -5.2 -27.5 8.5 -33.3 3.9 -1.6 11.1 -1.7 15 -0.2 4 1.5 9.2 6.7 11.4 11.4 2.4 5.2 2.4 7.5 -0.1 7.5 -1.4 0 -2.1 -0.9 -2.6 -3.5 -0.3 -1.9 -1 -3.5 -1.5 -3.5 -0.5 0 -0.9 -1.6 -0.9 -3.6 0 -3.7 0 -3.7 -4.7 -3 -5.4 0.7 -7.1 2.2 -9.8 8.4 -2.3 5.2 -1.1 8.6 3.8 10.7 4.5 1.9 12.8 0.9 13.4 -1.6 0.6 -2.2 4.3 -2.6 4.3 -0.5 0 6 -8.1 15 -15.4 17.1 -5.4 1.6 -6.5 1.7 -11.1 0.6z"/><path d="M365.5 396.9 c-6.5 -1.9 -14.5 -11.2 -14.5 -16.9 0 -2.5 3.7 -2.8 4.2 -0.3 0.3 1.5 1.6 1.8 8.3 1.9 4.4 0 10.4 0.5 13.2 0.9 3.3 0.5 5.8 0.4 6.5 -0.3 0.7 -0.5 3.3 -1.3 5.7 -1.7 4.4 -0.7 4.4 -0.7 3.7 2.6 -2.2 11.2 -14.5 17.5 -27.1 13.8z"/><path d="M250.2 394.7 c-5.9 -3.3 -7.1 -10.1 -2.6 -14.8 3.7 -3.9 8.1 -3.9 12.3 0 4.2 4 4.3 9 0.2 13.2 -3.1 3.1 -6.2 3.6 -9.9 1.6z"/><path d="M200 376.5 c0 -12 0.2 -14.5 1.5 -14.5 2.4 0 2.9 8.6 1.6 27.8 -0.1 0.6 -0.8 1.2 -1.6 1.2 -1.3 0 -1.5 -2.3 -1.5 -14.5z"/><path d="M351 373.2 c0 -3.5 5.8 -11 10.7 -13.8 8.7 -5.2 20.8 -2.9 26.6 4.8 3.8 5.2 4.1 6.8 1.2 6.8 -1.6 0 -2.5 -0.6 -2.5 -1.5 0 -0.8 -0.4 -1.5 -1 -1.5 -0.5 0 -1 -0.9 -1 -2 0 -2.6 -2.7 -2.6 -9.2 0.2 -4.4 1.9 -5.6 2 -10.2 1.1 -3 -0.7 -5.5 -0.7 -6 -0.2 -0.6 0.5 -1.8 0.9 -2.8 0.9 -1.4 0 -1.8 0.8 -1.8 3.5 0 2.8 -0.4 3.5 -2 3.5 -1.3 0 -2 -0.7 -2 -1.8z"/><path d="M243 365.6 c0.5 -0.5 1 -2.4 1 -4.2 0 -2.7 0.4 -3.2 3.1 -3.8 1.7 -0.3 6.5 -0.6 10.5 -0.6 7.4 0 7.4 0 7.4 3.8 0 2.1 0.5 4.3 1.1 4.9 0.7 0.7 -0.6 0.7 -4.5 0.1 -3.4 -0.6 -8.2 -0.6 -12.6 -0.1 -4.8 0.7 -6.7 0.6 -6 -0.1z"/><path d="M181 344.6 c0 -7.2 -2.9 -11.6 -9.2 -13.6 -6.7 -2.2 -8 -3.6 -7.6 -8.4 0.3 -3.7 0.7 -4.3 4.3 -6.1 5.6 -2.7 22.4 -3.5 26 -1.1 2.4 1.6 2.5 2.1 2.5 11.9 0 8.7 -0.4 11 -2.2 14.7 -2 4 -2.7 4.5 -6 4.8 -2.5 0.2 -3.8 0.8 -3.8 1.8 0 0.8 -0.9 1.4 -2 1.4 -1.8 0 -2 -0.7 -2 -5.4z m9.1 -10.8 c1.3 -2.4 1.7 -10.8 0.5 -12.6 -1.6 -2.5 -15.6 -0.7 -15.6 2 0 3.8 8.5 12.8 12 12.8 1.1 0 2.4 -1 3.1 -2.2z"/><path d="M313.9 341.9 c-0.6 -1.2 -1.2 -7 -1.2 -12.9 -0.3 -14.5 -0.5 -14.3 14.3 -13.8 14.7 0.5 17.4 1.6 17.8 7.6 0.4 5.3 -0.8 6.9 -5.9 7.7 -4.8 0.8 -9.5 4.6 -10.4 8.3 -1.1 5.1 -12.2 7.4 -14.6 3.1z m14.1 -12.6 c3.9 -2.5 6.9 -5.1 6.7 -5.7 -0.5 -1.5 -6.4 -3.5 -10.4 -3.5 -4 -0.1 -6.3 2.2 -6.3 6.2 0 4.2 1 7.7 2.1 7.7 0.5 0 4.1 -2.1 7.9 -4.7z"/><path d="M67.8 330.4 c-1 -0.3 -1.8 -1.2 -1.8 -2 0 -1.2 5.4 -1.4 35 -1.4 29.1 0 35 0.2 35 1.4 0 0.7 -0.8 1.6 -1.7 1.8 -2.6 0.6 -64.5 0.8 -66.5 0.2z"/><path d="M385.8 330.3 c-1 -0.2 -1.8 -1.1 -1.8 -1.9 0 -1.1 2.4 -1.4 13 -1.4 12.3 0 13 0.1 13 2 0 1.9 -0.6 2 -11.2 1.9 -6.2 -0.1 -12.1 -0.3 -13 -0.6z"/><path d="M412 329 c0 -1.6 0.7 -2 3.5 -2 2.8 0 3.5 0.4 3.5 2 0 1.6 -0.7 2 -3.5 2 -2.8 0 -3.5 -0.4 -3.5 -2z"/><path d="M444 327.5 c0 -2.2 0.4 -2.5 3.6 -2.5 4.4 0 4.2 1.8 -0.4 3.7 -3.1 1.3 -3.2 1.2 -3.2 -1.2z"/><path d="M50.8 321 c-2.8 -3.5 -2.8 -3.5 -0.2 -3.8 3.3 -0.4 3.6 -0.1 3.2 3.9 -0.3 3.4 -0.3 3.4 -3 -0.1z"/><path d="M456 318.8 c0 -3.4 0.3 -3.8 2.5 -3.8 3.1 0 3.2 1.1 0 4.7 -2.4 2.8 -2.4 2.8 -2.5 -0.9z"/><path d="M45.6 310.8 c-1 -3.8 -0.7 -4.8 1.4 -4.8 1.6 0 2 0.7 2 3.5 0 4 -2.4 4.9 -3.4 1.3z"/><path d="M115 311 c0 -1.8 0.7 -2 5.5 -2 4.8 0 5.5 0.2 5.5 2 0 1.8 -0.7 2 -5.5 2 -4.8 0 -5.5 -0.2 -5.5 -2z"/><path d="M139 310.9 c0 -2 0.2 -2 31.7 -1.7 29.3 0.3 31.8 0.4 32.1 2.1 0.3 1.6 -1.7 1.7 -31.7 1.7 -31.8 0 -32.1 0 -32.1 -2.1z"/><path d="M306.2 311.3 c0.3 -1.7 2.5 -1.8 26.6 -2.1 25.7 -0.2 26.2 -0.2 26.2 1.8 0 2 -0.6 2 -26.6 2 -24.7 0 -26.5 -0.1 -26.2 -1.7z"/><path d="M69 307.4 c0 -3.7 0 -3.7 2.6 -1 1.5 1.4 3.1 2.6 3.5 2.6 0.5 0 0.9 0.5 0.9 1 0 0.6 -1.6 1 -3.5 1 -3.4 0 -3.5 -0.1 -3.5 -3.6z"/><path d="M433 310 c0 -0.5 0.4 -1 0.9 -1 0.4 0 2 -1.1 3.5 -2.5 2.6 -2.4 2.6 -2.4 2.6 1 0 3.3 -0.2 3.5 -3.5 3.5 -1.9 0 -3.5 -0.4 -3.5 -1z"/><path d="M243.5 294.7 c-0.4 -2 -0.5 -4 -0.1 -4.5 0.7 -1.2 -2 -12.6 -4 -16.3 -2.3 -4.6 -8.3 -6.9 -18.1 -6.9 -11.1 0 -11.3 -0.1 -11.3 -6.5 0 -5 1.6 -8.5 4 -8.5 0.4 0 1 -0.9 1.3 -2 0.3 -1.1 0.1 -2 -0.4 -2 -0.5 0 -0.9 -0.9 -0.9 -2 0 -1.8 0.7 -2 6.8 -2 14.6 0 19.4 -4 23.1 -19 1.3 -5.2 2.8 -10.1 3.3 -10.7 1.3 -1.6 8.7 -1.7 13.8 -0.1 4.2 1.4 5 2.7 5 9.3 0.1 13.4 7.6 20.5 21.8 20.5 2.9 0 6.6 0.7 8.2 1.5 2.7 1.4 3 1.4 3 0 0 -1.1 1 -1.5 3.5 -1.5 2.8 0 3.5 0.4 3.5 2 0 1.6 -0.7 2 -3.1 2 -3 0 -3 0 -1 2.6 3 3.8 2.9 10.7 -0.3 13.9 -2 2 -3.6 2.4 -13.5 3 -16.5 1.1 -20.1 4.2 -22.1 19.1 -0.7 5.1 -1.7 8.3 -2.8 9.2 -0.9 0.7 -4.5 1.2 -8.1 1.2 -3.6 0 -7.6 0.3 -8.8 0.6 -1.9 0.5 -2.3 0.1 -2.8 -2.9z m14.7 -23.7 c3.8 -7.4 9.7 -12 17.9 -14.1 5.1 -1.3 5.6 -2.9 1.1 -2.9 -4 0 -12.4 -4.3 -15.4 -7.8 -1.4 -1.7 -3.4 -5.1 -4.4 -7.6 -1.1 -2.5 -2.1 -4.6 -2.4 -4.6 -0.3 0 -1.6 2.5 -2.9 5.6 -3.3 7.6 -7.6 10.7 -19.1 13.9 -2.8 0.8 -3.9 1.5 -3 1.8 0.8 0.4 4 1.6 7.2 2.7 8 2.9 16.8 12.6 16.8 18.4 0 2.5 0.2 2.2 4.2 -5.4z m5.7 2 c0 -1.1 -0.3 -1 -1.4 0.4 -0.8 1.1 -1.5 2.7 -1.5 3.5 0 1.1 0.4 1 1.5 -0.5 0.8 -1 1.4 -2.6 1.4 -3.4z m-16.5 1 c-0.9 -1.6 -2 -3.2 -2.6 -3.6 -1 -0.7 0.7 3.1 2.5 5.4 1.6 2 1.6 1.4 0.1 -1.8z m38.5 -12.6 c0.9 -0.9 -0.6 -1.1 -3.6 -0.7 -1.8 0.3 -3.3 1 -3.3 1.5 0 0.9 5.8 0.2 6.9 -0.8z m-10.4 -14.4 c-6.1 -2 -10.6 -7.1 -12.5 -14 -0.8 -2.8 -1.8 -5.3 -2.2 -5.6 -1.4 -0.9 -0.8 6 0.7 8 0.8 1.1 1.5 2.7 1.5 3.6 0 4 12 11.7 15.9 10.2 0.9 -0.3 -0.4 -1.2 -3.4 -2.2z m-27.5 -10.2 c2.5 -4.1 2.8 -7 0.5 -4.7 -1.5 1.4 -3.8 7.9 -2.9 7.9 0.2 0 1.3 -1.5 2.4 -3.2z"/><path d="M137.7 269.8 c3.1 -3.4 4.6 -10.3 3.9 -18 -0.6 -6.8 -0.6 -6.8 7.4 -6.8 7.3 0 8 0.2 8 2 0 1.3 -0.7 2 -2 2 -1.8 0 -2 0.7 -2 7.3 -0.1 8.9 -1.1 10.5 -7.6 11.1 -3.5 0.3 -5.3 1 -6.3 2.5 -0.7 1.2 -1.8 2.1 -2.4 2.1 -0.6 0 -0.1 -1 1 -2.2z"/><path d="M154.8 267.3 c-1 -0.2 -1.8 -1.1 -1.8 -1.9 0 -1.2 3.7 -1.4 22.5 -1.4 18.5 0 22.5 0.2 22.5 1.4 0 0.7 -0.9 1.6 -2 1.9 -2.3 0.6 -38.8 0.6 -41.2 0z"/><path d="M358.6 267.3 c-7.9 -0.4 -7.9 -0.4 -7.2 -5.7 0.3 -2.9 1.3 -6.9 2.1 -8.9 0.8 -2 1.5 -4.6 1.5 -5.7 0 -1.8 0.6 -2 5.4 -2 3 0 6.1 -0.3 6.9 -0.6 1.2 -0.4 1.1 0.3 -0.4 3.4 -2.3 4.6 -2.8 14.6 -1 18 0.6 1.2 1 2.1 0.9 2 -0.2 -0.1 -3.8 -0.4 -8.2 -0.5z"/><path d="M382.9 263.1 c-4.1 -3.2 -5.4 -7.2 -3.5 -11 2.4 -4.5 5.9 -6.5 10.3 -5.8 11.3 1.9 11.1 16.8 -0.2 18.4 -3.1 0.4 -4.6 0 -6.6 -1.6z"/><path d="M112 261 c-2.9 -2.7 -3.2 -3.5 -2.7 -6.8 0.7 -4.2 6.4 -10.2 9.7 -10.2 5.8 0 11.9 7.3 10.5 12.7 -1.9 7.6 -11.5 9.9 -17.5 4.3z"/><path d="M174 246.6 c0 -1.6 3 -2.6 8.3 -2.6 3 0 3.7 0.4 3.7 2 0 1.8 -0.7 2 -6 2 -4.4 0 -6 -0.4 -6 -1.4z"/><path d="M319 246 c0 -1.7 0.7 -2 4.5 -2 3.8 0 4.5 0.3 4.5 2 0 1.7 -0.7 2 -4.5 2 -3.8 0 -4.5 -0.3 -4.5 -2z"/><path d="M330 246 c0 -2.1 2.3 -2.6 6.8 -1.4 4.1 1.1 2.6 3.4 -2.3 3.4 -3.8 0 -4.5 -0.3 -4.5 -2z"/><path d="M445.1 213.3 c-0.5 -2.1 -1.2 -5.3 -1.6 -7 -0.6 -3 -5.5 -8.3 -7.6 -8.3 -0.6 0 -0.9 -1.7 -0.7 -3.7 0.3 -3.8 0.3 -3.8 8.1 -3.8 7.1 0 8.1 0.2 9.8 2.4 2 2.5 2.5 11.4 1.1 19.6 -0.7 3.7 -1 4 -4.4 4.3 -3.5 0.3 -3.7 0.1 -4.7 -3.5z"/><path d="M54.4 213.5 c-0.7 -2.8 0.3 -12.6 1.7 -16.2 0.5 -1.3 1.5 -2.3 2.4 -2.3 0.8 0 1.5 -0.7 1.5 -1.5 0 -1 1 -1.5 3 -1.5 1.7 0 3 -0.4 3 -1 0 -0.5 2 -1 4.5 -1 4.5 0 4.5 0 4.5 3.5 0 3.4 -0.1 3.5 -4 3.5 -2.2 0 -4 0.5 -4 1 0 0.6 -0.6 1 -1.4 1 -0.9 0 -1.6 1.7 -2 4.8 -1.8 12.9 -1.5 12.2 -5.2 12.2 -2.8 0 -3.5 -0.4 -4 -2.5z"/><path d="M438.9 209.5 c-1.6 -3.5 -1.6 -3.5 1.2 -3.5 2.6 0 2.9 0.3 2.9 3.5 0 4.5 -2 4.5 -4.1 0z"/><path d="M152 202.1 c0 -2 0.4 -2.1 15 -2.1 12.7 0 15 0.2 15 1.5 0 0.8 -0.1 1.5 -0.2 1.5 -0.2 0.1 -6.9 0.3 -15 0.6 -14.5 0.6 -14.8 0.6 -14.8 -1.5z"/><path d="M332.8 203.2 c-1 -0.2 -1.8 -1 -1.8 -1.8 0 -1.2 2.9 -1.4 17 -1.4 16.5 0 17 0.1 17 2.1 0 2 -0.4 2 -15.2 1.8 -8.4 -0.2 -16.1 -0.5 -17 -0.7z"/><path d="M459.6 200.9 c-0.9 -4.6 -0.7 -7.9 0.4 -7.9 1.3 0 2.7 2.8 3.5 7.3 0.6 3.3 0.5 3.7 -1.3 3.7 -1.4 0 -2.1 -0.9 -2.6 -3.1z"/><path d="M200 201 c0 -1.1 0.6 -2 1.4 -2 0.7 0 1.6 0.9 1.9 2 0.4 1.5 0 2 -1.4 2 -1.2 0 -1.9 -0.7 -1.9 -2z"/><path d="M47.3 195.8 c1.9 -4.6 3.7 -4.8 3.7 -0.4 0 3.2 -0.3 3.6 -2.5 3.6 -2.4 0 -2.5 -0.1 -1.2 -3.2z"/><path d="M173.4 198 c-7.4 -1.1 -7.7 -1.4 -7.2 -8.1 0.4 -5.9 0.4 -5.9 -12.9 -5.9 -12.6 0 -13.3 -0.1 -13.3 -2 0 -1.9 0.7 -2 16.5 -2 10.3 0 17.4 -0.4 18.9 -1.2 1.4 -0.6 3.4 -2.8 4.3 -4.9 2 -4.1 3.5 -4.9 10.5 -4.9 6.3 0 7.1 1.6 7.6 16.2 0.4 11.8 0.4 11.8 -2.2 12.8 -3.1 1.1 -14.5 1.1 -22.2 0z m16.7 -5 c1.5 -0.9 1.9 -2.2 1.9 -6.5 0 -6.3 -0.7 -8.5 -2.7 -8.5 -1.8 0 -13.3 10.9 -13.3 12.6 0 1.4 1.8 2 7.5 2.7 1.7 0.2 3.4 0.5 3.8 0.6 0.5 0 1.7 -0.4 2.8 -0.9z"/><path d="M313.5 197 c-1.5 -1.7 -1.7 -3.3 -1.3 -11.3 0.7 -12.3 1.5 -13.7 7.8 -13.7 2.8 0 5 -0.4 5 -1 0 -2.4 2.7 -0.7 3.9 2.5 2.3 6.4 4.7 6.9 28.9 6.6 20.8 -0.2 21.2 -0.2 21.2 1.8 0 2 -0.5 2.1 -17.5 2.1 -17.5 0 -17.5 0 -17.5 4.3 0 8.4 -4.2 10.7 -19.6 10.7 -7.8 0 -9.3 -0.3 -10.9 -2z m19.1 -5.1 c3.5 -2.9 0 -7.7 -7.6 -10.4 -5.3 -1.9 -6.6 -1 -7.6 5.1 -0.9 6 1.3 7.8 8.4 7.1 2.9 -0.3 6 -1.1 6.8 -1.8z"/><path d="M451 185.9 c0 -3 0 -3 3 -0.9 4.4 3.1 4.5 4 0.6 4 -3.3 0 -3.6 -0.2 -3.6 -3.1z"/><path d="M61 183 c0 -1.2 3.3 -3 5.4 -3 0.9 0 1.6 0.9 1.6 2 0 1.6 -0.7 2 -3.5 2 -1.9 0 -3.5 -0.4 -3.5 -1z"/><path d="M244 151.1 c0 -4.4 -0.3 -8.6 -0.6 -9.4 -0.5 -1.4 0 -1.4 4.2 -0.1 6.3 1.9 9.4 1.8 14.8 -0.6 4.5 -1.9 4.6 -1.9 3.6 0 -0.5 1 -1 3.7 -1 5.9 0 5.4 -2.5 7.1 -10.7 7.1 -6.1 0 -6.3 0.1 -6.3 2.5 0 1.8 -0.5 2.5 -2 2.5 -1.8 0 -2 -0.7 -2 -7.9z"/><path d="M130.3 151.9 c-5.6 -2.8 -10.9 -8.8 -12.3 -14 -1.5 -5.3 0.2 -13 3.7 -16.7 2.4 -2.7 2.4 -2.7 1.9 1.8 -0.9 7.3 -0.7 9 1.4 12 1.1 1.5 2 3.3 2 3.8 0 0.6 0.9 1.4 2 1.7 3 1 5 3.4 5 6.2 0 1.6 0.7 2.7 2 3 2.5 0.7 2.7 4.3 0.3 4.3 -1 0 -3.7 -0.9 -6 -2.1z"/><path d="M141 152.2 c0 -1.2 1.3 -2.3 3.8 -3.1 2 -0.8 4.4 -2.2 5.3 -3.2 0.9 -1.1 2.8 -1.9 4.3 -1.9 2.7 0 2.7 0 0.7 2.9 -2.1 3 -9.4 7.1 -12.4 7.1 -1 0 -1.7 -0.8 -1.7 -1.8z"/><path d="M362 151.6 c-5 -2.6 -9.7 -8.5 -10.6 -13.3 -0.6 -2.8 -0.4 -3.3 1.3 -3.3 1.4 0 2.4 1.1 3.3 4 0.7 2.2 1.7 4 2.2 4 0.4 0 0.8 0.7 0.8 1.5 0 0.8 0.7 1.5 1.5 1.5 0.8 0 1.5 0.6 1.5 1.4 0 0.8 1.6 1.6 4 2 3.1 0.5 4 1.1 4 2.6 0 2.7 -2.5 2.6 -8 -0.4z"/><path d="M374.3 152.7 c-2.6 -1.3 -3.8 -6.6 -2.8 -12 0.6 -3.3 1.1 -3.7 7.8 -6.1 4 -1.4 7.8 -2.6 8.5 -2.6 1.6 0 1.5 -1.9 -0.3 -5 -0.8 -1.4 -1.4 -3.7 -1.5 -5.2 0 -2.4 -0.4 -2.8 -3 -2.8 -1.6 0 -3 -0.4 -3 -1 0 -0.5 -0.9 -1 -2 -1 -1.3 0 -2 -0.7 -2 -2 0 -6 12 1.9 15.4 10.2 2 4.6 2.1 12.8 0.2 17.1 -1.7 3.9 -7.1 9.2 -10.9 10.6 -3.2 1.3 -3.4 1.2 -6.4 -0.2z"/><path d="M156 136.5 c0 -3.5 0 -3.5 -6.4 -3.5 -6.4 0 -6.4 0 -12 -6.2 -3.1 -3.4 -5.6 -6.5 -5.6 -7 0 -0.4 -1.6 -0.8 -3.5 -0.8 -1.9 0 -3.5 -0.4 -3.5 -0.8 0 -1.8 6.7 -4.5 12.4 -4.9 5 -0.4 6.9 0 10.6 1.9 8.2 4.2 13.2 13.8 11.5 21.8 -0.9 4.3 -3.5 3.9 -3.5 -0.5z"/><path d="M351.5 130.3 c1.5 -8.5 9.6 -16.1 18 -17.1 4.5 -0.5 4.5 -0.5 4.5 4.1 0 2.6 -0.7 6.5 -1.6 8.8 -1.7 4.1 -1.7 4.1 -9.3 3.7 -7.2 -0.3 -7.6 -0.2 -7.9 2 -0.2 1.4 -1 2.2 -2.4 2.2 -1.8 0 -1.9 -0.4 -1.3 -3.7z"/><path d="M248.9 127.1 c-3.2 -3.2 -3.9 -8.4 -1.6 -11.4 2.3 -3 6.6 -4.6 10 -3.6 4.2 1.2 5.7 2.9 6.4 7.2 0.5 3.2 0.1 4.1 -3 7.2 -4.4 4.4 -7.8 4.6 -11.8 0.6z"/><path d="M200 85 c0 -5.4 0.2 -6 2.1 -6 2 0 2.1 0.4 1.6 5.8 -0.4 3.1 -0.6 5.8 -0.7 6 0 0.1 -0.7 0.2 -1.5 0.2 -1.2 0 -1.5 -1.3 -1.5 -6z"/><path d="M310.6 77.3 c-0.3 -2.1 -0.6 -5.2 -0.6 -6.9 0 -1.8 -0.8 -3.8 -2 -4.9 -1.4 -1.3 -2 -3.1 -2 -6.2 0 -4.3 0 -4.3 4.8 -4.3 6.9 0 8.6 2.1 9 11.6 0.3 4.1 0.1 9 -0.2 10.9 -0.6 3.3 -0.9 3.5 -4.5 3.5 -3.7 0 -3.9 -0.2 -4.5 -3.7z"/><path d="M203 70.6 c0 -3.4 0.1 -3.6 3.5 -3.6 4.3 0 4.3 0.7 -0.1 4.3 -3.4 2.9 -3.4 2.9 -3.4 -0.7z"/><path d="M298.3 68.8 c-4.5 -1.5 -4.3 -3.8 0.2 -3.8 3.1 0 3.5 0.3 3.5 2.5 0 1.4 -0.1 2.5 -0.2 2.4 -0.2 -0.1 -1.8 -0.6 -3.5 -1.1z"/><path d="M191.7 67.4 c-0.4 -0.4 -0.7 -2.7 -0.7 -5 0 -3.4 0.5 -4.7 2.3 -5.8 2.7 -1.7 13.5 -3 17.7 -2.1 2.8 0.6 3.1 1 2.8 4.1 -0.3 3.2 -0.8 3.7 -6.3 6.1 -6.1 2.6 -14.4 4.1 -15.8 2.7z"/><path d="M181 65.8 c0 -3 1.3 -5.8 2.6 -5.8 0.9 0 1.4 1.2 1.4 3.5 0 2.8 -0.4 3.5 -2 3.5 -1.1 0 -2 -0.6 -2 -1.2z"/><path d="M317.7 55.3 c-0.4 -0.3 -0.7 -1.9 -0.7 -3.5 0 -2.8 0.1 -2.8 2.1 -1.4 1.1 0.8 2.7 2.4 3.5 3.5 1.4 2 1.4 2.1 -1.4 2.1 -1.6 0 -3.2 -0.3 -3.5 -0.7z"/><path d="M189.1 51.4 c1.9 -2.3 8.2 -5.3 12.8 -6 3.7 -0.6 4.1 -0.4 4.1 1.4 0 1.7 -0.8 2.2 -5.5 2.7 -3.7 0.5 -5.5 1.2 -5.5 2.1 0 0.9 -1.2 1.4 -3.6 1.4 -3.2 0 -3.5 -0.2 -2.3 -1.6z"/><path d="M307.3 49.3 c-1.5 -0.3 -2.3 -1.2 -2.3 -2.5 0 -1.8 0.4 -1.9 3.7 -1.3 4.5 0.8 7.3 2.2 7.3 3.5 0 1 -4.4 1.1 -8.7 0.3z"/></g><g fill="#0091ff" transform="matrix(0.095459, 0, 0, 0.095967, 397.706122, -4.230866)"><path d="M304 458.1 c0 -1.2 1.3 -2.3 3.8 -3.3 3.6 -1.4 3.4 -1.4 -9.3 -2 -7.1 -0.4 -14.8 -1.3 -17 -2 -3.9 -1.3 -4 -1.4 -4 -5.8 0 -4.5 0 -4.5 10.5 -5.1 17.3 -0.9 18 -1.8 18 -22.1 0 -14.1 0.1 -14.8 2 -14.8 1.6 0 2 0.7 2.1 3.3 0.1 3.2 0.1 3.2 1.1 0.5 0.8 -2.3 1.6 -2.8 4.3 -2.8 3.1 0 3.5 0.3 4.2 3.8 0.4 2 0.8 10.8 0.8 19.5 0 8.6 0.1 15.7 0.2 15.7 0.6 0 3.3 -7.4 3.3 -9.1 0 -1.3 0.7 -1.9 2.1 -1.9 2 0 2.1 0.4 1.6 5.1 -0.6 5.1 -4.1 12.4 -8 16.6 -2 2.2 -11.3 6.3 -14.2 6.3 -0.8 0 -1.5 -0.8 -1.5 -1.9z m8.1 -13.2 c1.6 -1.7 2.9 -4 2.9 -5 0 -1 -0.1 -1.9 -0.3 -1.9 -0.6 0 -9.7 8.8 -9.7 9.4 0 1.8 4.6 0.2 7.1 -2.5z"/><path d="M191.3 455.5 c-2.8 -2.4 -2.8 -2.4 1 -2.5 3.3 0 3.7 0.3 3.7 2.5 0 3.1 -1.1 3.2 -4.7 0z"/><path d="M201.4 452 c-8.9 -1.3 -12.4 -4.6 -12.4 -11.6 0 -6.2 0.7 -7.4 4.4 -7.4 2.4 0 3.8 0.8 5.4 3 1.4 1.9 3.1 3 4.5 2.9 2.2 -0.2 2.2 -0.2 0.1 -0.6 -2.2 -0.4 -3.4 -3.7 -3.4 -8.9 0 -4.1 2.6 -2.6 4.1 2.3 1.4 4.7 2.6 5.8 8.9 8.3 1.4 0.6 3.2 1.4 4 1.9 0.8 0.5 3.4 1.4 5.8 2 3.9 1.1 4.2 1.4 4.2 4.5 0 2.2 -0.6 3.6 -1.6 4 -2.1 0.8 -17.6 0.5 -24 -0.4z"/><path d="M185.1 449.4 c-2.7 -3.5 -2.6 -4.4 0.4 -4.4 2.2 0 2.5 0.4 2.5 3.5 0 1.9 -0.2 3.5 -0.4 3.5 -0.3 0 -1.4 -1.2 -2.5 -2.6z"/><path d="M306 394.5 c0 -6.8 0.2 -7.5 2 -7.5 1.8 0 2 0.7 2 7.5 0 6.8 -0.2 7.5 -2 7.5 -1.8 0 -2 -0.7 -2 -7.5z"/><path d="M144.4 396.5 c3.7 -1.3 11.6 -8 11.6 -9.8 0 -0.8 -5.1 -0.4 -6.8 0.7 -1.7 1.1 -11.6 -2.2 -13.4 -4.4 -3.4 -4.2 -1.5 -14.7 3.7 -21.5 1.4 -1.8 1.4 -2.1 -0.2 -3.2 -1.6 -1.2 -1.5 -1.3 0.3 -1.3 10.4 0 20.4 10.5 20.4 21.4 0 3.7 -2.6 9.6 -5.8 12.9 -3.1 3.3 -9.3 6.7 -11.9 6.7 -1 -0.1 -0.1 -0.7 2.1 -1.5z"/><path d="M124.8 393.1 c-1.8 -1.6 -3.1 -3.1 -2.8 -3.4 0.3 -0.2 2.1 1.1 4 3 4.2 4.1 3.3 4.4 -1.2 0.4z"/><path d="M181.1 367 c0.1 -15.4 0.4 -28 0.6 -28 0.2 0 0.8 1.2 1.3 2.6 0.8 2 1.6 2.5 3.8 2.2 4.2 -0.5 7.2 -7.2 7.2 -16.5 0 -6.3 -0.3 -7.4 -2.2 -8.7 -2.9 -2 -10.9 -2.1 -17.5 -0.1 -6.4 1.9 -8.2 3.8 -5.9 6.3 0.9 1 1.6 2.4 1.6 3 0 0.7 0.6 1.2 1.4 1.2 0.8 0 1.7 0.3 1.9 0.8 0.3 0.4 -5.6 0.6 -13.1 0.4 -9 -0.3 -13.9 -0.8 -14.4 -1.5 -1 -1.6 -1 -8.9 0 -10.4 0.4 -0.6 4.3 -2.1 8.7 -3.3 4.4 -1.1 9.2 -2.7 10.7 -3.5 2 -1.2 6.7 -1.5 20.2 -1.5 17.6 0 17.6 0 17.6 24.9 0 24.7 0 25 -2.1 25.3 -1.5 0.2 -2.7 1.7 -3.9 4.8 -1.8 4.5 -1.8 4.5 -6.9 4.5 -5.1 0 -5.1 0 -5.1 12.8 0 12.2 -0.1 12.7 -2.1 12.7 -2 0 -2 -0.3 -1.8 -28z"/><path d="M388.3 389.7 c0.9 -1.4 1.7 -3.3 1.7 -4.1 0 -1.4 -2.3 -1.6 -3.6 -0.3 -1.2 1.1 -13.8 0.8 -17.4 -0.4 -2.4 -0.9 -4.5 -0.9 -8.6 0 -5 1.2 -5.3 1.4 -4.3 3.3 0.8 1.6 0.8 1.9 -0.1 1.3 -2 -1.2 -5 -8.8 -5 -12.7 0 -7.2 4.6 -14 12.2 -17.9 4.9 -2.5 7.2 -2.4 3.1 0.1 -1.8 1.1 -3.3 2.4 -3.3 3 0 0.5 1.5 1.3 3.3 1.8 3.7 1 11 -1.7 11.5 -4.2 0.5 -2.2 2.2 -2 6.4 0.9 4.7 3.2 8.8 11.3 8.8 17.4 0 4.8 -2.8 12.3 -5.1 13.7 -0.9 0.5 -0.8 -0.1 0.4 -1.9z"/><path d="M306 348 c0 -38 0 -38 4.3 -37.9 2.3 0 30.6 -0.2 63 -0.6 58.7 -0.8 58.7 -0.8 58.7 1.4 0 2.1 0 2.1 -45.7 2.2 -45.8 0.1 -45.8 0.1 -38.5 2 4 1 7.7 2.1 8.2 2.4 0.6 0.4 1 3.3 1 6.5 0 5.8 0 5.8 -10.7 6.2 -8.9 0.2 -11.3 0.7 -13.5 2.3 -3.4 2.6 -4.8 5.6 -4.8 10.6 0 7.4 -4.3 11.9 -11.5 11.9 -3 0 -3.5 -0.4 -4.9 -4.2 -1.6 -4.2 -1.6 -4.1 -1.4 9.2 0.3 23.7 0.1 26 -2.2 26 -2 0 -2 -0.7 -2 -38z m17.8 -9.4 c2 -1.3 4.6 -3.3 5.7 -4.6 1.1 -1.2 3.6 -3 5.5 -4 11.8 -6 7.2 -11.7 -9.6 -11.9 -9.3 -0.1 -9.9 0.6 -9.7 11 0.2 7.8 1.4 11.9 3.4 11.9 0.5 0 2.6 -1.1 4.7 -2.4z"/><path d="M263 361.5 c-1.3 -1.5 -2.5 -1.7 -10.2 -1.1 -8.8 0.7 -8.8 0.7 -8.8 -11.9 0 -11.8 0.1 -12.5 2 -12.5 1.7 0 2 0.7 2 5 0 6 1.3 7 10 7 7.1 0 7.2 0.2 6.8 9 -0.3 5.7 -0.4 6.2 -1.8 4.5z"/><path d="M73.8 330.2 c-3.4 -0.7 -2 -3.2 1.7 -3.2 2.3 0 3.5 0.5 3.5 1.4 0 1.5 -2.5 2.4 -5.2 1.8z"/><path d="M403.8 330.2 c-1 -0.2 -1.8 -1 -1.8 -1.8 0 -1.1 2.2 -1.4 11.5 -1.4 10.8 0 11.5 0.1 11.5 2 0 1.9 -0.6 2 -9.7 1.8 -5.4 -0.1 -10.6 -0.4 -11.5 -0.6z"/><path d="M435 329 c0 -1.6 0.7 -2 3.5 -2 4 0 4.9 2.4 1.3 3.4 -3.8 1 -4.8 0.7 -4.8 -1.4z"/><path d="M446 326.6 c0 -2.3 0.4 -2.6 3.5 -2.6 5.3 0 4.6 1.3 -2.7 4.8 -0.5 0.2 -0.8 -0.8 -0.8 -2.2z"/><path d="M56 325.6 c-3.8 -2.6 -7.5 -7.1 -9 -11.1 -0.8 -2.2 -0.7 -2.5 1.4 -2.5 2.6 0 3.6 1.7 3.6 6.1 0 2.6 0.4 2.9 3 2.9 1.7 0 3 0.5 3 1 0 0.6 0.7 1 1.5 1 0.9 0 1.5 0.9 1.5 2.5 0 3.1 -0.6 3.1 -5 0.1z"/><path d="M66.3 323 c-6.1 -1.3 -10.3 -3.7 -11.4 -6.7 -1.6 -4.3 -2.5 -111.6 -1 -118.1 2.5 -10.2 7.5 -11.6 37.8 -10.6 21.3 0.7 21.3 0.7 21.3 4.4 0 3.7 -0.1 3.7 -4.6 4.4 -2.6 0.3 -7.7 0.6 -11.3 0.6 -9.2 0 -24.5 1.7 -27.4 3.1 -1.4 0.6 -3 2.3 -3.7 3.8 -2 4 -2.5 28.8 -0.9 42.7 1.6 13.7 1.6 29.6 0.1 43.8 -0.7 7 -0.7 10.8 0.1 13.5 1.1 3.5 1.1 3.5 1.5 0.9 0.4 -3.5 1.5 -3.5 3.2 -0.2 0.8 1.4 2.2 3 3.1 3.4 0.9 0.5 18.2 1 38.5 1.1 20.2 0.1 37.6 0.4 38.6 0.7 1 0.2 1.8 1.1 1.8 1.8 0 1.2 -5.6 1.4 -32.7 1.6 -18.1 0 -30.8 0.4 -28.3 0.7 4.3 0.6 4.5 0.7 4.8 4.2 0.3 3.1 -0.1 3.7 -2 4.3 -4.1 1.1 -23.2 1.6 -27.5 0.6z m7.7 -12.5 c0 -1 -1 -1.5 -2.7 -1.5 -2.7 0.1 -2.7 0.1 -0.9 1.5 2.5 1.9 3.6 1.9 3.6 0z m-14.1 -105 c0.6 -3.8 0.8 -7.1 0.6 -7.4 -0.8 -0.7 -2.4 4.6 -2.6 8.6 -0.4 9 0.7 8.4 2 -1.2z"/><path d="M457 316.6 c0 -1.9 0.7 -4.1 1.5 -5 0.8 -0.8 1.5 -2.6 1.5 -4 0 -2 0.5 -2.6 2.1 -2.6 1.9 0 2.1 0.4 1.5 3.2 -0.8 4.2 -4.5 11.8 -5.7 11.8 -0.5 0 -0.9 -1.5 -0.9 -3.4z"/><path d="M443 312.8 c0 -2.9 0.5 -10 1 -15.8 1.3 -14.1 1.3 -14.6 0 -45.5 -1.2 -27.2 -2.5 -48 -2.8 -43.7 -0.2 2.4 -0.2 2.4 -3.6 -0.5 -1.9 -1.5 -3.5 -3.1 -3.5 -3.5 -0.1 -0.4 1.4 -0.8 3.2 -1 3.2 -0.4 3.2 -0.4 0.2 -1.7 -1.6 -0.7 -5.5 -1.7 -8.5 -2.2 -10.6 -1.8 -10.1 -1.6 -9.8 -5.6 0.4 -4.7 1.6 -5.1 16.1 -5.2 12.9 -0.1 17.1 1.2 19.1 6.1 1.2 2.7 1.3 9.1 0.6 35.7 -0.4 17.8 -0.6 43 -0.4 56 0.4 18.5 0.2 24.5 -0.9 27.6 -1.3 3.8 -1.6 4 -6 4.3 -4.7 0.3 -4.7 0.3 -4.7 -5z m8.6 -107.3 c0.5 -6 0.4 -7.3 -1.3 -9.3 -2.1 -2.7 -10.5 -4.3 -11.7 -2.3 -0.4 0.6 -0.3 1.1 0.3 1.1 2.1 0 7 5.3 7.6 8.3 2.6 12.7 4.1 13.3 5.1 2.2z"/><path d="M249.1 305 c-1.8 -0.4 -3.7 -1.3 -4.1 -2 -0.4 -0.6 -1.2 -6.3 -1.7 -12.5 -0.8 -8.7 -1.6 -12.4 -3.4 -15.7 -3.7 -6.6 -7 -7.8 -21.5 -7.8 -8 0 -12.4 -0.4 -13.2 -1.2 -0.7 -0.7 -1.2 -3.3 -1.2 -6 0 -3.9 0.6 -5.4 3.1 -8.3 3.1 -3.5 3.1 -3.5 -13.5 -3.5 -13.5 0 -16.6 -0.3 -16.6 -1.4 0 -2.2 2.6 -2.4 28 -2.5 26.2 -0.1 28.5 -0.5 33.4 -5.7 3.6 -4 5.6 -11.2 5.6 -20.9 0 -8.1 0 -8.1 3.5 -9.8 4.1 -1.9 11.3 -2.2 14.8 -0.6 2.2 1 2.5 1.8 3.1 10.7 0.8 12.1 2 16.9 5.4 20.6 4.9 5.3 6.9 5.6 34.9 5.7 27.4 0.1 30.3 0.3 30.3 2.5 0 1.1 -3 1.4 -15.7 1.5 -8.7 0 -15.2 0.3 -14.5 0.6 4 1.6 5.8 14.3 2.5 16.9 -1.2 0.9 -5 1.4 -11.3 1.4 -26.5 0.1 -30.5 3.5 -31.7 27 -0.6 10.8 -0.6 10.8 -3.6 11.4 -3.8 0.8 -8.3 0.6 -12.6 -0.4z m11.8 -12.9 c1.1 -1.1 2.2 -4.1 2.6 -7.2 0.9 -6.5 3.6 -13 6.9 -16.6 2.3 -2.4 3.3 -2.7 13.7 -3.4 11.7 -0.9 15.2 -2.1 16.4 -6 0.5 -1.4 0 -3 -1.2 -4.8 -3.5 -4.6 -7.8 -6.8 -15 -7.6 -3.7 -0.4 -8.4 -1.4 -10.3 -2.2 -4.8 -1.9 -8.8 -7.4 -9.5 -13.2 -1.1 -7.9 -2.5 -11.1 -5.9 -13.2 -3.5 -2.2 -7.5 -2.1 -8.7 0.1 -0.5 0.8 -2 5.4 -3.4 10.3 -3.4 11.5 -6.1 14.6 -15.1 17.1 -7.7 2.1 -12.1 4.3 -12.9 6.4 -0.4 1.1 0.2 1.3 2.7 0.9 5.6 -0.8 14 -3.5 18.7 -6 5.4 -2.7 8 -6.3 11.6 -15.7 1.5 -3.9 3.1 -7 3.5 -7 0.5 0 1.8 2.6 3 5.8 1.2 3.1 3.2 7.6 4.5 10 2.4 4.2 2.4 4.2 -0.4 4.2 -2.2 0 -3.1 -0.8 -5 -4.7 -2.3 -4.7 -2.3 -4.7 -4.3 0 -1.6 3.7 -2.6 4.7 -4.4 4.7 -1.9 0 -2.4 0.5 -2.4 2.5 0 2.7 -2.5 4.4 -9.7 6.5 -2.4 0.7 -4.3 1.6 -4.3 1.9 0 0.4 2.4 1.5 5.3 2.5 6.2 2.2 14.8 10.4 16.3 15.6 1 3.5 1 3.5 3.7 -1.7 2.2 -4.2 3.2 -5.3 5.2 -5.3 2 0 2.5 -0.5 2.5 -2.5 0 -2.7 4.5 -5.6 11 -7 3.9 -0.9 4.1 -0.7 -5.2 -4 -4.2 -1.5 -4.8 -2 -4.8 -4.5 0 -2.9 0 -2.9 4.4 -0.4 2.4 1.3 7 2.9 10.2 3.5 8.4 1.5 12.6 2.9 12.1 4.2 -0.2 0.7 -4.3 2.2 -9 3.4 -15.7 4 -21.5 9.4 -25.8 23.5 -1.1 3.8 -2.4 6.8 -2.8 6.8 -1 0 -2.6 -3.8 -4.1 -10 -1.4 -5.2 -6.1 -11.8 -10.7 -15 -1.8 -1.2 -7.2 -3.5 -12 -5 -4.8 -1.5 -9.5 -3.1 -10.4 -3.5 -2.1 -0.8 -4.9 2 -4.9 5 0 2.9 1 3.3 12.2 4.1 14.2 1 18 4.3 20.8 17.9 2 9.8 3.3 11.5 8.5 11.5 3.1 0 5.1 -0.6 6.4 -1.9z"/><path d="M145.8 266.1 c4.1 -2.5 6.1 -17.2 2.6 -18.5 -3.2 -1.2 -0.3 -1.9 10.5 -2.4 10.9 -0.4 10.9 -0.4 10.8 5.9 0 3.5 0.3 8.5 0.8 11.2 0.8 4.7 0.8 4.7 -12.6 4.7 -7.6 0 -12.8 -0.4 -12.1 -0.9z"/><path d="M338 264 c0 -1.7 0.9 -4 2 -5.2 1.1 -1.2 2 -2.7 2 -3.4 0 -0.6 0.9 -3.2 2 -5.8 2.1 -4.6 2.1 -4.6 7.8 -4.6 8.6 0 9 0.6 5.9 8.2 -1.5 3.4 -2.8 7.7 -2.9 9.3 -0.3 2.8 0 3 3.7 3.6 2.3 0.4 -1.1 0.7 -8.2 0.8 -12.3 0.1 -12.3 0.1 -12.3 -2.9z"/><path d="M116.5 256 c-0.9 -1.5 0.4 -3 2.6 -3 1.2 0 1.9 0.7 1.9 2 0 2.1 -3.3 2.9 -4.5 1z"/><path d="M66 209.5 c0 -1.9 0.5 -3.5 1 -3.5 0.6 0 1 -0.7 1 -1.5 0 -0.8 0.7 -1.5 1.5 -1.5 0.8 0 1.5 -0.4 1.5 -1 0 -0.5 1.6 -1 3.5 -1 4.4 0 4.6 2 0.2 4 -1.8 0.8 -3.9 2.9 -4.7 4.7 -2 4.4 -4 4.2 -4 -0.2z"/><path d="M45.5 202.3 c0.8 -4.5 4.4 -12.3 5.6 -12.3 0.5 0 0.9 1.6 0.9 3.5 0 1.9 -0.4 3.5 -0.9 3.5 -0.5 0 -1.2 2 -1.5 4.5 -0.6 3.7 -1.1 4.5 -2.8 4.5 -1.8 0 -1.9 -0.4 -1.3 -3.7z"/><path d="M460 201.5 c0 -1.9 -0.4 -3.5 -1 -3.5 -0.5 0 -1 -1.6 -1 -3.5 0 -6.9 3.8 -2.2 5.5 6.8 0.7 3.3 0.5 3.7 -1.4 3.7 -1.7 0 -2.1 -0.6 -2.1 -3.5z"/><path d="M126 202.1 c0 -2.1 0.4 -2.1 19 -2.1 15.5 0 19 0.3 19 1.4 0 2 -1.7 2.2 -20.7 2.5 -16.9 0.3 -17.3 0.2 -17.3 -1.8z"/><path d="M356.8 203.2 c-1 -0.2 -1.8 -1 -1.8 -1.8 0 -1.1 2.7 -1.4 15 -1.4 14.5 0 15 0.1 15 2.1 0 2 -0.4 2 -13.2 1.8 -7.3 -0.2 -14.1 -0.5 -15 -0.7z"/><path d="M394 202 c0 -1.9 0.7 -2 19.5 -2 18.8 0 19.5 0.1 19.5 2 0 1.9 -0.7 2 -19.5 2 -18.8 0 -19.5 -0.1 -19.5 -2z"/><path d="M182.5 201.9 c-3.3 -0.5 -8.9 -1.3 -12.5 -1.8 -3.6 -0.5 -8.2 -1.6 -10.2 -2.4 -3.5 -1.5 -3.8 -1.9 -3.8 -5.5 0 -2.6 0.7 -4.5 2 -5.7 1.1 -1 2 -2.6 2 -3.7 0 -1.5 0.8 -1.8 4.8 -1.8 6.7 0 11.8 -1.7 14.2 -4.7 1.7 -2.1 2 -4 2 -11.4 0 -8.2 0.2 -8.9 2 -8.9 1.5 0 2 0.7 2 2.7 0 2.1 0.3 2.4 1.2 1.5 1.7 -1.7 9.3 -1.5 10.8 0.3 0.7 0.8 2.3 1.5 3.6 1.5 2.4 0 2.4 0 2.4 20.5 0 20.5 0 20.5 -7.2 20.4 -4 -0.1 -10 -0.6 -13.3 -1z m10.1 -6.9 c2.7 -1.1 2.7 -1.1 2.2 -9.8 -0.3 -4.9 -1.1 -9.8 -1.7 -11 -2.1 -3.9 -7 -2.6 -13.1 3.7 -2 2 -5 4.9 -6.8 6.4 -3.5 3.1 -5.1 7.2 -3.4 8.9 2.2 2.2 18.4 3.4 22.8 1.8z"/><path d="M306 181 c0 -21.3 0.1 -22 2 -22 1.8 0 2 0.7 2 5.6 0 5.6 0 5.6 2.6 2.5 3 -3.6 7.5 -4.1 12.4 -1.6 2.4 1.3 3 2.2 3 4.9 0 2.3 0.9 4.6 2.8 6.7 2.7 3.3 2.7 3.3 -0.3 1.2 -1.6 -1.2 -5.1 -2.5 -7.7 -2.8 -5.7 -0.8 -6.6 0.4 -7.5 10 -0.8 8.8 0.6 10.5 9.1 10.5 12.2 0 17.5 -3.4 16.2 -10.4 -0.4 -1.9 -1.2 -3.7 -1.9 -3.9 -0.7 -0.3 5.4 -0.6 13.4 -0.6 8 -0.1 20.7 -0.4 28.2 -0.8 13.6 -0.6 13.7 -0.6 13.7 1.5 0 2.1 -0.5 2.2 -9.2 2.3 -5.1 0 -13.2 0.4 -18 0.7 -9.5 0.8 -11.7 2.1 -11.8 7.3 0 3.5 -1 4.2 -11.8 7.8 -8.6 2.9 -10.3 3.1 -23.3 3.1 -13.9 0 -13.9 0 -13.9 -22z"/><path d="M452 188.5 c0 -0.8 -0.9 -1.5 -2 -1.5 -1.1 0 -2 -0.7 -2 -1.5 0 -1 -1.1 -1.5 -3.5 -1.5 -2.8 0 -3.5 -0.4 -3.5 -2 0 -1.2 0.7 -2 1.8 -2 2.7 0.1 9.4 3.5 13.2 6.9 3.5 3 3.5 3 -0.2 3.1 -2.7 0 -3.8 -0.4 -3.8 -1.5z"/><path d="M125 182 c0 -1.8 0.7 -2 8.3 -2 9.5 0 12.7 0.7 12.7 2.6 0 1.1 -2.2 1.4 -10.5 1.4 -9.8 0 -10.5 -0.1 -10.5 -2z"/><path d="M244 169.1 c0 -5.4 0.3 -11.9 0.6 -14.3 0.6 -4.6 0.6 -4.6 7 -4 6.2 0.5 6.4 0.4 9.9 -3.1 3.5 -3.5 3.5 -3.5 3.5 10 0 13.6 0 13.6 -7.1 12.9 -8.2 -0.9 -9.9 0 -9.9 5 0 2.7 -0.4 3.4 -2 3.4 -1.9 0 -2 -0.7 -2 -9.9z"/><path d="M131 151.9 c-4.2 -1.9 -4.3 -2.2 -2.3 -3 2.9 -1.1 2.1 -3.3 -1.8 -4.9 -1.6 -0.7 -2.9 -1.8 -2.9 -2.4 0 -0.6 -0.9 -2.2 -2 -3.6 -1.1 -1.4 -2 -3.4 -2.1 -4.5 -0.1 -1.1 -0.5 -0.4 -0.9 1.5 -0.7 3.4 -0.7 3.4 -0.9 -1.3 -0.2 -8.2 3.3 -14.3 10.1 -17.8 4.7 -2.4 6.8 -2.4 6.8 -0.1 0 1 2.5 4.6 5.6 8 4.6 5.2 6.1 6.2 8.8 6.2 4.7 0 7 -2 6.3 -5.6 -0.5 -2.7 -0.4 -2.7 0.9 -0.9 2.5 3.4 3.6 9.3 2.6 14.1 -1.4 6.4 -5 11.1 -10.6 13.9 -6.1 3.1 -11.6 3.2 -17.6 0.4z"/><path d="M362.2 151.4 c-5.7 -2.8 -9.8 -8.4 -10.8 -14.6 -0.8 -4.4 1.1 -11.1 4 -14.5 2.3 -2.7 2.3 -2.7 1.8 0.5 -0.3 2.6 -0.1 3.2 1.4 3.3 1.1 0 3.6 0.2 5.6 0.4 3.5 0.4 3.7 0.2 5.3 -4 1.7 -4.2 1.3 -9.1 -0.6 -8 -0.5 0.4 -0.9 0.1 -0.9 -0.6 0 -0.8 1.9 -1 6.4 -0.7 5.1 0.3 7.1 1 10.1 3.2 7.1 5.4 10.5 17.7 7 25.1 -1.2 2.4 -1.4 2.5 -0.8 0.5 0.7 -2.8 0.7 -6 -0.1 -6.7 -0.3 -0.3 -3.9 0.7 -8 2.2 -7.7 2.8 -8.7 3.9 -7.8 9 0.5 2.9 5.4 5 8.2 3.5 1.2 -0.6 2.4 -0.9 2.7 -0.7 0.3 0.3 -1.3 1.5 -3.6 2.6 -5.8 3 -13.3 2.8 -19.9 -0.5z"/><path d="M189.7 96.4 c-0.4 -0.4 -0.7 -8.7 -0.7 -18.4 0 -16.3 0.2 -17.9 2 -20.3 3.6 -4.5 12.5 -5.6 32.8 -4 8.2 0.6 8.2 0.6 8.2 3.7 0 1.7 -0.4 3.7 -0.8 4.4 -0.5 0.7 -4.6 1.8 -9.1 2.6 -4.6 0.7 -8.6 1.7 -8.9 2.3 -0.4 0.6 -1.7 1.4 -3 1.7 -3.7 1.2 -6.2 4.6 -6.2 8.5 0 5 -1 8.1 -2.6 8.1 -0.8 0 -1.4 -1.5 -1.6 -3.7 -0.2 -2.5 -0.7 -0.4 -1.3 5.7 -1 9.5 -1 9.5 -4.5 9.8 -2 0.2 -3.9 0 -4.3 -0.4z m12.4 -33.8 c3 -1.3 6.3 -2.7 7.4 -3.1 2 -0.7 2 -0.7 0 -1.5 -1.1 -0.4 -2.7 -0.6 -3.5 -0.4 -0.8 0.1 -2.9 0.3 -4.6 0.3 -4 0.1 -8 3.2 -7.1 5.4 0.8 2.2 1.4 2.1 7.8 -0.7z"/><path d="M310.1 86.3 c-2.5 -15 -2.9 -16.8 -3 -14 0 1.5 -0.3 2.7 -0.5 2.7 -0.5 0 -7.6 -7.1 -7.6 -7.6 0 -0.2 1.5 -0.4 3.3 -0.4 3.2 0 3.2 0 0.7 -2 -1.4 -1 -3.6 -2 -5 -2.2 -2.2 -0.3 -2.5 -0.8 -2.5 -4.3 0 -4 0 -4 9.8 -4.3 9.1 -0.3 9.9 -0.1 12.1 2.1 3.2 3.2 4 10.1 2.9 24.8 -0.8 11.4 -0.8 11.4 -4.9 11.7 -4.2 0.3 -4.2 0.3 -5.3 -6.5z m6.5 -11.9 c1.5 -8.2 -1.3 -16.4 -5.8 -16.4 -2.4 0 -2.3 2.2 0.2 4.5 1.2 1.1 2 3.1 2 4.9 0 4.8 1.2 10.6 2.1 10.6 0.4 0 1.1 -1.6 1.5 -3.6z"/><path d="M323.6 66.3 c-0.9 -5.5 -0.7 -8.3 0.4 -8.3 1.4 0 2.7 2.9 3.5 7.8 0.6 3.7 0.5 4.2 -1.3 4.2 -1.5 0 -2.1 -0.9 -2.6 -3.7z"/><path d="M181.5 64.3 c1.5 -8.4 9.6 -16.3 18.6 -18.2 2.7 -0.6 14.4 -1.1 25.9 -1.1 20.3 0 21 0.1 21 2 0 1.9 -0.7 2 -21.7 2 -18 0 -22.6 0.3 -26.5 1.7 -2.7 0.9 -4.8 2.1 -4.8 2.5 0 0.4 -1.1 0.8 -2.5 0.8 -2 0 -2.5 0.5 -2.5 2.5 0 1.4 -0.4 2.5 -0.9 2.5 -0.5 0 -1.5 2 -2.2 4.5 -1 3.3 -1.8 4.5 -3.2 4.5 -1.7 0 -1.8 -0.5 -1.2 -3.7z"/><path d="M313 49.5 c0 -3.1 1.1 -3.2 4.7 0 2.8 2.4 2.8 2.4 -0.9 2.5 -3.4 0 -3.8 -0.3 -3.8 -2.5z"/><path d="M248 47 c0 -1.9 0.7 -2 21.5 -2 20.8 0 21.5 0.1 21.5 2 0 1.9 -0.7 2 -21.5 2 -20.8 0 -21.5 -0.1 -21.5 -2z"/><path d="M304 47 c0 -2.1 1 -2.4 4.8 -1.4 3.6 1 2.7 3.4 -1.3 3.4 -2.8 0 -3.5 -0.4 -3.5 -2z"/></g><g fill="#00a7ff" transform="matrix(0.095459, 0, 0, 0.095967, 397.706122, -4.230866)"><path d="M292 458 c0 -1.1 0.6 -2 1.3 -2 0.8 -0.1 0.7 -0.4 -0.3 -0.9 -3.2 -1.8 -41.3 -4 -46.5 -2.8 -2.2 0.6 -13.4 1.1 -25 1.1 -23.2 0.1 -26.7 -0.5 -30.9 -5.5 -2.9 -3.4 -3.3 -5.2 -4.3 -21.4 -0.4 -6.6 -0.9 -11 -1.1 -9.7 -0.2 1.4 -1 2.2 -2.4 2.2 -2 0 -2.1 -0.2 -1.5 -21.7 0.4 -12 0.7 -25.8 0.7 -30.6 0 -9.6 0.1 -9.7 4.9 -2.9 1.3 1.8 3 3.2 3.8 3 0.9 -0.2 2.4 -2.5 3.5 -5.3 2.2 -5.7 3.4 -6.8 6 -5.4 1.6 0.9 1.8 0.1 2.1 -11.3 0.1 -6.8 0.4 2.9 0.5 21.4 0.1 24.9 -0.1 33.7 -1 34 -0.9 0.3 -0.9 1.2 0 3.8 1.5 4 1.6 12 0.2 12 -0.6 0 -1 2.7 -1 6 0 3.3 0.4 6 1 6 0.5 0 1.2 1.6 1.6 3.5 0.4 2.1 1.8 4.5 3.6 6 3 2.5 3 2.5 46.6 2.4 24 -0.1 44.8 -0.4 46.1 -0.8 1.3 -0.3 3.4 -1.9 4.5 -3.4 2 -2.7 2.1 -4.1 2.3 -31.5 0 -15.8 0.1 -33.4 0.1 -39.2 -0.1 -23.1 0.4 -27.3 3 -26.8 1.1 0.2 2.6 2.8 4 6.8 1.3 3.5 2.4 6.6 2.6 6.7 0.5 0.5 5.6 -1.9 5.6 -2.7 0 -0.3 0.8 -1.5 1.8 -2.6 1.1 -1.1 2.4 -3.3 3 -4.9 0.8 -2.3 1.1 3.3 1.1 23.3 0.1 25.1 0 26.2 -1.8 26.2 -2.8 0 -3.1 1.8 -3 15.8 0.1 7 0.4 11.5 0.6 10 0.3 -2 1 -2.8 2.5 -2.8 2 0 2 0.4 1.6 12.3 -0.4 10.9 -0.7 12.8 -3.2 17.7 -5.6 11.1 -13.4 16 -25.6 16 -6.3 0 -7 -0.2 -7 -2z m-69.2 -8.9 c1 -0.6 0.5 -1.1 -1.9 -2 -1.7 -0.6 -4 -1.1 -4.9 -1.1 -1 0 -2.3 -0.6 -2.9 -1.4 -0.6 -0.7 -4 -1.6 -7.8 -1.9 -6.1 -0.5 -7 -0.8 -9.5 -3.7 -2.7 -3.3 -2.7 -3.3 -3.4 -0.6 -0.7 3 1.4 6.9 4.8 8.7 4.3 2.3 22.9 3.8 25.6 2z m89.7 -2.2 c2.1 -1.9 3.9 -4.7 4.6 -7.2 1.3 -4.8 0.7 -26.8 -0.8 -30.6 -1 -2.5 -1 -2.5 -2.1 0.9 -0.7 1.8 -1.2 5.2 -1.2 7.4 0 6.5 -2.8 15.5 -5.9 19.5 -4 5 -9.6 7.9 -12.2 6.3 -2.2 -1.4 -7.9 -1.6 -7.9 -0.3 0 0.5 -1.4 0.8 -3.1 0.7 -3.8 -0.1 -4.9 1.8 -2 3.4 2.7 1.4 11.9 2.7 20.3 2.9 6.2 0.1 7 -0.2 10.3 -3z"/><path d="M194.3 457.4 c-4.3 -2.1 -4.2 -3.4 0.2 -3.4 3.1 0 3.5 0.3 3.5 2.5 0 1.4 -0.1 2.5 -0.2 2.5 -0.2 0 -1.8 -0.8 -3.5 -1.6z"/><path d="M183.1 445.7 c-2.6 -5.3 -2.7 -7.7 -0.3 -7.7 2 0 4.2 4.9 4.2 9.3 0 3.9 -1.5 3.3 -3.9 -1.6z"/><path d="M392.1 379.8 c-0.5 -6.4 -2.6 -12 -5.8 -15.9 -3.7 -4.4 -3.7 -4.4 0 -1 4 3.8 7.1 11.3 6.4 15.8 -0.2 1.5 -0.5 2 -0.6 1.1z"/><path d="M263 354.3 c0 -2.6 -1.9 -3.3 -8.5 -3.1 -7.3 0.2 -9.2 -1.2 -9.8 -6.9 -0.2 -2.7 -0.5 -16.1 -0.6 -29.9 -0.1 -23.3 -0.8 -32.8 -2.7 -37.9 -0.5 -1.3 -0.4 -1.7 0.3 -1 1.1 1.1 2.7 7 4.3 16.6 0.6 3.6 1.5 7.1 1.9 7.8 1.1 1.7 7.8 3.1 11.2 2.4 2.8 -0.5 3.7 -2.8 5.3 -13.3 0.2 -1.4 0.4 5.6 0.5 15.4 0.1 17.9 0.1 17.9 -5.3 17.3 -4.5 -0.4 -5.7 -0.2 -7.1 1.3 -3.8 4.2 1 11.6 8 12.2 4 0.3 4 0.3 4.3 9.7 0.2 5.6 -0.1 9.8 -0.8 10.5 -0.7 0.7 -1 0.3 -1 -1.1z"/><path d="M420.8 330.3 c-1 -0.2 -1.8 -1.1 -1.8 -1.9 0 -1.1 1.6 -1.4 7 -1.4 6.3 0 7 0.2 7 2 0 1.8 -0.6 2 -5.2 1.9 -2.9 -0.1 -6.1 -0.3 -7 -0.6z"/><path d="M434 329 c0 -1.2 0.7 -2 1.8 -2 0.9 0 4.1 -0.3 7 -0.6 3.5 -0.5 5.2 -0.3 5.2 0.4 0 1.7 -2.9 2.9 -8.7 3.6 -4.9 0.6 -5.3 0.5 -5.3 -1.4z"/><path d="M60.1 327.8 c-2.4 -1.2 -6 -3.8 -8 -5.7 -3.6 -3.6 -3.6 -3.6 -0.7 -3.9 2.2 -0.3 2.6 -0.7 1.9 -2 -1.1 -2.4 -1.6 -112.7 -0.5 -117.9 0.9 -4.1 0.9 -4.3 -1.4 -4.3 -1.3 0 -2.4 -0.4 -2.4 -1 0 -2.1 6.4 -8 11.2 -10.4 6.2 -3.1 8.8 -3.3 8.8 -0.7 0 2 -2.5 3.1 -7.2 3.1 -1.9 0 -2.8 0.5 -2.8 1.6 0 1.2 0.5 1.4 1.8 0.9 0.9 -0.5 16.8 -1.2 35.2 -1.7 18.4 -0.4 34.5 -1.1 35.8 -1.3 1.2 -0.3 2.2 -1.2 2.2 -2 0 -1.3 2.1 -1.5 14.8 -1.3 14.7 0.3 14.7 0.3 14.5 3.2 -0.1 1.6 -1.2 3.9 -2.4 5.2 -1.1 1.2 -1.8 2.7 -1.5 3.2 1.7 2.8 24 6.8 35.4 6.3 2.3 0 4.2 0.3 4.2 0.8 0 0.5 0.7 1.1 1.5 1.5 1.3 0.5 1.5 -1.9 1.5 -17.8 0 -18.3 0 -18.3 -2.6 -17.8 -1.7 0.3 -3.3 -0.3 -4.9 -1.8 -1.3 -1.3 -3 -2 -3.7 -1.6 -0.7 0.4 -2.4 1.3 -3.8 2.1 -1.9 1.1 -2.6 1.1 -3.2 0.2 -0.4 -0.7 -0.8 -0.7 -0.9 -0.2 -0.5 4.1 -1.8 -9.4 -1.8 -19.7 -0.1 -12.2 0 -12.8 1.9 -12.8 1.8 0 2 0.7 2.1 6.8 0.1 3.7 0.3 5.6 0.5 4.2 0.3 -1.4 0.9 -4.2 1.5 -6.2 0.9 -3.6 1.2 -3.8 4.9 -3.8 2.3 0 5.3 0.9 7.4 2.3 3.5 2.2 3.5 2.2 3.6 35 0 32.8 0 32.8 -23.2 32.4 -12.8 -0.3 -25.7 -0.9 -28.5 -1.4 -4.2 -0.7 -5.3 -0.7 -5.3 0.4 0 0.7 -0.6 1.3 -1.2 1.4 -27.8 1.1 -30.8 1 -30.8 -1 0 -2 0.6 -2.1 13.3 -2.2 13.2 -0.2 13.2 -0.2 -0.3 -1.1 -17.8 -1.2 -46.1 -0.4 -52 1.5 -3.8 1.3 -4.1 1.5 -1.7 1.6 1.5 0.1 2.7 0.6 2.7 1.1 0 0.6 -0.4 1 -0.9 1 -0.4 0 -2 1.2 -3.5 2.6 -2.6 2.7 -2.6 2.7 -2.6 -0.7 0 -2.6 -0.2 -3 -1.2 -2 -1.8 1.7 -1.8 26.7 0 29.8 0.9 1.6 1.2 10.9 1.2 35.8 0 22.2 0.4 34.3 1.1 35.7 2.5 4.7 3.7 4.8 70.4 4.8 62.5 0 62.5 0 62.3 9.8 -0.2 9.7 -0.2 9.7 -0.7 0.8 -0.6 -8.9 -0.6 -8.9 -14.1 -9 -11.9 -0.1 -14 0.2 -18 2.1 -2.5 1.2 -8.2 3.1 -12.7 4.3 -4.5 1.2 -8.4 2.8 -8.7 3.6 -0.3 0.8 -0.3 2.7 0 4.4 0.6 2.8 0.9 2.9 6.8 3.3 3.3 0.2 -7.4 0.4 -23.9 0.5 -25 0.2 -30.5 -0.1 -32.9 -1.3 -1.8 -1 -8.2 -1.9 -17.3 -2.5 -9.5 -0.7 -16.2 -1.7 -19.4 -2.9 -4 -1.6 -4.9 -1.6 -4.9 -0.5 0 0.8 1 1.4 2.2 1.4 4 0 8.8 2.3 8.8 4.2 0 2.4 -2.5 2.3 -7.9 -0.4z m30.2 -8.4 c4.6 -1 1.8 -2.2 -6.3 -2.8 -11.9 -0.9 -16.1 -2.1 -19.2 -5.4 -3.5 -4 -4.1 -9.1 -2.7 -22.7 1.6 -15 1.6 -24.8 0 -38.8 -1.6 -14.4 -1.1 -44.9 0.8 -48.8 0.7 -1.5 2.4 -3.2 3.8 -3.8 2.6 -1.2 15.8 -2.6 32.7 -3.5 9.2 -0.5 11.6 -1 10.5 -2 -0.2 -0.3 -9.9 -0.6 -21.4 -0.8 -19.4 -0.3 -21.3 -0.1 -25 1.7 -7.3 3.6 -7 1.5 -6.8 63.1 0.1 33.9 0.6 56 1.2 57.7 1.2 3 5.4 5.5 11.4 6.6 4.4 0.9 16.2 0.6 21 -0.5z"/><path d="M347.1 329.3 c6.7 -0.4 6.7 -0.4 6.5 -4.5 -0.1 -4.1 -0.2 -4.2 -5.1 -5.6 -2.7 -0.8 -9.2 -2.7 -14.2 -4.3 -11 -3.4 -13.5 -3.6 -17.8 -0.9 -2.8 1.7 -3.7 1.8 -5.8 0.9 -1.4 -0.6 -2.8 -2 -3 -3.1 -0.5 -1.8 0.3 -1.9 33.7 -1.6 26.1 0.2 34.7 0.6 35.8 1.6 1.2 1 5.9 1.1 20.6 0.6 10.5 -0.3 20 -0.3 21.1 0.1 1.7 0.5 2.1 1.5 2.1 4.5 0 2.1 -0.6 4.2 -1.2 4.7 -1.9 1.2 -16.8 4.2 -21 4.3 -2.1 0 -3.8 0.4 -3.8 0.8 0 2.4 -7.6 3.2 -30.6 3 -13.1 -0.1 -20.9 -0.3 -17.3 -0.5z"/><path d="M449 324.5 c0 -2.1 0.5 -2.5 3 -2.5 2.7 0 3 -0.3 3 -3 0 -2.5 0.4 -3 2.5 -3 3.6 0 3.1 1.7 -1.9 6.6 -4.9 5 -6.6 5.5 -6.6 1.9z"/><path d="M439 316.7 c0 -4.5 0 -4.5 -6.5 -3.9 -5.4 0.4 -6.5 0.2 -6.5 -1 0 -1.6 2.8 -2.8 6.8 -2.8 1.3 0 3.4 -1.1 4.7 -2.5 2.2 -2.1 2.5 -3.3 2.5 -10.4 0 -4.7 0.4 -8.1 1.1 -8.3 0.7 -0.2 0.7 -1.7 0 -4.8 -0.6 -2.6 -1.1 -19 -1.1 -39.1 0 -33.3 -0.1 -34.6 -2 -36.7 -1.2 -1.2 -4.1 -2.7 -6.5 -3.3 -2.5 -0.6 -4.5 -1.7 -4.5 -2.5 0 -0.7 -1.5 -1.5 -3.2 -1.8 -6.8 -1.1 -33.5 -1.6 -36.8 -0.7 -2.9 0.7 -1.8 0.9 5.8 1 7.1 0.1 9.2 0.4 9.2 1.5 0 2.1 -3.4 2.6 -17.3 2.3 -9.3 -0.2 -13.1 -0.7 -13.6 -1.6 -0.6 -1 -2.1 -1.1 -5.2 -0.6 -4.8 0.8 -60.6 1.9 -59.9 1.2 0.3 -0.3 5.5 -0.8 11.5 -1.1 8.7 -0.6 13.2 -1.5 21.5 -4.3 11.7 -3.9 12.9 -4.6 12.5 -7.1 -0.3 -2.2 2.5 -7.1 4.6 -7.7 1.8 -0.6 8.6 -1 33.7 -2 16 -0.7 16.2 -0.7 16.2 1.4 0 1.8 -0.6 2.1 -4.6 2.1 -3.2 0 -4.4 0.4 -4.1 1.3 0.3 0.9 6.1 1.2 24.8 1.2 20.9 0 24.9 0.2 27.7 1.7 3.1 1.6 3.2 1.6 3.2 -0.3 0 -1.4 -0.7 -1.9 -2.9 -1.9 -4.2 0 -6.1 -1 -6.1 -3.1 0 -3 3.1 -2.3 9.2 2.1 6.7 4.7 9.6 10.3 10.5 19.6 0.5 5.9 0.4 6.4 -1.4 6.4 -1.8 0 -2.1 -0.9 -2.6 -7.2 -0.4 -4 -1.1 -7.4 -1.7 -7.6 -0.5 -0.2 -1 -1 -1 -1.8 0 -0.8 -0.3 -1.4 -0.7 -1.4 -0.5 0 -0.8 25.5 -0.8 56.8 0.1 31.2 -0.3 58.9 -0.7 61.7 -1.1 6.7 -3.3 8.7 -10.2 9.3 -5.6 0.4 -5.6 0.4 -5.6 -4.1z m11.7 -6.2 c1.1 -3.2 1.3 -8.7 0.8 -26 -0.3 -12.1 -0.1 -35.9 0.3 -53 1 -35.3 0.8 -36.5 -5.5 -39.1 -4.4 -1.9 -21.5 -1.6 -23.4 0.3 -1.3 1.3 -0.7 1.5 9.1 3.2 3 0.5 6.7 1.4 8.1 1.9 4.8 1.9 5 3.4 6.9 50.7 0.5 13.8 1.2 26.2 1.5 27.7 0.3 1.5 -0.2 9.7 -1 18.4 -0.8 8.6 -1.5 16.8 -1.5 18.1 0 3.9 3.1 2.4 4.7 -2.2z"/><path d="M459 312.6 c0 -5.4 1.2 -8.6 3.2 -8.6 1.8 0 1.9 0.4 1.3 3.7 -1.2 6.6 -4.5 10.2 -4.5 4.9z"/><path d="M45.6 309.8 c-1 -3.8 -0.7 -4.8 1.4 -4.8 1.6 0 2 0.7 2 3.5 0 4 -2.4 4.9 -3.4 1.3z"/><path d="M251.8 279.9 c-2.6 -8.1 -7.8 -14.8 -13.7 -17.9 -2 -1 -7.2 -2.8 -11.4 -4.1 -4.2 -1.2 -7.7 -2.5 -7.7 -2.8 0 -0.3 4.8 -2.1 10.7 -3.9 13.3 -4.2 17.5 -7.8 21.7 -18.9 1.5 -4 3.2 -7.3 3.6 -7.3 0.5 0 1.4 1.7 2.1 3.8 2.2 6.9 5.7 12.8 9.8 16.5 2.3 2 4.1 3.9 4.1 4.2 0 0.3 -1.5 0.5 -3.3 0.5 -3.4 0 -7.7 -3.3 -7.7 -5.8 0 -0.7 -0.4 -1.2 -0.8 -1.2 -0.5 0 -1.6 -1.6 -2.5 -3.5 -1.9 -4.1 -3.7 -4.6 -3.7 -1.1 0 1.4 -0.6 3.1 -1.2 3.8 -0.7 0.8 -1.8 2.2 -2.4 3.3 -0.6 1 -1.9 2.3 -2.9 2.9 -1.1 0.6 -2.5 1.6 -3.1 2.2 -0.7 0.6 -3.3 1.7 -5.8 2.4 -2.5 0.7 -4.6 1.5 -4.6 1.9 0 0.3 2.3 1.4 5 2.4 2.9 1 5 2.4 5 3.2 0 0.8 0.8 1.5 1.8 1.5 2.1 0 5.2 2.9 5.2 4.8 0 0.7 0.5 1.2 1 1.2 0.6 0 1 0.9 1 2 0 1.1 0.4 2 0.9 2 0.5 0 1.1 0.8 1.4 1.8 0.2 1.2 0.8 0.7 2.2 -2 1 -2.1 2.2 -3.8 2.7 -3.8 0.4 0 0.8 -0.6 0.8 -1.3 0 -1.6 4.1 -5.7 5.7 -5.7 0.6 0 1.3 -0.5 1.5 -1.1 0.2 -0.6 2.8 -1.9 5.8 -2.9 5.5 -1.9 5.5 -1.9 2.3 -2.6 -2.5 -0.5 -3.3 -1.2 -3.3 -2.8 0 -2.2 0 -2.2 9.8 0.2 5.3 1.3 9.9 2.6 10.2 2.8 0.8 0.9 -2.3 2.2 -9.4 3.9 -14.7 3.6 -20.9 9.5 -25.6 24.3 -0.7 2.3 -1.7 4.2 -2.1 4.2 -0.4 0 -1.8 -3.2 -3.1 -7.1z"/><path d="M167.5 266 c0.4 -0.6 0.1 -2.6 -0.5 -4.6 -1.7 -5.1 -1.8 -15.3 -0.2 -15.9 0.8 -0.3 3.3 -0.5 5.7 -0.5 3.9 0 4.6 0.4 6.6 3.6 2.5 4 8.6 7.3 13.6 7.4 2.5 0 4.5 -1.2 9.1 -5.5 6 -5.5 6 -5.5 13.3 -5.4 4.1 0.1 6.5 0.4 5.4 0.7 -3.1 1 -4.6 2.3 -9.2 7.4 -4.5 5 -5.1 7.1 -2.8 10.2 1 1.4 3.3 2 9.2 2.6 5.3 0.5 -1.5 0.8 -21.5 0.9 -19.7 0.1 -29.1 -0.2 -28.7 -0.9z"/><path d="M295.6 266 c9.6 -1.1 13.3 -5 10.1 -10.6 -1.8 -3.1 -8.3 -8.4 -11.4 -9.4 -2 -0.6 -0.4 -0.9 6 -0.9 4.8 -0.1 8.7 0.3 8.7 0.8 0 0.5 1 1.3 2.1 1.6 1.2 0.4 4.2 2 6.7 3.6 6.8 4.3 10.1 4.6 15.1 1.5 2.3 -1.5 4.7 -3.8 5.3 -5.1 1 -2.3 1.7 -2.5 7.2 -2.5 3.4 0 5.6 0.4 5.1 0.8 -0.6 0.4 -2.1 3.4 -3.3 6.7 -3.2 8.2 -4.4 10.5 -5.4 10.5 -0.4 0 -0.8 0.6 -0.8 1.4 0 1 1.4 1.6 4.3 1.9 2.3 0.2 -9.3 0.4 -25.8 0.4 -16.5 0 -27.3 -0.3 -23.9 -0.7z"/><path d="M193 246.6 c0 -1.7 3.7 -2.7 6.8 -1.9 4.1 1 2.6 3.3 -2.3 3.3 -3.2 0 -4.5 -0.4 -4.5 -1.4z"/><path d="M243.7 226.9 c0.3 -2.4 0.7 -4.6 0.9 -4.8 0.9 -1 0.3 6.5 -0.5 7.8 -0.6 1 -0.8 -0.1 -0.4 -3z"/><path d="M264.4 221.9 c-0.7 -8.8 -2.1 -11.3 -6.9 -12.5 -4.2 -1 -10.1 2.2 -11.9 6.5 -1.5 3.6 -1.5 3.6 -1.5 -5.4 -0.1 -9 -0.1 -9 4.7 -11.3 5.2 -2.5 7 -2.6 12.3 -1.2 3.6 1 3.6 1 4.1 16.3 0.3 8.3 0.4 15.4 0.3 15.5 -0.2 0.2 -0.7 -3.3 -1.1 -7.9z"/><path d="M45 205.8 c0 -3 1.3 -5.8 2.6 -5.8 0.9 0 1.4 1.2 1.4 3.5 0 2.8 -0.4 3.5 -2 3.5 -1.1 0 -2 -0.6 -2 -1.2z"/><path d="M412.8 203.2 c-3.4 -0.7 -2 -3.2 1.7 -3.2 2.3 0 3.5 0.5 3.5 1.4 0 1.5 -2.5 2.4 -5.2 1.8z"/><path d="M113 182 c0 -1.8 0.7 -2 6.8 -2 8 0 11.2 0.8 11.2 2.6 0 1.1 -2 1.4 -9 1.4 -8.3 0 -9 -0.1 -9 -2z"/><path d="M244.4 176.3 c1 -9.7 3.5 -11.5 13.1 -9.3 5.1 1.1 6.3 0.1 6.8 -5.8 0.2 -2.6 0.4 1 0.5 8.1 0.2 12.7 0.2 12.7 -2.6 12.7 -1.6 0 -4.3 -0.7 -5.9 -1.5 -2.5 -1.3 -3.6 -1.3 -5.7 -0.4 -1.4 0.7 -2.6 1.6 -2.6 2.1 0 0.4 -1 0.8 -2.1 0.8 -2 0 -2.1 -0.3 -1.5 -6.7z"/><path d="M307.5 175 c-0.3 -0.6 -0.9 -10.7 -1.2 -22.5 -0.6 -21.4 -0.6 -21.5 1.5 -21.5 1.9 0 2.1 0.7 2.4 6.3 0.3 5.4 0.4 5.8 1.2 3.2 1.1 -3.8 2.2 -4.5 6.8 -4.5 3.3 0 3.8 0.3 4.8 3.5 0.8 2.4 1.8 3.5 3.1 3.5 1.8 0 1.9 0.8 1.8 15.3 0 8.3 -0.3 14.6 -0.6 13.9 -0.3 -0.7 -2.3 -2.2 -4.6 -3.4 -4.1 -2.1 -4.1 -2.1 -8.2 2.6 -4 4.6 -5.8 5.5 -7 3.6z"/><path d="M359.2 149.4 c-1.7 -1.4 -3.7 -3.5 -4.3 -4.7 -1.1 -2 -0.9 -2 1.7 0.4 1.6 1.4 4.2 3.5 5.8 4.7 1.6 1.2 2.2 2.2 1.5 2.2 -0.8 0 -2.9 -1.2 -4.7 -2.6z"/><path d="M386.5 120.2 c-2.2 -2.6 -3.1 -4 -2 -3.2 2.3 1.7 4.1 3.8 5.6 6.3 1.6 2.7 0.7 2 -3.6 -3.1z"/><path d="M188.4 107.3 c-0.4 -1 -1.1 -11.5 -1.4 -23.3 -0.4 -14.4 -0.9 -20.4 -1.4 -18.2 -0.6 2.2 -1.4 3.2 -2.8 3.2 -1.8 0 -1.9 -0.5 -1.4 -3.7 1.7 -9.1 10.6 -17.8 19.5 -19 3.6 -0.5 4.1 -0.3 4.1 1.5 0 1.5 -0.9 2.1 -3.5 2.6 -7.9 1.5 -3 2.1 19.9 2.4 13.2 0.1 25.8 0.5 27.9 0.8 3.7 0.6 3.8 0.7 3.5 4.2 -0.3 3.3 -0.7 3.8 -4.8 5.2 -2.6 0.9 -4.6 2.3 -4.8 3.3 -0.3 1.5 -2 1.7 -17.1 1.7 -12.9 0 -17.1 0.3 -18.7 1.5 -3.4 2.3 -6.1 11.8 -6.7 23.2 -0.6 13 -1.8 15.7 -7.3 16.1 -3.2 0.2 -4.3 -0.1 -5 -1.5z m7.3 -24.9 c0.6 -6.1 1.8 -11.5 2.7 -12.9 2.7 -4.1 8.9 -6.6 20.1 -8.1 7.7 -1.1 9.3 -1.5 9.8 -2.8 0.5 -1.1 -1.7 -1.6 -10.7 -2.1 -14.1 -0.9 -19.1 -0.1 -22.8 3.5 -2.8 2.8 -2.8 2.8 -2.8 17.8 0 13.8 0.4 17.1 1.9 15.6 0.3 -0.3 1.1 -5.3 1.8 -11z"/><path d="M310.9 99.3 c-0.6 -1.6 -1.8 -6.8 -2.6 -11.8 -2 -12.4 -4.1 -17 -8.7 -18.6 -2.3 -0.8 -3.6 -1.9 -3.6 -3.1 0 -1.1 -0.7 -1.8 -1.9 -1.8 -1 0 -3.2 -0.5 -5 -1.1 -2.7 -1 -3.1 -1.5 -3.1 -4.9 0 -3.5 0.2 -3.8 3.8 -4.4 2 -0.3 8.3 -0.6 14 -0.6 5.6 0 10.2 -0.4 10.2 -0.8 0 -2 -8.6 -3.2 -23.4 -3.2 -13.2 0 -15.6 -0.2 -15.6 -1.5 0 -0.8 0.3 -1.5 0.8 -1.6 0.4 0 6.8 -0.2 14.4 -0.5 17.5 -0.7 23.1 0.4 29.1 5.6 5.3 4.7 7.6 10 8.4 19.2 0.6 6.5 0.5 6.8 -1.6 6.8 -1.9 0 -2.1 -0.6 -2.1 -5.2 -0.1 -2.9 -0.7 -6.6 -1.5 -8.3 -1.3 -3 -1.3 -3 -1.4 1.8 -0.1 6.3 -2.8 6.6 -3.7 0.5 -0.4 -2.4 -1.7 -5.2 -3.1 -6.6 -2 -2 -3.1 -2.3 -8.8 -2 -6.4 0.3 -9 2 -4 2.6 1.4 0.2 4 1.8 5.9 3.5 2.8 2.7 3.4 4.1 4 9.2 1.3 10.7 2.8 17.6 4 17.2 0.6 -0.2 1.2 -2.1 1.3 -4.3 0.8 -11.5 1.4 -14.4 3.3 -14.4 1.7 0 1.8 0.9 1.3 14.3 -0.2 7.8 -0.6 14.8 -0.8 15.5 -0.3 0.7 -2.1 1.2 -4.5 1.2 -3.5 0 -4.2 -0.4 -5.1 -2.7z m9.1 -44.3 c0 -1.5 -0.7 -2 -2.6 -2 -2.6 0 -2.6 0 -0.3 2 3 2.4 2.9 2.4 2.9 0z"/><path d="M207 48 c0 -1.9 0.7 -2 14.3 -2.1 7.8 0 16.9 -0.2 20.2 -0.5 7.6 -0.5 12.5 0.3 12.5 2 0 1.7 -10.5 2.6 -31.2 2.6 -15.1 0 -15.8 -0.1 -15.8 -2z"/><path d="M255 48 c0 -1.8 0.7 -2 8.5 -2 7.8 0 8.5 0.2 8.5 2 0 1.8 -0.7 2 -8.5 2 -7.8 0 -8.5 -0.2 -8.5 -2z"/></g><g fill="#00bdff" transform="matrix(0.095459, 0, 0, 0.095967, 397.706122, -4.230866)"><path d="M195.5 457.6 c-4.7 -2.1 -11.5 -8.5 -11.5 -10.6 0 -0.6 0.7 -1 1.5 -1 1.2 0 1.4 -0.7 0.9 -2.7 -0.9 -3.6 -1.4 -4.2 -1.4 -1.5 0 2.9 -2.6 2.8 -3.4 0 -0.9 -3.6 -0.7 -4.8 0.9 -4.8 0.8 0 1.5 -0.9 1.5 -2 0 -1.2 -0.7 -2 -1.6 -2 -1.5 0 -1.6 -1.4 -1.1 -14.1 0.4 -7.8 0.9 -14.4 1.2 -14.8 1.2 -1.1 4 1.7 5.3 5.4 0.7 2 1.5 9.4 1.8 16.4 0.9 18.5 3.2 22.2 15.4 24.2 7.2 1.2 32.8 0.5 39.7 -1.1 4.2 -1 16.4 -0.4 47.3 2.1 13.8 1.2 14.7 1.1 19.1 -0.8 3.6 -1.6 5.1 -3 6.7 -6.4 1.9 -4 2.1 -6.6 2.6 -30.4 0.2 -14.3 0.8 -28.1 1.1 -30.7 0.6 -4.1 3.4 -8.8 5.3 -8.8 0.4 0 0.8 2.5 0.9 5.6 0.2 4.6 0 5.5 -1.2 5 -1 -0.4 -1.5 0.1 -1.5 1.6 0 1.7 0.2 1.9 1.6 0.7 1.4 -1.1 1.5 0.5 1.3 17.4 -0.1 10.2 -0.6 18.4 -1 18.1 -1.1 -0.7 -2.3 4.2 -1.5 6.2 1 2.7 -2.4 14.3 -5.5 18.9 -1.6 2.4 -5 5.7 -7.6 7.4 -4.5 3 -6.6 3.5 -12.5 3.1 -1.6 -0.1 -2.8 0.3 -2.8 0.8 0 0.6 -4.8 1 -11 1.1 -11 0.2 -11 0.2 -11 -2.3 0 -2.3 -0.4 -2.5 -7.2 -3 -4 -0.4 -19.9 -0.5 -35.3 -0.4 -15.4 0.2 -30.1 -0.1 -32.7 -0.5 -3.2 -0.6 -4.8 -0.5 -4.8 0.2 0 0.6 1 1.1 2.3 1.1 4.2 0 6.7 1.2 6.7 3.1 0 2.5 -2.4 2.4 -8.5 -0.5z m-2.6 -5.9 c-0.2 -0.1 -1.2 -0.9 -2.1 -1.6 -1.5 -1.2 -1.8 -1.1 -1.8 0.3 0 1 0.8 1.6 2.2 1.6 1.2 0 1.9 -0.1 1.7 -0.3z"/><path d="M202 438.3 c-3.4 -1.2 -4 -3.6 -3.9 -15.7 0 -6.7 0.3 -11.5 0.6 -10.8 0.8 2 2.2 1.4 1.6 -0.8 -0.3 -1.1 -0.9 -1.8 -1.3 -1.5 -0.4 0.3 -0.8 -3 -0.9 -7.3 -0.1 -5.2 0.2 -7.2 0.8 -6.2 1.9 2.8 2.6 -0.3 3.2 -12.8 0.4 -8.9 0.6 -3.7 0.7 17.5 0.2 30.3 0.7 34.6 3.9 37.1 1.5 1.1 1.4 1.2 -0.8 1.1 -1.3 0 -3.1 -0.3 -3.9 -0.6z"/><path d="M326.4 360.8 c0.8 -5.8 1.6 -6 1.6 -0.5 0 2.7 -0.5 4.7 -1.1 4.7 -0.7 0 -0.9 -1.5 -0.5 -4.2z"/><path d="M262.8 341 c-1.4 -2.5 -2.3 -3 -5.6 -3 -4.7 0 -7.5 -2.7 -9.1 -8.7 -2.1 -7.9 1.2 -11.9 9.2 -11 5.2 0.5 5.3 0.4 5.5 -2.1 1.5 -16.7 1.9 -15.5 2.1 5.6 0 12.2 0 22.2 -0.1 22.2 -0.2 0 -1.1 -1.4 -2 -3z"/><path d="M428.8 330.3 c-1 -0.2 -1.8 -1.1 -1.8 -1.9 0 -1.1 1.5 -1.4 6.5 -1.4 4.9 0 6.5 0.3 6.5 1.4 0 2.2 -6.2 3.2 -11.2 1.9z"/><path d="M60.9 327.9 c-9.2 -4.2 -14.6 -11.9 -15.6 -22.4 -0.6 -6.2 -0.5 -6.5 1.6 -6.5 1.7 0 2.1 0.6 2.1 3.4 0 5.6 1.2 12.6 2.2 12.6 0.5 0 0.6 -0.5 0.2 -1.1 -0.7 -1.2 -0.6 -109.8 0.2 -113.9 0.4 -2.2 0.3 -2.2 -1 0.5 -1.1 2.3 -1.5 7.2 -1.6 19.8 0 16.3 -0.1 16.7 -2.1 16.7 -2.1 0 -2.1 -0.3 -1.7 -18.2 0.3 -17.6 0.4 -18.5 3 -23.9 3.1 -6.2 8.6 -11.2 14.9 -13.4 5.5 -2 6.9 -1.9 6.9 0.5 0 1.6 -0.7 2 -3 2 -1.6 0 -3 0.4 -3 1 0 0.5 1.2 0.8 2.8 0.5 1.5 -0.2 9.7 -0.7 18.2 -1 17.1 -0.6 20 -1.1 20 -3.2 0 -1.1 2.5 -1.3 15.8 -0.7 15.7 0.7 17.2 1.1 17.2 4.6 0 2.5 -2.5 2.7 -39.5 3.6 -36.5 0.9 -37.1 1 -41.1 7.6 -1.8 2.9 -1.9 6 -1.9 59.3 0 55.2 0 56.2 2.1 59 4.1 5.6 11.3 7.5 31.9 8.6 8.2 0.5 10.9 1.2 15.5 4.2 0.8 0.5 2.4 1.1 3.4 1.2 6.3 1 0.4 1.4 -20 1.2 -20.6 -0.1 -23.6 -0.3 -27.5 -2z m-4.9 -6.3 c0 -0.2 -0.7 -0.9 -1.5 -1.6 -1.2 -1 -1.5 -1 -1.5 0.4 0 0.9 0.7 1.6 1.5 1.6 0.8 0 1.5 -0.2 1.5 -0.4z"/><path d="M120.8 329.3 c2.9 -0.2 7.4 -0.2 10 0 2.6 0.2 0.2 0.3 -5.3 0.3 -5.5 0 -7.6 -0.1 -4.7 -0.3z"/><path d="M370.3 329.3 c8.1 -0.2 14.7 -0.7 14.7 -1.2 0 -0.5 1.5 -1.4 3.3 -2.2 1.7 -0.7 3.5 -1.7 3.8 -2.1 0.3 -0.5 1.7 -0.9 3 -0.9 5.1 -0.1 20.5 -3.3 21.9 -4.6 3 -2.7 -1.1 -3.2 -21.2 -2.6 -13.1 0.4 -20.2 0.2 -21 -0.5 -0.7 -0.5 -2.6 -1.2 -4.3 -1.5 -1.6 -0.3 -4.6 -1 -6.5 -1.6 -1.9 -0.6 -5.1 -1.2 -7 -1.3 -1.9 -0.1 14.8 -0.5 37.2 -0.8 40.8 -0.5 40.8 -0.5 43.3 -3.1 2.6 -2.5 2.6 -2.5 3.1 -28.4 0.3 -14.3 0.7 -26.1 0.9 -26.4 0.3 -0.2 0.5 3 0.5 7.3 0 4.3 0.5 8.6 1.1 9.8 1.7 3.2 2 37.3 0.3 42.1 -2.1 6 -1.9 7 1.4 6.2 3.7 -0.9 6 -3.2 6.6 -6.6 0.3 -1.6 0.9 -4.2 1.2 -5.9 0.3 -1.7 1.2 -3 2 -3 1.7 0 1.9 6.7 0.5 11.8 -0.5 1.7 -0.7 3.2 -0.3 3.2 1 0 5.2 -10.6 5.2 -13 0 -1.4 0.7 -2 2.1 -2 2 0 2.1 0.4 1.5 4.3 -1.5 9.7 -8.2 18.6 -16.8 22.2 -3.8 1.5 -3.8 1.5 -3.8 -1 0 -2.2 0.4 -2.5 3.5 -2.5 2.8 0 3.5 -0.4 3.5 -2 0 -1.6 -0.4 -1.8 -2.2 -1.1 -1.3 0.4 -5.7 1.1 -9.8 1.5 -4.8 0.5 -9.9 1.8 -14.2 3.7 -6.6 2.9 -6.6 2.9 -37.5 2.7 -16.9 -0.1 -24.2 -0.4 -16 -0.5z"/><path d="M81 310.9 c-1.9 -0.4 3.9 -0.6 13 -0.6 9.1 0 15.6 0.1 14.5 0.3 -4.2 0.7 -24.1 0.9 -27.5 0.3z"/><path d="M67.6 308.3 c-0.3 -0.4 -0.5 -6.1 -0.4 -12.7 0.1 -12.1 0.1 -12.1 0.8 -1.8 0.3 5.7 1.1 10.7 1.8 11.4 0.7 0.7 1.2 1.5 1.2 1.9 0 1 -2.7 1.9 -3.4 1.2z"/><path d="M452.6 294.4 c-0.8 -3 -0.7 -41.4 0.1 -44.3 0.3 -1.2 1.2 -2.1 1.9 -2.1 1.2 0 1.4 4.3 1.4 24.5 0 20.3 -0.2 24.5 -1.4 24.5 -0.8 0 -1.7 -1.2 -2 -2.6z"/><path d="M45 270.5 c0 -23.8 0.1 -24.5 2 -24.5 1.9 0 2 0.7 2 24.5 0 23.8 -0.1 24.5 -2 24.5 -1.9 0 -2 -0.7 -2 -24.5z"/><path d="M252.5 280.8 c-4 -12.4 -10 -18.4 -22 -22 -12.1 -3.6 -12.1 -3.6 -0.1 -7.5 13.5 -4.3 17 -7.4 21.1 -18.6 1.5 -4.2 3.1 -7.4 3.5 -7.2 0.5 0.3 1.5 2.5 2.3 5 1.5 4.3 1.5 4.5 -0.3 4.5 -1.2 0 -2.3 1.2 -3.1 3.5 -0.7 1.9 -1.7 3.5 -2.1 3.5 -0.4 0 -0.8 0.7 -0.8 1.5 0 0.9 -0.9 1.5 -2.5 1.5 -2 0 -2.5 0.5 -2.5 2.5 0 1.6 -0.6 2.5 -1.5 2.5 -0.8 0 -1.5 0.4 -1.5 0.8 0 0.5 -1.8 1.5 -4 2.2 -2.2 0.7 -4 1.6 -4 2 0 0.3 1.6 1.2 3.5 1.9 1.9 0.7 3.5 1.6 3.5 2 0 0.5 0.9 1.1 2 1.4 1.4 0.3 2 1.4 2 3.1 0 2.1 0.5 2.6 2.5 2.6 1.6 0 2.5 0.6 2.5 1.5 0 0.8 0.4 1.5 0.9 1.5 0.5 0 1.3 1.2 1.9 2.8 0.9 2.7 0.9 2.7 3.1 -1.5 1.8 -3.6 2.6 -4.3 5.1 -4.3 2.7 0 3 -0.3 3 -3 0 -2 0.5 -3 1.5 -3 0.8 0 1.5 -0.4 1.5 -1 0 -0.5 1.8 -1.4 3.9 -2.1 3.4 -1 3.8 -1.4 2.6 -2.5 -0.7 -0.8 -2 -1.4 -2.9 -1.4 -3.6 0 -6.6 -2.3 -6.6 -5.2 0 -2.4 -0.4 -2.8 -3 -2.8 -2.8 0 -3 -0.3 -3 -3.5 0 -1.9 0.3 -3.5 0.8 -3.5 0.4 0.1 1.9 1.8 3.4 4 3.4 4.9 9.8 8.2 20.1 10.5 4.2 0.9 7.7 2.1 7.7 2.5 0 0.4 -3.9 1.8 -8.6 3.1 -4.7 1.2 -10.5 3.5 -13 5.1 -5.1 3.2 -9.7 9.9 -12.1 17.5 -0.9 2.9 -2 5.3 -2.4 5.3 -0.4 0 -1.5 -2.4 -2.4 -5.2z"/><path d="M460 265.5 c0 -2.8 0.4 -3.5 2 -3.5 1.6 0 2 0.7 2 3.5 0 2.8 -0.4 3.5 -2 3.5 -1.6 0 -2 -0.7 -2 -3.5z"/><path d="M182.4 257.1 c-4.1 -1.9 -9.9 -9.4 -8.8 -11.3 1.1 -1.8 8.6 -0.8 12.2 1.7 2 1.4 4.6 2.5 5.8 2.5 1.2 0 3.8 -1.1 5.8 -2.5 3 -2 4.9 -2.5 9.9 -2.5 6.2 0.1 6.2 0.1 -1 7 -7.3 7 -7.3 7 -13.5 7 -4 0 -7.8 -0.7 -10.4 -1.9z"/><path d="M321.5 257.2 c-2.8 -1 -6.5 -2.7 -8.2 -4 -1.7 -1.2 -3.6 -2.2 -4.1 -2.2 -0.5 0 -2.4 -1.3 -4.2 -3 -3.2 -3 -3.2 -3 6 -3 7.7 0 9.6 0.3 11.7 2 1.4 1.1 3.3 2 4.3 2 1 0 2.9 -0.9 4.3 -2 1.8 -1.4 4 -2 7.6 -2 2.8 0 5.1 0.2 5.1 0.4 0 1.9 -5 8.2 -7.9 10.1 -5.3 3.3 -8.9 3.7 -14.6 1.7z"/><path d="M66.8 246.8 c-0.3 -4.2 -1.2 -8.7 -2 -10 -1.9 -3.3 -1.9 -33.8 0.1 -36.2 0.7 -0.9 3.9 -2.4 7 -3.4 4.9 -1.5 9.7 -1.7 36.6 -1.6 22.5 0.2 33.8 0.6 41 1.7 12.8 2 14.4 2.4 15.9 3.6 0.7 0.6 5.5 1.2 10.7 1.4 5.1 0.2 -3.2 0.4 -18.6 0.6 -46.2 0.5 -80.9 1.1 -83.1 1.6 -4.6 1 -5.3 4 -5.5 24.2 -0.3 22.3 -1.1 29.9 -2.1 18.1z m38.5 -47.5 c-2.9 -0.2 -7.8 -0.2 -11 0 -3.2 0.2 -0.8 0.3 5.2 0.3 6.1 0 8.7 -0.1 5.8 -0.3z"/><path d="M441 233.5 c0 -9.8 0.2 -17.6 0.5 -17.3 0.7 0.7 0.7 33.9 0.1 34.6 -0.3 0.3 -0.6 -7.5 -0.6 -17.3z"/><path d="M459.6 243.8 c-0.3 -4 -0.7 -16.4 -1 -27.6 -0.2 -11.1 -0.6 -20.6 -1 -20.9 -0.3 -0.4 -0.6 8.7 -0.6 20 0 20 -0.1 20.7 -2 20.7 -1.9 0 -2 -0.7 -2 -19.4 0 -19.3 0 -19.5 -2.5 -22.4 -3.8 -4.6 -8.9 -5.2 -33.8 -4.5 -21.6 0.6 -21.6 0.6 -23.4 -3.3 -1 -2.1 -2.2 -4.2 -2.6 -4.5 -0.9 -0.7 15.3 -1.9 25.1 -1.9 5.4 0 6.2 0.2 6.2 1.8 0 1.7 1.2 2 10.3 2.5 5.6 0.4 11.7 0.9 13.5 1.3 2.6 0.5 3.2 0.3 3.2 -1.1 0 -4.2 8.1 2.3 11.7 9.4 2.7 5.4 2.7 5.5 3.1 31.3 0.4 25.5 0.4 25.8 -1.6 25.8 -1.8 0 -2.1 -0.8 -2.6 -7.2z"/><path d="M264 209.6 c0 -5.8 -1 -7.2 -5.7 -8.5 -2.1 -0.6 -4 -0.1 -7.4 1.6 -2.6 1.3 -5.2 2.3 -5.8 2.3 -1.3 0 -1.6 -23.8 -0.3 -25.6 2.3 -3.5 9.7 -4.4 14.6 -1.9 3.4 1.8 4.3 1.2 4.9 -3 0.2 -1.6 0.5 6.8 0.6 18.8 0 11.9 -0.1 21.7 -0.4 21.7 -0.3 0 -0.5 -2.4 -0.5 -5.4z"/><path d="M438.2 207 c-1.7 -2.2 -3.4 -3 -7 -3.5 -2.6 -0.4 -5.7 -1.1 -6.9 -1.7 -1.2 -0.6 -3.7 -0.7 -6 -0.3 -2.1 0.4 -22.2 0.9 -44.8 1 -23.7 0.1 -36.5 -0.1 -30.3 -0.5 6 -0.4 11.4 -1.3 12.3 -2 0.8 -0.6 6.2 -1.6 12.1 -2.1 5.8 -0.4 13.1 -1.3 16.2 -2 3.9 -0.8 11.2 -0.9 23.2 -0.5 29.1 1.2 34.1 2.7 33.8 10.6 -0.1 2.2 -0.2 4 -0.2 3.9 -0.1 0 -1.1 -1.3 -2.4 -2.9z"/><path d="M440 182 c0 -2.1 1 -2.4 4.8 -1.4 3.6 1 2.7 3.4 -1.3 3.4 -2.8 0 -3.5 -0.4 -3.5 -2z"/><path d="M202.2 149.5 c-0.3 -7.8 -1.5 -11.1 -3.2 -8.5 -0.7 1.1 -1 1.2 -1 0.2 0 -1.6 -3.9 -5.1 -5.7 -5.2 -1.4 0 -3.3 5.3 -3.3 9.1 0 1.5 -0.7 3.5 -1.6 4.3 -1.6 1.6 -5.4 2.2 -5.4 0.9 -0.1 -0.5 -0.3 -9.2 -0.7 -19.5 -0.6 -18.5 -0.5 -18.8 1.5 -18.8 1.7 0 2.2 0.7 2.5 3.8 0.2 2 0.3 -5.8 0.3 -17.5 -0.1 -11.7 -0.2 -20.8 -0.4 -20.3 -0.2 0.6 -1.3 1 -2.4 1 -1.9 0 -2 -0.5 -1.6 -7.7 0.7 -11.7 4.3 -17.5 13.7 -22.4 4.3 -2.2 4.3 -2.2 61.1 -2.3 56.8 -0.1 56.8 -0.1 61.2 2.9 7.2 5.1 13.1 19.5 7.8 19.5 -1.9 0 -2 0.7 -2.1 16.3 0 8.9 -0.4 18.8 -0.8 21.9 -0.5 4.5 -0.3 6.4 1.1 9 0.9 1.8 1.7 4.1 1.8 5.1 0 0.9 0.7 1.7 1.6 1.7 1.3 0 1.5 2.1 1.3 16 -0.1 8.7 -0.6 15.7 -1 15.4 -0.5 -0.3 -1 -2.4 -1 -4.7 -0.1 -2.3 -0.3 -3.4 -0.6 -2.4 -0.8 2.9 -2.3 1.9 -4.5 -3 -2.5 -5.8 -2.2 -5.5 -4.1 -4.8 -0.8 0.4 -1.8 2.1 -2.1 3.9 -0.4 1.8 -1.2 4.1 -2 5.1 -1.3 1.8 -1.4 1.8 -3.4 -0.1 -1.9 -1.8 -2.2 -3.5 -2.8 -17.7 -0.7 -15.6 -0.7 -15.7 1.4 -15.7 1.9 0 2.2 0.6 2.3 4.3 0.1 4.2 0.1 4.2 1 0.3 0.6 -2.5 0.6 -5.1 -0.1 -7 -1.8 -5.5 -5 -26.6 -5 -32.8 0 -5.2 -0.3 -6.3 -2.9 -8.9 -2.9 -2.8 -3.2 -2.9 -13 -2.9 -10 0 -10.1 0 -10.1 -2.4 0 -2.7 -3 -3.7 -11.4 -3.5 -8.3 0.2 -11.1 1.1 -11.4 3.7 -0.4 2.3 -0.4 2.3 -21.5 1.6 -11.7 -0.3 -21.4 -0.8 -21.6 -1 -0.2 -0.2 1.8 -0.4 4.6 -0.4 2.8 0 6.7 -0.7 8.7 -1.5 2 -0.8 3.9 -1.5 4.3 -1.5 3.3 0 15.1 -3.2 17.7 -4.8 2.1 -1.2 -4 -1.9 -20.4 -2.3 -26.4 -0.6 -30.6 -0.4 -33.4 1.4 -5.3 3.5 -5.8 6.2 -5.4 26.6 0.4 18.5 1 22.5 3.2 21.8 2.4 -0.8 3.8 -6.4 4.3 -16.6 0.6 -11 1.6 -14.3 5.4 -17.6 2.2 -2 2.2 -2 1.3 0 -0.5 1.1 -1.1 20.7 -1.4 43.5 -0.3 22.8 -0.7 38.4 -0.8 34.5z m115.8 -63.1 c0.3 -6.5 0.2 -15 -0.1 -18.8 -0.6 -6 -1 -7.3 -3.5 -9.4 -2.7 -2.3 -3.3 -2.4 -13.6 -2 -14.5 0.6 -15.9 2.5 -3.6 4.9 6.1 1.2 9.3 3.5 10.9 7.7 0.5 1.4 1.8 7.5 2.9 13.6 2.1 12.7 3.5 16.9 5.3 16.4 0.8 -0.3 1.4 -4.1 1.7 -12.4z m-39.7 -34.1 c-3.5 -0.2 -9.1 -0.2 -12.5 0 -3.5 0.2 -0.7 0.3 6.2 0.3 6.9 0 9.7 -0.1 6.3 -0.3z m32.5 -1.3 c-1 -0.6 -4.7 -0.7 -10 -0.1 -8.3 0.8 -8.3 0.8 1.7 0.9 6.9 0.1 9.5 -0.2 8.3 -0.8z"/><path d="M324 82 c0 -8.7 0.3 -11 1.4 -11 1.9 0 2.6 3.2 2.6 13.3 0 8 -0.2 8.7 -2 8.7 -1.9 0 -2 -0.7 -2 -11z"/></g><g fill="#00d0ff" transform="matrix(0.095459, 0, 0, 0.095967, 397.706122, -4.230866)"><path d="M197.6 458.4 c-5.6 -2 -10.2 -5.8 -13 -10.7 -3.3 -5.7 -3.9 -9.4 -3.1 -18.3 0.7 -7.5 0.7 -7.5 2.5 -4.6 1 1.6 2.6 5.8 3.6 9.3 3.2 12 6.9 15.6 16.7 16.5 9.8 0.9 11.7 1.4 11.7 3 0 1.3 -1.4 1.5 -8.5 1.2 -4.7 -0.2 -8.5 0 -8.5 0.5 0 0.4 1.4 0.7 3 0.7 2.3 0 3 0.4 3 2 0 2.4 -1.8 2.5 -7.4 0.4z"/><path d="M263 459.1 c0 -1.9 -10.5 -3.1 -26.5 -3.1 -15.5 0 -16.5 -0.1 -16.5 -1.9 0 -1.7 1.2 -2 14.8 -2.6 18.1 -0.9 42.1 -0.1 45.2 1.5 2.2 1.2 2.2 1.2 0 3.5 -2.2 2.3 -2.2 2.3 0.6 2.8 1.6 0.2 -1.7 0.5 -7.3 0.6 -5.7 0 -10.3 -0.3 -10.3 -0.8z"/><path d="M202.4 414 c0 -10.2 0.2 -14.3 0.3 -9.2 0.2 5 0.2 13.4 0 18.5 -0.1 5 -0.3 0.9 -0.3 -9.3z"/><path d="M64 329.1 c-4.6 -1.4 -11 -6.1 -14 -10.2 -3.5 -4.9 -4.9 -10.7 -2.9 -12 1.2 -0.8 1.2 -1.1 -0.1 -1.9 -1.2 -0.8 -1.5 -4 -1.5 -18.5 0.1 -11.5 0.4 -17.9 1.1 -18.3 1.7 -1 2.4 -12.2 0.8 -12.2 -0.6 0 -1.4 -1 -1.8 -2.3 -0.4 -1.8 -0.2 -35.6 0.3 -43.4 0.1 -0.7 0.8 -1.3 1.6 -1.3 1.1 0 1.5 1.8 1.8 7.8 0.3 7.2 0.3 7 0.5 -2.5 0.2 -9.7 0.1 -10.3 -1.8 -10.3 -2.6 0 -2.5 -2.2 0.1 -8 2.5 -5.5 7.1 -10.5 12.4 -13.3 3.5 -1.9 6 -2.2 19 -2.5 14.5 -0.4 44.3 0.8 39.8 1.6 -1.3 0.2 -2.3 0.7 -2.3 1.2 0 2.4 -10.1 3.8 -34 4.9 -11.6 0.5 -18.6 1.3 -20.5 2.2 -3.9 1.9 -6.6 5.8 -7.6 11 -1.3 7 -1.2 107.9 0.1 111.4 1.8 4.7 4.9 7.4 13.5 11.9 8 4.1 8 4.1 29.5 4.6 21.5 0.6 21.5 0.6 -5 0.7 -14.6 0.1 -27.6 -0.2 -29 -0.6z"/><path d="M391.3 329.3 c3.2 -0.2 8.1 -0.2 11 0 2.9 0.2 0.3 0.3 -5.8 0.3 -6 0 -8.4 -0.1 -5.2 -0.3z"/><path d="M417 325.9 c6.8 -3.3 10.5 -4.4 18.4 -5.5 11.2 -1.5 14.5 -3.2 16.2 -8.5 0.7 -2.2 1.3 -22.5 1.7 -58.8 0.7 -54.2 0.6 -55.5 -1.3 -58.6 -3.2 -5.1 -6.6 -6.1 -25.7 -7.4 -11.1 -0.8 -13.7 -1.3 -15.9 -3 -1.5 -1.2 -3.6 -2.1 -4.7 -2.1 -1.1 0 -1.8 -0.2 -1.6 -0.5 1.2 -1.1 36.6 -1.7 40.5 -0.6 4.7 1.3 13.5 7.2 11.6 7.9 -0.7 0.2 -1 0.8 -0.7 1.2 0.3 0.5 1.2 0.7 1.9 0.4 1.9 -0.7 4.8 5.9 4.6 10.4 -0.5 9.4 0.1 24.3 0.8 23.8 0.5 -0.3 0.9 0.1 0.9 0.9 0 0.8 -0.5 1.1 -1.1 0.8 -0.6 -0.4 -0.5 0 0.2 0.9 0.7 0.9 0.9 1.9 0.4 2.2 -0.4 0.2 -0.6 3.5 -0.4 7.3 0.3 3.7 0.5 21.4 0.6 39.3 0.1 32.5 0.1 32.5 -2.6 38.3 -3.1 6.7 -7.5 11.1 -13.6 13.8 -5.5 2.4 -7.2 2.4 -7.2 -0.1 0 -1.5 0.7 -2 2.5 -2 1.4 0 2.5 -0.4 2.5 -0.9 0 -1.2 -12.8 1.7 -15.7 3.5 -1.5 0.9 -5.3 1.4 -11.5 1.4 -9.3 0 -9.3 0 -0.8 -4.1z m42.1 -41.9 c-0.2 -12.9 -0.6 -26.9 -1.1 -31 -0.4 -4.9 -0.8 3.6 -0.9 24.7 0 17.7 -0.4 33 -0.7 34 -0.3 1 0.3 0.5 1.2 -1.2 1.6 -2.7 1.7 -5.6 1.5 -26.5z"/><path d="M252.1 278.8 c-1.9 -5.8 -3.3 -8.2 -7.5 -12.3 -5 -5 -9.2 -7.2 -18.3 -9.5 -2.4 -0.6 -4.3 -1.4 -4.3 -1.8 0 -0.4 4.1 -2.1 9.2 -3.7 11.8 -3.6 17.1 -8.4 20.7 -18.7 1.3 -3.8 2.5 -6.8 2.7 -6.8 0.2 0 1.9 3.5 3.9 7.7 2 4.3 4.8 9.1 6.3 10.7 3.3 3.5 10.7 6.9 18.5 8.5 3.1 0.7 5.7 1.6 5.7 2.1 0 0.5 -1.9 1.4 -4.2 2.1 -11 3 -14 4.3 -18.3 8.1 -4.7 4.2 -7.3 8.3 -9.5 15.3 -0.7 2.2 -1.5 4.3 -1.9 4.8 -0.4 0.4 -1.7 -2.5 -3 -6.5z m6 -8.8 c1.4 0 1.9 -0.7 1.9 -2.7 0 -2.8 2.5 -6.3 4.5 -6.3 0.7 0 1.5 -0.6 1.8 -1.4 0.3 -0.8 2.5 -2 4.8 -2.8 4.2 -1.4 4.2 -1.4 -0.4 -3.2 -2.6 -1 -4.7 -2.4 -4.7 -3.1 0 -0.8 -1 -1.5 -2.1 -1.7 -1.2 -0.2 -2.7 -1.2 -3.3 -2.3 -0.6 -1 -1.7 -2.5 -2.3 -3.3 -0.7 -0.7 -1.3 -1.6 -1.3 -2 0 -0.4 -0.4 -1.3 -0.9 -2.1 -0.8 -1.2 -1.2 -1.2 -2.5 0.2 -0.9 0.8 -1.6 2.3 -1.6 3.2 0 2.4 -6.4 8.5 -8.9 8.5 -1.2 0 -2.1 0.4 -2.1 1 0 0.5 -1.1 1.2 -2.5 1.6 -1.4 0.3 -2.5 1 -2.5 1.4 0 0.4 1.1 1.1 2.5 1.4 1.4 0.4 2.5 1.1 2.5 1.6 0 0.6 0.7 1 1.5 1 0.8 0 1.5 0.5 1.5 1 0 0.6 0.5 1 1.1 1 1.6 0 3.9 2.6 3.9 4.4 0 0.9 0.7 1.6 1.5 1.6 0.8 0 1.5 0.7 1.5 1.5 0 0.8 0.4 1.5 0.9 1.5 0.5 0 1.2 1.2 1.7 2.8 0.8 2.7 0.8 2.7 1.2 0 0.2 -2 0.9 -2.8 2.3 -2.8z"/><path d="M183.6 250.8 c-8.1 -5.4 -7.6 -5.8 8.5 -5.8 14.2 0 14.2 0 11.8 2.6 -3.1 3.3 -6.7 5.2 -11.5 6 -3.3 0.5 -4.6 0.1 -8.8 -2.8z"/><path d="M320.9 250.8 c-3.4 -2.3 -7.2 -4.2 -9.9 -5.1 -0.8 -0.3 4.9 -0.6 12.8 -0.6 14.1 -0.1 14.3 -0.1 13.2 2 -1.5 2.7 -6.9 5.9 -10.1 5.9 -1.4 0 -4.1 -1 -6 -2.2z"/><path d="M66.3 220.2 c-1.1 -9.9 -0.8 -15.7 0.9 -17.9 3.8 -4.7 17.8 -6.8 39.8 -5.9 18.2 0.8 21.8 1.1 28.6 3.2 2.8 0.8 10.5 1.9 17 2.3 9.4 0.7 6.4 0.8 -14.1 0.6 -14.3 -0.2 -28.2 -0.7 -30.9 -1 -3.4 -0.5 -5.1 -0.4 -5.6 0.5 -1 1.6 -6 1.6 -7 0 -0.9 -1.4 -5.6 -1 -16.4 1.3 -8.3 1.8 -9.5 3.6 -10.2 16.2 -0.3 5.5 -0.7 10.1 -0.8 10.2 -0.1 0.1 -0.7 -4.2 -1.3 -9.5z"/><path d="M264.4 191.5 c0 -7.7 0.2 -10.7 0.3 -6.7 0.2 4 0.2 10.3 0 14 -0.2 3.7 -0.3 0.4 -0.3 -7.3z"/><path d="M353 202.4 c1.4 -0.2 10.2 -0.6 19.5 -0.9 9.4 -0.3 22 -0.9 28 -1.5 25.6 -2.3 26.2 -2.3 27.6 -0.2 0.8 1 2.1 2.1 2.9 2.5 0.8 0.3 -16.9 0.5 -39.5 0.5 -22.5 -0.1 -39.9 -0.2 -38.5 -0.4z"/><path d="M306.7 122.4 c-0.9 -16.6 -0.8 -36.4 0.2 -38.8 0.7 -1.7 0.9 -1.6 1.9 1 0.6 1.6 1.9 7.3 2.7 12.7 0.9 5.3 2 10.9 2.5 12.3 2.3 5.9 0.2 18 -3.9 22.7 -2.8 3 -2.8 3 -3.4 -9.9z"/><path d="M201.9 122.3 c-0.5 -32.1 -0.4 -43.4 0.3 -44.5 0.4 -0.7 0.8 11.2 0.8 26.5 0 15.2 -0.2 27.7 -0.5 27.7 -0.3 0 -0.6 -4.4 -0.6 -9.7z"/><path d="M324.3 127.6 c-1.3 -1.2 -2.3 -2.7 -2.3 -3.4 0 -0.7 -0.9 -3.1 -2.1 -5.4 -1.7 -3.3 -2 -5.1 -1.4 -9.2 1.2 -8.5 1.5 -35.5 0.5 -42.4 -0.7 -4.9 -1.5 -7.2 -3.5 -9.1 -2.5 -2.6 -2.5 -2.6 -39.3 -2.7 -39.9 -0.1 -48.4 -0.8 -44.2 -3.4 2.4 -1.5 9.7 -2 39.8 -3 15.5 -0.5 28.7 -1.2 29.3 -1.6 2 -1.2 10.8 -0.5 13.7 1.1 6.4 3.5 9.6 7.7 11.1 14.6 1.4 6 2.6 61.7 1.5 64.5 -0.9 2.1 -0.9 2.1 -3.1 0z"/><path d="M181.7 117.8 c-0.9 -10.7 -0.9 -34.4 -0.1 -44.1 0.6 -6.5 1 -7.7 2.5 -7.7 1 0 2.4 1 3 2.2 1.5 2.8 2.3 51.6 0.9 55.3 -0.6 1.7 -1.7 2.5 -3.3 2.5 -2.3 0 -2.4 -0.4 -3 -8.2z"/><path d="M298 68 c-1.9 -0.5 -9.1 -0.6 -16 -0.3 -14.7 0.6 -44.7 -0.6 -40.9 -1.7 1.4 -0.4 3.7 -1.5 5 -2.3 6.7 -4.4 26.3 -6.2 36.2 -3.3 2.8 0.8 7.7 1.8 10.7 2.2 5.1 0.6 10 3.4 10 5.6 0 0.9 -0.2 0.9 -5 -0.2z"/><path d="M210.5 53 c0.8 -1.3 4.5 -1.3 6.5 0 1.1 0.7 0.3 1 -2.8 1 -2.6 0 -4.1 -0.4 -3.7 -1z"/></g><g fill="#00e1ff" transform="matrix(0.095459, 0, 0, 0.095967, 397.706122, -4.230866)"><path d="M200 459.1 c-6.8 -2.1 -13.2 -7.5 -16.4 -13.8 -1.8 -3.6 -2.3 -7.9 -0.6 -5.3 0.5 0.8 1 1.1 1 0.6 0 -0.5 1.9 1 4.3 3.4 2.3 2.3 5.8 4.9 7.7 5.7 4 1.8 23.9 3.2 45.7 3.2 16.5 0.1 23.9 1.3 24.6 4.1 0.4 1.4 1.6 2 4.8 2.3 2.4 0.2 -4.5 0.4 -15.3 0.5 -12 0.1 -20.8 -0.2 -22.5 -0.9 -1.5 -0.6 -8.3 -1.3 -15 -1.6 -11 -0.5 -12.3 -0.4 -12.3 1 0 1.8 -1.9 2 -6 0.8z"/><path d="M414.3 329.3 c6.2 -0.2 10.5 -0.8 10.2 -1.3 -1 -1.6 3.7 -3.7 11.8 -5.5 4.2 -0.9 9.2 -2.7 11 -3.9 6.1 -4.1 6.1 -4.2 6.8 -48.1 0.8 -48 1.7 -57.5 4.7 -49.7 1.5 3.8 2 10.5 2.8 36.2 1 33.5 1 33.5 1.6 34.5 0.3 0.6 0.4 3 0.3 5.5 -1.2 17.5 -5.7 26 -16.5 30.9 -4.1 1.9 -6.3 2 -24 1.9 -11.6 -0.1 -15.1 -0.4 -8.7 -0.5z"/><path d="M48.4 315.3 c-1.8 -3.6 -1.9 -7.3 -2.2 -57.8 -0.3 -49.5 -0.2 -54.4 1.5 -59.3 3.5 -10.6 11.9 -16.8 23.3 -17.3 9.3 -0.4 41.2 0.3 37 0.8 -1.9 0.3 -6.6 1.3 -10.5 2.4 -4.5 1.2 -10.2 1.9 -16 1.9 -10.4 0 -19.7 1.9 -22.6 4.6 -2.8 2.6 -4.5 6.1 -5.3 10.9 -0.7 5.1 -1.6 40.4 -2.1 83.4 -0.2 18.3 -0.6 33.5 -0.8 33.7 -0.2 0.3 -1.3 -1.2 -2.3 -3.3z"/><path d="M253.7 283 c-0.3 -1.3 0 -2 0.9 -2 1.5 0 1.9 2.6 0.5 3.4 -0.5 0.3 -1.1 -0.3 -1.4 -1.4z"/><path d="M255 275.5 c0 -1.9 0.5 -3.5 1 -3.5 0.6 0 1 -0.9 1 -2 0 -1.1 0.5 -2 1 -2 0.6 0 1 -0.7 1 -1.5 0 -0.9 0.9 -1.5 2.5 -1.5 2 0 2.5 -0.5 2.5 -2.5 0 -2.2 0.4 -2.5 3.7 -2.5 3.6 0 3.6 0 -1.3 4.8 -2.7 2.6 -6 6.8 -7.2 9.5 -2.6 5.6 -4.2 6 -4.2 1.2z"/><path d="M239.3 261.7 c-4.2 -2.8 -4.1 -3.7 0.2 -3.7 3.2 0 3.5 0.2 3.5 3 0 1.7 -0.1 3 -0.2 2.9 -0.2 0 -1.8 -1 -3.5 -2.2z"/><path d="M278 256 c0 -1.6 0.7 -2 3.5 -2 4 0 4.9 2.4 1.3 3.4 -3.8 1 -4.8 0.7 -4.8 -1.4z"/><path d="M263 246.9 c0 -3 0 -3 3 -0.9 4.4 3.1 4.5 4 0.6 4 -3.3 0 -3.6 -0.2 -3.6 -3.1z"/><path d="M187.3 245.3 c2 -0.2 5.4 -0.2 7.5 0 2 0.2 0.3 0.4 -3.8 0.4 -4.1 0 -5.8 -0.2 -3.7 -0.4z"/><path d="M322.7 245.3 c1.8 -0.2 5 -0.2 7 0 2.1 0.2 0.7 0.4 -3.2 0.4 -3.8 0 -5.5 -0.2 -3.8 -0.4z"/><path d="M73.4 203.2 c0.4 -0.7 1.4 -1.2 2.2 -1.2 0.8 0 1.4 -0.4 1.4 -0.9 0 -3.2 29 -4.3 42 -1.5 4.1 0.9 12.7 1.9 19 2.3 8.5 0.6 2.1 0.8 -25.2 1 -20.1 0 -37.4 0.4 -38.4 0.8 -1.2 0.4 -1.5 0.3 -1 -0.5z"/><path d="M394.3 202.3 c1.5 -0.2 3.9 -0.2 5.5 0 1.5 0.2 0.2 0.4 -2.8 0.4 -3 0 -4.3 -0.2 -2.7 -0.4z"/><path d="M455.7 198.2 c-0.9 -1 -1.7 -2.3 -1.7 -2.8 0 -2.2 -5.8 -6.3 -11 -7.9 -3 -0.9 -7.5 -2.4 -10 -3.2 -2.5 -0.9 -6.5 -1.9 -9 -2.3 -3.2 -0.5 -0.9 -0.8 8.3 -0.9 10 -0.1 13.5 0.3 16 1.5 5.2 2.6 9.6 6.3 11.1 9.3 1.3 2.4 1.3 3 -0.3 5.4 -1.7 2.6 -1.8 2.7 -3.4 0.9z"/><path d="M307 105.4 c0 -8.7 0.2 -15.5 0.4 -15.3 0.2 0.2 0.7 2.2 1 4.4 0.3 2.2 1.1 7.2 1.7 11 1.3 8.3 0.9 11.6 -1.4 13.9 -1.6 1.6 -1.7 0.9 -1.7 -14z"/><path d="M202.3 110.5 c0 -4.4 0.2 -6.1 0.4 -3.7 0.2 2.3 0.2 5.9 0 8 -0.2 2 -0.4 0.1 -0.4 -4.3z"/><path d="M182 105.3 c-0.1 -4.6 -0.2 -9 -0.2 -9.8 0 -0.8 0.1 -4.8 0.2 -8.7 0.3 -11.9 1.8 -4.1 1.8 9.7 0 14.3 -1.5 21.4 -1.8 8.8z"/><path d="M326.3 111.4 c0.3 -0.6 0.1 -1.6 -0.4 -2.4 -0.8 -1.3 -1 -1.3 -1.8 -0.1 -0.8 1.3 -1.3 -3.1 -2.6 -22.9 -0.4 -7.4 0.6 -10.6 2.4 -7.2 0.6 1.1 1.1 3.4 1.1 5.1 0 1.6 0.6 3.2 1.3 3.4 1 0.4 1 0.6 0 0.6 -0.7 0.1 -1.3 0.8 -1.3 1.7 0 0.8 0.5 1.2 1 0.9 0.6 -0.4 1 1.6 1.1 5.2 0.1 3.2 0.2 8 0.3 10.6 0.1 2.7 -0.2 5.1 -0.7 5.4 -0.6 0.3 -0.7 0.2 -0.4 -0.3z"/><path d="M202.3 88 c0 -3 0.2 -4.3 0.4 -2.7 0.2 1.5 0.2 3.9 0 5.5 -0.2 1.5 -0.4 0.2 -0.4 -2.8z"/><path d="M251.6 66.1 c1.7 -0.4 3.6 -1.1 4.2 -1.5 3.5 -2.1 18.7 -2.9 22.7 -1.2 1.1 0.5 2.2 1 2.5 1.1 6 2.1 4.5 2.4 -13.5 2.3 -10.4 0 -17.6 -0.3 -15.9 -0.7z"/></g><g fill="#00f5ff" transform="matrix(0.095459, 0, 0, 0.095967, 397.706122, -4.230866)"><path d="M200.3 458.9 c-4 -1.2 -4.7 -2.3 -2.7 -4 2.5 -2.1 33.2 -1.1 39.4 1.3 1.4 0.6 7.9 1.6 14.5 2.3 12 1.3 12 1.3 -18 1.3 -16.5 0 -31.4 -0.4 -33.2 -0.9z"/><path d="M427.5 329.1 c4.2 -0.4 7 -1.4 9.5 -3.2 1.9 -1.5 4.7 -2.9 6.2 -3.3 4.2 -1 9.5 -7 10.7 -12.4 0.7 -2.6 1.3 -15.2 1.4 -28.2 0.1 -15.3 0.6 -24.2 1.3 -25.4 1.1 -1.9 1.2 -1.9 1.7 0 1.6 5.5 2.9 25.4 2.9 42.9 0 12.5 -1.6 17.7 -7.4 23.1 -6 5.7 -9.2 6.8 -21.3 7 -7.9 0.1 -9.3 0 -5 -0.5z"/><path d="M96.2 202.3 c6.5 -0.2 17.1 -0.2 23.5 0 6.5 0.1 1.2 0.3 -11.7 0.3 -12.9 0 -18.2 -0.2 -11.8 -0.3z"/><path d="M72 181.9 c-4.3 -0.4 -1.4 -0.6 8.5 -0.6 15.3 -0.1 17.6 0.4 5 0.9 -3.8 0.2 -9.9 0 -13.5 -0.3z"/></g><g fill="#ffffff" transform="matrix(0.095459, 0, 0, 0.095967, 397.706122, -4.230866)"><path d="M252.5 278.8 c-2.6 -7.8 -8.3 -14.9 -14.6 -18.3 -1.4 -0.8 -5.6 -2.2 -9.3 -3.1 -3.6 -0.9 -6.6 -2 -6.6 -2.4 0 -0.4 2.4 -1.2 5.3 -1.9 6.4 -1.4 16.6 -6.1 18.9 -8.7 1.5 -1.7 4.4 -7.7 7.5 -15.3 0.8 -2.2 1.3 -1.7 5.4 6.5 5.5 11 9.1 13.8 21.7 17 9.7 2.4 9.7 2.5 -2.3 5.9 -11.2 3.1 -17.8 9.5 -21.2 20.1 -0.9 3 -2 5.4 -2.4 5.4 -0.4 0 -1.5 -2.4 -2.4 -5.2z"/></g><g id="group-1" stroke-linecap="round" fill-rule="evenodd" font-size="9pt" stroke="#ffffff" stroke-width="0.25mm" fill="#ffffff" style="stroke:#ffffff;stroke-width:0.25mm;fill:#ffffff" transform="matrix(1.000059, 0, 0, 1.000059, 0, 0.000001)"><path d="M 7.5 66.667 L 0 66.667 L 0 2.083 L 29.028 42.083 L 57.5 2.083 L 57.5 66.667 L 49.583 66.667 L 49.583 37.778 Q 49.583 34.931 49.653 31.563 Q 49.722 28.194 50.139 23.889 Q 47.986 27.708 45.938 30.59 Q 43.889 33.472 42.222 35.903 L 28.75 55 L 14.861 35.903 Q 13.125 33.472 11.146 30.59 Q 9.167 27.708 6.944 23.889 Q 7.361 28.194 7.431 31.563 Q 7.5 34.931 7.5 37.778 L 7.5 66.667 Z M 245 66.667 L 237.5 66.667 L 237.5 25 L 244.444 25 L 244.444 31.736 Q 246.736 28.056 250.382 26.111 Q 254.028 24.167 258.264 24.167 Q 262.708 24.167 266.493 26.354 Q 270.278 28.542 272.639 32.674 Q 275 36.806 275 42.708 L 275 66.667 L 267.5 66.667 L 267.5 43.75 Q 267.5 38.819 264.549 35.035 Q 261.597 31.25 256.25 31.25 Q 251.875 31.25 248.438 34.41 Q 245 37.569 245 43.542 L 245 66.667 Z M 333.819 66.667 L 325.833 66.667 L 352.292 2.083 L 352.431 2.083 L 378.889 66.667 L 370.486 66.667 L 363.125 48.125 L 341.25 48.125 L 333.819 66.667 Z M 154.167 29.931 L 154.167 0 L 161.667 0 L 161.667 66.667 L 154.722 66.667 L 154.722 61.181 Q 151.944 63.958 148.16 65.59 Q 144.375 67.222 140.069 67.222 Q 134.375 67.222 129.653 64.34 Q 124.931 61.458 122.118 56.597 Q 119.306 51.736 119.306 45.833 Q 119.306 39.931 122.118 35.069 Q 124.931 30.208 129.653 27.326 Q 134.375 24.444 140.069 24.444 Q 144.167 24.444 147.778 25.903 Q 151.389 27.361 154.167 29.931 Z M 112.222 44.861 L 112.222 47.917 L 85 47.917 Q 83.194 47.917 81.319 47.778 Q 79.444 47.639 77.639 47.361 Q 78.403 52.917 82.674 56.667 Q 86.944 60.417 92.847 60.417 Q 96.806 60.417 100.208 58.611 Q 103.611 56.806 105.694 53.819 L 107.778 62.361 Q 104.792 64.792 100.938 66.146 Q 97.083 67.5 92.778 67.5 Q 86.25 67.5 81.076 64.583 Q 75.903 61.667 72.951 56.632 Q 70 51.597 70 45.417 Q 70 39.514 72.847 34.688 Q 75.694 29.861 80.521 27.014 Q 85.347 24.167 91.181 24.167 Q 96.944 24.167 101.736 26.91 Q 106.528 29.653 109.375 34.306 Q 112.222 38.958 112.222 44.861 Z M 206.667 66.667 L 177.083 66.667 L 177.083 4.167 L 185 4.167 L 185 59.583 L 206.667 59.583 L 206.667 66.667 Z M 295 66.667 L 287.5 66.667 L 287.5 0 L 295 0 L 295 66.667 Z M 397.639 66.667 L 389.722 66.667 L 389.722 4.167 L 397.639 4.167 L 397.639 66.667 Z M 324.167 66.667 L 314.653 66.667 L 295.833 43.75 L 311.319 25 L 320 25 L 304.792 43.194 L 324.167 66.667 Z M 224.167 66.667 L 216.667 66.667 L 216.667 25 L 224.167 25 L 224.167 66.667 Z M 141.042 60.417 Q 145 60.417 148.229 58.438 Q 151.458 56.458 153.368 53.16 Q 155.278 49.861 155.278 45.833 Q 155.278 41.806 153.368 38.507 Q 151.458 35.208 148.229 33.229 Q 145 31.25 141.042 31.25 Q 137.083 31.25 133.854 33.229 Q 130.625 35.208 128.715 38.507 Q 126.806 41.806 126.806 45.833 Q 126.806 49.861 128.715 53.16 Q 130.625 56.458 133.854 58.438 Q 137.083 60.417 141.042 60.417 Z M 85 41.667 L 98.819 41.667 Q 100.347 41.667 101.84 41.771 Q 103.333 41.875 104.861 42.014 Q 103.889 37.153 100 33.993 Q 96.111 30.833 91.181 30.833 Q 86.111 30.833 82.292 34.201 Q 78.472 37.569 77.431 42.292 Q 81.181 41.667 85 41.667 Z M 348.819 29.167 L 343.889 41.528 L 360.486 41.528 L 355.556 29.167 Q 354.653 26.806 353.819 24.514 Q 352.986 22.222 352.153 19.028 Q 351.319 22.222 350.556 24.479 Q 349.792 26.736 348.819 29.167 Z M 220.417 17.5 Q 218.333 17.5 216.875 16.042 Q 215.417 14.583 215.417 12.5 Q 215.417 10.347 216.875 8.924 Q 218.333 7.5 220.416 7.5 Q 222.569 7.5 223.993 8.924 Q 225.417 10.347 225.417 12.5 Q 225.417 14.583 223.993 16.042 Q 222.569 17.5 220.417 17.5 Z" vector-effect="non-scaling-stroke"/></g></svg>